Lato-BlackItalic.ufo
<glyph name="exclam" format="2">
  <advance width="553"/>
  <unicode hex="0021"/>
  <outline>
    <contour>
      <point x="234" y="1460" type="line"/>
      <point x="164" y="886" type="line"/>
      <point x="148" y="764"/>
      <point x="148" y="642"/>
      <point x="156" y="518" type="curve"/>
      <point x="358" y="518" type="line"/>
      <point x="396" y="642"/>
      <point x="428" y="764"/>
      <point x="442" y="886" type="curve"/>
      <point x="512" y="1460" type="line"/>
    </contour>
    <contour>
      <point x="52" y="162" type="curve" smooth="yes"/>
      <point x="52" y="62"/>
      <point x="128" y="-14"/>
      <point x="228" y="-14" type="curve" smooth="yes"/>
      <point x="326" y="-14"/>
      <point x="404" y="62"/>
      <point x="404" y="162" type="curve" smooth="yes"/>
      <point x="404" y="260"/>
      <point x="326" y="338"/>
      <point x="228" y="338" type="curve" smooth="yes"/>
      <point x="128" y="338"/>
      <point x="52" y="260"/>
    </contour>
  </outline>
  <guideline angle="90" x="349" y="0"/>
  <guideline angle="82.9991" x="100" y="0"/>
</glyph>
<glyph name="numbersign" format="2">
  <advance width="1160"/>
  <unicode hex="0023"/>
  <outline>
    <contour>
      <point x="193" y="524" type="line"/>
      <point x="187" y="472" type="line"/>
      <point x="43" y="0" type="line"/>
      <point x="177" y="0" type="line" smooth="yes"/>
      <point x="239" y="0"/>
      <point x="301" y="30"/>
      <point x="323" y="108" type="curve"/>
      <point x="431" y="472" type="line"/>
      <point x="437" y="524" type="line"/>
      <point x="565" y="944" type="line"/>
      <point x="571" y="998" type="line"/>
      <point x="711" y="1458" type="line"/>
      <point x="573" y="1458" type="line" smooth="yes"/>
      <point x="511" y="1458"/>
      <point x="455" y="1420"/>
      <point x="435" y="1358" type="curve"/>
      <point x="327" y="998" type="line"/>
      <point x="319" y="944" type="line"/>
    </contour>
    <contour>
      <point x="611" y="524" type="line"/>
      <point x="605" y="472" type="line"/>
      <point x="499" y="124" type="line"/>
      <point x="477" y="58"/>
      <point x="513" y="0"/>
      <point x="567" y="0" type="curve" smooth="yes"/>
      <point x="707" y="0" type="line"/>
      <point x="849" y="472" type="line"/>
      <point x="855" y="524" type="line"/>
      <point x="981" y="944" type="line"/>
      <point x="989" y="998" type="line"/>
      <point x="1097" y="1356" type="line" smooth="yes"/>
      <point x="1115" y="1414"/>
      <point x="1077" y="1458"/>
      <point x="1017" y="1458" type="curve"/>
      <point x="883" y="1458" type="line"/>
      <point x="743" y="998" type="line"/>
      <point x="737" y="944" type="line"/>
    </contour>
    <contour>
      <point x="1027" y="394" type="line"/>
      <point x="1055" y="490" type="line"/>
      <point x="1079" y="580"/>
      <point x="1055" y="612"/>
      <point x="995" y="612" type="curve" smooth="yes"/>
      <point x="39" y="612" type="line"/>
      <point x="11" y="516" type="line"/>
      <point x="-13" y="428"/>
      <point x="11" y="394"/>
      <point x="71" y="394" type="curve" smooth="yes"/>
    </contour>
    <contour>
      <point x="89" y="848" type="line"/>
      <point x="1023" y="848" type="line" smooth="yes"/>
      <point x="1107" y="848"/>
      <point x="1147" y="876"/>
      <point x="1165" y="938" type="curve"/>
      <point x="1205" y="1064" type="line"/>
      <point x="271" y="1064" type="line"/>
      <point x="185" y="1064"/>
      <point x="147" y="1036"/>
      <point x="127" y="974" type="curve"/>
    </contour>
  </outline>
  <guideline angle="82.9991" x="580" y="0"/>
</glyph>
<glyph name="dollar" format="2">
  <advance width="1160"/>
  <unicode hex="0024"/>
  <outline>
    <contour>
      <point x="1162" y="1298" type="line"/>
      <point x="1080" y="1388"/>
      <point x="946" y="1472"/>
      <point x="724" y="1472" type="curve" smooth="yes"/>
      <point x="370" y="1472"/>
      <point x="150" y="1236"/>
      <point x="150" y="984" type="curve" smooth="yes"/>
      <point x="150" y="528"/>
      <point x="796" y="682"/>
      <point x="796" y="436" type="curve" smooth="yes"/>
      <point x="796" y="304"/>
      <point x="702" y="234"/>
      <point x="516" y="234" type="curve" smooth="yes"/>
      <point x="320" y="234"/>
      <point x="258" y="356"/>
      <point x="178" y="356" type="curve" smooth="yes"/>
      <point x="148" y="356"/>
      <point x="118" y="340"/>
      <point x="100" y="316" type="curve" smooth="yes"/>
      <point x="-10" y="176" type="line"/>
      <point x="96" y="62"/>
      <point x="294" y="-16"/>
      <point x="484" y="-16" type="curve" smooth="yes"/>
      <point x="858" y="-16"/>
      <point x="1088" y="226"/>
      <point x="1088" y="510" type="curve" smooth="yes"/>
      <point x="1088" y="924"/>
      <point x="438" y="802"/>
      <point x="438" y="1052" type="curve" smooth="yes"/>
      <point x="438" y="1146"/>
      <point x="510" y="1220"/>
      <point x="722" y="1220" type="curve" smooth="yes"/>
      <point x="852" y="1220"/>
      <point x="942" y="1138"/>
      <point x="996" y="1138" type="curve" smooth="yes"/>
      <point x="1028" y="1138"/>
      <point x="1050" y="1152"/>
      <point x="1076" y="1186" type="curve"/>
    </contour>
    <contour>
      <point x="318" y="-210" type="line"/>
      <point x="428" y="-210" type="line" smooth="yes"/>
      <point x="472" y="-210"/>
      <point x="510" y="-174"/>
      <point x="516" y="-138" type="curve"/>
      <point x="908" y="1654" type="line"/>
      <point x="798" y="1654" type="line" smooth="yes"/>
      <point x="754" y="1654"/>
      <point x="716" y="1618"/>
      <point x="710" y="1580" type="curve"/>
    </contour>
  </outline>
  <guideline angle="82.9991" x="580" y="0"/>
</glyph>
<glyph name="ampersand" format="2">
  <advance width="1357"/>
  <unicode hex="0026"/>
  <outline>
    <contour>
      <point x="464" y="860" type="line"/>
      <point x="228" y="790"/>
      <point x="30" y="612"/>
      <point x="30" y="364" type="curve" smooth="yes"/>
      <point x="30" y="134"/>
      <point x="176" y="-16"/>
      <point x="446" y="-16" type="curve" smooth="yes"/>
      <point x="842" y="-16"/>
      <point x="1190" y="332"/>
      <point x="1252" y="828" type="curve"/>
      <point x="1040" y="828" type="line"/>
      <point x="1001" y="828"/>
      <point x="984" y="802"/>
      <point x="977" y="765" type="curve" smooth="yes"/>
      <point x="921" y="465"/>
      <point x="726" y="224"/>
      <point x="510" y="224" type="curve" smooth="yes"/>
      <point x="384" y="224"/>
      <point x="338" y="298"/>
      <point x="338" y="404" type="curve" smooth="yes"/>
      <point x="338" y="540"/>
      <point x="402" y="660"/>
      <point x="642" y="742" type="curve"/>
    </contour>
    <contour>
      <point x="736" y="1474" type="curve"/>
      <point x="458" y="1474"/>
      <point x="288" y="1272"/>
      <point x="288" y="1040" type="curve" smooth="yes"/>
      <point x="288" y="940"/>
      <point x="318" y="814"/>
      <point x="400" y="704" type="curve" smooth="yes"/>
      <point x="856" y="86" type="line"/>
      <point x="904" y="24"/>
      <point x="938" y="0"/>
      <point x="1034" y="0" type="curve" smooth="yes"/>
      <point x="1294" y="0" type="line"/>
      <point x="626" y="886" type="line"/>
      <point x="582" y="952"/>
      <point x="566" y="1008"/>
      <point x="566" y="1058" type="curve"/>
      <point x="566" y="1158"/>
      <point x="618" y="1244"/>
      <point x="708" y="1244" type="curve"/>
      <point x="764" y="1244"/>
      <point x="806" y="1212"/>
      <point x="828" y="1144" type="curve" smooth="yes"/>
      <point x="842" y="1100"/>
      <point x="864" y="1090"/>
      <point x="914" y="1100" type="curve" smooth="yes"/>
      <point x="1094" y="1136" type="line"/>
      <point x="1098" y="1310"/>
      <point x="978" y="1474"/>
    </contour>
  </outline>
  <guideline angle="82.9991" x="667" y="0"/>
</glyph>
<glyph name="quotesingle" format="2">
  <advance width="419"/>
  <unicode hex="0027"/>
  <guideline x="227"/>
  <guideline x="100" y="0" angle="82.9991"/>
  <outline>
    <contour>
      <point x="181" y="1458" type="line"/>
      <point x="145" y="1172" type="line"/>
      <point x="153" y="1014" type="line"/>
      <point x="159" y="942"/>
      <point x="183" y="902"/>
      <point x="241" y="902" type="curve"/>
      <point x="309" y="902"/>
      <point x="339" y="942"/>
      <point x="359" y="1014" type="curve"/>
      <point x="405" y="1172" type="line"/>
      <point x="441" y="1458" type="line"/>
    </contour>
  </outline>
</glyph>
<glyph name="parenleft" format="2">
  <advance width="548"/>
  <unicode hex="0028"/>
  <outline>
    <contour>
      <point x="312" y="426" type="curve"/>
      <point x="312" y="788"/>
      <point x="418" y="1106"/>
      <point x="574" y="1388" type="curve"/>
      <point x="616" y="1454"/>
      <point x="592" y="1484"/>
      <point x="562" y="1506" type="curve"/>
      <point x="438" y="1586" type="line"/>
      <point x="156" y="1190"/>
      <point x="52" y="826"/>
      <point x="52" y="404" type="curve"/>
      <point x="52" y="170"/>
      <point x="98" y="-112"/>
      <point x="204" y="-334" type="curve"/>
      <point x="346" y="-254" type="line"/>
      <point x="382" y="-232"/>
      <point x="412" y="-202"/>
      <point x="388" y="-136" type="curve"/>
      <point x="338" y="22"/>
      <point x="312" y="252"/>
    </contour>
  </outline>
  <guideline angle="82.9991" x="276" y="0"/>
</glyph>
<glyph name="parenright" format="2">
  <advance width="547"/>
  <unicode hex="0029"/>
  <guideline x="276" y="0" angle="82.9991"/>
  <outline>
    <contour>
      <point x="237" y="826" type="curve"/>
      <point x="237" y="464"/>
      <point x="131" y="146"/>
      <point x="-25" y="-136" type="curve"/>
      <point x="-67" y="-202"/>
      <point x="-43" y="-232"/>
      <point x="-13" y="-254" type="curve"/>
      <point x="109" y="-334" type="line"/>
      <point x="393" y="62"/>
      <point x="497" y="426"/>
      <point x="497" y="848" type="curve" smooth="yes"/>
      <point x="497" y="1084"/>
      <point x="451" y="1364"/>
      <point x="345" y="1586" type="curve"/>
      <point x="203" y="1506" type="line"/>
      <point x="167" y="1484"/>
      <point x="137" y="1454"/>
      <point x="161" y="1388" type="curve"/>
      <point x="209" y="1230"/>
      <point x="237" y="1000"/>
    </contour>
  </outline>
</glyph>
<glyph name="asterisk" format="2">
  <advance width="794"/>
  <unicode hex="002A"/>
  <outline>
    <contour>
      <point x="183" y="932" type="line"/>
      <point x="325" y="1018" type="line"/>
      <point x="371" y="1044"/>
      <point x="409" y="1074"/>
      <point x="427" y="1116" type="curve"/>
      <point x="403" y="1170" type="line"/>
      <point x="361" y="1178"/>
      <point x="315" y="1164"/>
      <point x="271" y="1138" type="curve" smooth="yes"/>
      <point x="129" y="1052" type="line"/>
    </contour>
    <contour>
      <point x="489" y="814" type="line"/>
      <point x="511" y="988" type="line" smooth="yes"/>
      <point x="517" y="1038"/>
      <point x="511" y="1084"/>
      <point x="485" y="1116" type="curve"/>
      <point x="427" y="1116" type="line"/>
      <point x="393" y="1086"/>
      <point x="377" y="1038"/>
      <point x="371" y="986" type="curve" smooth="yes"/>
      <point x="349" y="814" type="line"/>
    </contour>
    <contour>
      <point x="767" y="1050" type="line"/>
      <point x="647" y="1138" type="line" smooth="yes"/>
      <point x="609" y="1166"/>
      <point x="563" y="1178"/>
      <point x="523" y="1170" type="curve"/>
      <point x="485" y="1116" type="line"/>
      <point x="491" y="1074"/>
      <point x="525" y="1044"/>
      <point x="563" y="1018" type="curve" smooth="yes"/>
      <point x="685" y="932" type="line"/>
    </contour>
    <contour>
      <point x="437" y="1524" type="line"/>
      <point x="415" y="1350" type="line" smooth="yes"/>
      <point x="409" y="1302"/>
      <point x="415" y="1256"/>
      <point x="439" y="1224" type="curve"/>
      <point x="499" y="1224" type="line"/>
      <point x="533" y="1254"/>
      <point x="549" y="1302"/>
      <point x="555" y="1352" type="curve" smooth="yes"/>
      <point x="577" y="1524" type="line"/>
    </contour>
    <contour>
      <point x="157" y="1288" type="line"/>
      <point x="279" y="1200" type="line"/>
      <point x="317" y="1174"/>
      <point x="361" y="1160"/>
      <point x="403" y="1170" type="curve"/>
      <point x="439" y="1224" type="line"/>
      <point x="435" y="1264"/>
      <point x="401" y="1296"/>
      <point x="363" y="1320" type="curve"/>
      <point x="241" y="1408" type="line"/>
    </contour>
    <contour>
      <point x="743" y="1406" type="line"/>
      <point x="601" y="1320" type="line"/>
      <point x="555" y="1296"/>
      <point x="517" y="1264"/>
      <point x="499" y="1224" type="curve"/>
      <point x="523" y="1170" type="line"/>
      <point x="563" y="1160"/>
      <point x="609" y="1176"/>
      <point x="655" y="1200" type="curve"/>
      <point x="797" y="1286" type="line"/>
    </contour>
    <contour>
      <point x="399" y="1204" type="line"/>
      <point x="379" y="1122" type="line"/>
      <point x="443" y="1072" type="line"/>
      <point x="533" y="1120" type="line"/>
      <point x="545" y="1214" type="line"/>
      <point x="481" y="1248" type="line"/>
    </contour>
  </outline>
  <guideline angle="82.9991" x="368" y="0"/>
</glyph>
<glyph name="plus" format="2">
  <advance width="1160"/>
  <unicode hex="002B"/>
  <outline>
    <contour>
      <point x="79" y="560" type="line"/>
      <point x="1067" y="560" type="line"/>
      <point x="1095" y="784" type="line"/>
      <point x="107" y="784" type="line"/>
    </contour>
    <contour>
      <point x="527" y="1178" type="line"/>
      <point x="401" y="164" type="line"/>
      <point x="645" y="164" type="line"/>
      <point x="769" y="1178" type="line"/>
    </contour>
  </outline>
  <guideline angle="82.9991" x="580" y="0"/>
</glyph>
<glyph name="comma" format="2">
  <advance width="489"/>
  <unicode hex="002C"/>
  <outline>
    <contour>
      <point x="19" y="182" type="curve" smooth="yes"/>
      <point x="19" y="82"/>
      <point x="87" y="6"/>
      <point x="187" y="6" type="curve" smooth="yes"/>
      <point x="221" y="6"/>
      <point x="247" y="14"/>
      <point x="265" y="24" type="curve"/>
      <point x="177" y="54" type="line"/>
      <point x="177" y="-84"/>
      <point x="37" y="-152"/>
      <point x="37" y="-204" type="curve" smooth="yes"/>
      <point x="37" y="-222"/>
      <point x="43" y="-234"/>
      <point x="59" y="-248" type="curve"/>
      <point x="113" y="-298" type="line"/>
      <point x="277" y="-174"/>
      <point x="363" y="8"/>
      <point x="363" y="142" type="curve" smooth="yes"/>
      <point x="363" y="246"/>
      <point x="307" y="338"/>
      <point x="187" y="338" type="curve"/>
      <point x="87" y="338"/>
      <point x="19" y="270"/>
    </contour>
  </outline>
  <guideline angle="82.9991" x="236" y="0"/>
</glyph>
<glyph name="hyphen" format="2">
  <advance width="687"/>
  <unicode hex="002D"/>
  <unicode hex="00AD"/>
  <unicode hex="2010"/>
  <guideline x="343" y="0" angle="82.9991"/>
  <outline>
    <contour>
      <point x="76" y="482" type="line"/>
      <point x="576" y="482" type="line"/>
      <point x="608" y="734" type="line"/>
      <point x="106" y="734" type="line"/>
    </contour>
  </outline>
</glyph>
<glyph name="period" format="2">
  <advance width="483"/>
  <unicode hex="002E"/>
  <guideline x="236" y="0" angle="82.9991"/>
  <outline>
    <contour>
      <point x="13" y="162" type="curve" smooth="yes"/>
      <point x="13" y="62"/>
      <point x="89" y="-14"/>
      <point x="189" y="-14" type="curve" smooth="yes"/>
      <point x="287" y="-14"/>
      <point x="365" y="62"/>
      <point x="365" y="162" type="curve" smooth="yes"/>
      <point x="365" y="260"/>
      <point x="287" y="338"/>
      <point x="189" y="338" type="curve" smooth="yes"/>
      <point x="89" y="338"/>
      <point x="13" y="260"/>
    </contour>
  </outline>
</glyph>
<glyph name="slash" format="2">
  <advance width="880"/>
  <unicode hex="002F"/>
  <outline>
    <contour>
      <point x="933" y="1460" type="line"/>
      <point x="807" y="1460" type="line" smooth="yes"/>
      <point x="737" y="1460"/>
      <point x="677" y="1420"/>
      <point x="643" y="1354" type="curve"/>
      <point x="-39" y="-102" type="line"/>
      <point x="89" y="-102" type="line" smooth="yes"/>
      <point x="149" y="-102"/>
      <point x="221" y="-62"/>
      <point x="257" y="10" type="curve"/>
    </contour>
  </outline>
  <guideline angle="82.9991" x="375" y="0"/>
</glyph>
<glyph name="zero" format="2">
  <advance width="1160"/>
  <unicode hex="0030"/>
  <guideline x="579" y="0" angle="82.9991"/>
  <outline>
    <contour>
      <point x="1104" y="889" type="curve" smooth="yes"/>
      <point x="1104" y="1280"/>
      <point x="932" y="1475"/>
      <point x="683" y="1475" type="curve" smooth="yes"/>
      <point x="348" y="1475"/>
      <point x="82" y="1179"/>
      <point x="82" y="569" type="curve" smooth="yes"/>
      <point x="82" y="179"/>
      <point x="251" y="-16"/>
      <point x="500" y="-16" type="curve" smooth="yes"/>
      <point x="834" y="-16"/>
      <point x="1104" y="278"/>
    </contour>
    <contour>
      <point x="798" y="905" type="curve" smooth="yes"/>
      <point x="798" y="376"/>
      <point x="657" y="234"/>
      <point x="530" y="234" type="curve" smooth="yes"/>
      <point x="456" y="234"/>
      <point x="388" y="302"/>
      <point x="388" y="550" type="curve" smooth="yes"/>
      <point x="388" y="1078"/>
      <point x="523" y="1224"/>
      <point x="652" y="1224" type="curve" smooth="yes"/>
      <point x="727" y="1224"/>
      <point x="798" y="1156"/>
    </contour>
  </outline>
</glyph>
<glyph name="one" format="2">
  <advance width="1160"/>
  <unicode hex="0031"/>
  <guideline x="523" y="0" angle="82.9991"/>
  <outline>
    <contour>
      <point x="660" y="1459" type="line"/>
      <point x="611" y="1298"/>
      <point x="566" y="1115"/>
      <point x="547" y="958" type="curve" smooth="yes"/>
      <point x="429" y="0" type="line"/>
      <point x="728" y="0" type="line"/>
      <point x="907" y="1459" type="line"/>
    </contour>
    <contour>
      <point x="174" y="0" type="line"/>
      <point x="944" y="0" type="line"/>
      <point x="972" y="225" type="line"/>
      <point x="202" y="225" type="line"/>
    </contour>
    <contour>
      <point x="193" y="1078" type="line"/>
      <point x="271" y="947" type="line" smooth="yes"/>
      <point x="287" y="920"/>
      <point x="343" y="891"/>
      <point x="404" y="936" type="curve"/>
      <point x="615" y="1112" type="line"/>
      <point x="660" y="1459" type="line"/>
    </contour>
  </outline>
</glyph>
<glyph name="two" format="2">
  <advance width="1160"/>
  <unicode hex="0032"/>
  <outline>
    <contour>
      <point x="701" y="1475" type="curve" smooth="yes"/>
      <point x="454" y="1475"/>
      <point x="245" y="1333"/>
      <point x="168" y="1041" type="curve"/>
      <point x="323" y="1013" type="line" smooth="yes"/>
      <point x="402" y="999"/>
      <point x="443" y="1021"/>
      <point x="479" y="1094" type="curve"/>
      <point x="509" y="1165"/>
      <point x="573" y="1220"/>
      <point x="652" y="1220" type="curve" smooth="yes"/>
      <point x="739" y="1220"/>
      <point x="778" y="1166"/>
      <point x="778" y="1078" type="curve" smooth="yes"/>
      <point x="778" y="925"/>
      <point x="710" y="815"/>
      <point x="536" y="646" type="curve" smooth="yes"/>
      <point x="102" y="224" type="line"/>
      <point x="59" y="187"/>
      <point x="40" y="139"/>
      <point x="35" y="100" type="curve"/>
      <point x="23" y="0" type="line"/>
      <point x="972" y="0" type="line"/>
      <point x="994" y="181" type="line" smooth="yes"/>
      <point x="1001" y="241"/>
      <point x="966" y="281"/>
      <point x="902" y="281" type="curve" smooth="yes"/>
      <point x="673" y="281" type="line" smooth="yes"/>
      <point x="562" y="281"/>
      <point x="395" y="231"/>
      <point x="285" y="173" type="curve"/>
      <point x="268" y="54" type="line"/>
      <point x="760" y="538" type="line"/>
      <point x="939" y="712"/>
      <point x="1087" y="862"/>
      <point x="1087" y="1105" type="curve" smooth="yes"/>
      <point x="1087" y="1318"/>
      <point x="946" y="1475"/>
    </contour>
  </outline>
  <guideline angle="82.9991" x="528" y="0"/>
</glyph>
<glyph name="three" format="2">
  <advance width="1160"/>
  <unicode hex="0033"/>
  <guideline x="532" y="0" angle="82.9991"/>
  <outline>
    <contour>
      <point x="708" y="1475" type="curve" smooth="yes"/>
      <point x="461" y="1475"/>
      <point x="252" y="1333"/>
      <point x="175" y="1041" type="curve"/>
      <point x="329" y="1013" type="line" smooth="yes"/>
      <point x="409" y="999"/>
      <point x="450" y="1021"/>
      <point x="486" y="1094" type="curve"/>
      <point x="516" y="1165"/>
      <point x="580" y="1220"/>
      <point x="659" y="1220" type="curve" smooth="yes"/>
      <point x="746" y="1220"/>
      <point x="786" y="1166"/>
      <point x="786" y="1078" type="curve" smooth="yes"/>
      <point x="786" y="931"/>
      <point x="729" y="854"/>
      <point x="504" y="854" type="curve"/>
      <point x="478" y="638" type="line"/>
      <point x="689" y="638"/>
      <point x="729" y="579"/>
      <point x="729" y="492" type="curve" smooth="yes"/>
      <point x="729" y="353"/>
      <point x="652" y="238"/>
      <point x="520" y="238" type="curve" smooth="yes"/>
      <point x="450" y="238"/>
      <point x="396" y="285"/>
      <point x="352" y="395" type="curve" smooth="yes"/>
      <point x="333" y="444"/>
      <point x="270" y="459"/>
      <point x="197" y="430" type="curve" smooth="yes"/>
      <point x="57" y="374" type="line"/>
      <point x="112" y="100"/>
      <point x="242" y="-16"/>
      <point x="493" y="-16" type="curve" smooth="yes"/>
      <point x="764" y="-16"/>
      <point x="1027" y="155"/>
      <point x="1027" y="493" type="curve" smooth="yes"/>
      <point x="1027" y="695"/>
      <point x="887" y="805"/>
      <point x="601" y="819" type="curve"/>
      <point x="590" y="729" type="line"/>
      <point x="918" y="755"/>
      <point x="1083" y="831"/>
      <point x="1083" y="1137" type="curve" smooth="yes"/>
      <point x="1083" y="1317"/>
      <point x="955" y="1475"/>
    </contour>
  </outline>
</glyph>
<glyph name="four" format="2">
  <advance width="1160"/>
  <unicode hex="0034"/>
  <outline>
    <contour>
      <point x="1045" y="1459" type="line"/>
      <point x="760" y="1459" type="line"/>
      <point x="31" y="553" type="line"/>
      <point x="43" y="398" type="line" smooth="yes"/>
      <point x="46" y="361"/>
      <point x="77" y="334"/>
      <point x="113" y="334" type="curve" smooth="yes"/>
      <point x="981" y="334" type="line" smooth="yes"/>
      <point x="1017" y="334"/>
      <point x="1042" y="361"/>
      <point x="1046" y="392" type="curve" smooth="yes"/>
      <point x="1067" y="568" type="line"/>
      <point x="102" y="568" type="line"/>
      <point x="233" y="427" type="line"/>
      <point x="947" y="1348" type="line"/>
      <point x="839" y="1368" type="line"/>
      <point x="773" y="1221"/>
      <point x="736" y="1061"/>
      <point x="722" y="945" type="curve" smooth="yes"/>
      <point x="606" y="0" type="line"/>
      <point x="866" y="0" type="line"/>
    </contour>
  </outline>
  <guideline angle="82.9991" x="548" y="0"/>
</glyph>
<glyph name="five" format="2">
  <advance width="1160"/>
  <unicode hex="0035"/>
  <outline>
    <contour>
      <point x="1086" y="1459" type="line"/>
      <point x="393" y="1459" type="line"/>
      <point x="188" y="728" type="line"/>
      <point x="367" y="676" type="line"/>
      <point x="424" y="700"/>
      <point x="485" y="713"/>
      <point x="544" y="713" type="curve" smooth="yes"/>
      <point x="658" y="713"/>
      <point x="723" y="648"/>
      <point x="723" y="533" type="curve" smooth="yes"/>
      <point x="723" y="388"/>
      <point x="664" y="236"/>
      <point x="487" y="236" type="curve" smooth="yes"/>
      <point x="337" y="236"/>
      <point x="308" y="340"/>
      <point x="232" y="340" type="curve" smooth="yes"/>
      <point x="203" y="340"/>
      <point x="175" y="327"/>
      <point x="152" y="300" type="curve" smooth="yes"/>
      <point x="44" y="171" type="line"/>
      <point x="129" y="71"/>
      <point x="261" y="-16"/>
      <point x="438" y="-16" type="curve" smooth="yes"/>
      <point x="770" y="-16"/>
      <point x="1025" y="229"/>
      <point x="1025" y="572" type="curve" smooth="yes"/>
      <point x="1025" y="786"/>
      <point x="896" y="960"/>
      <point x="640" y="960" type="curve" smooth="yes"/>
      <point x="562" y="960"/>
      <point x="473" y="946"/>
      <point x="372" y="913" type="curve"/>
      <point x="441" y="728" type="line"/>
      <point x="638" y="1432" type="line"/>
      <point x="390" y="1185" type="line"/>
      <point x="877" y="1185" type="line" smooth="yes"/>
      <point x="1004" y="1185"/>
      <point x="1060" y="1245"/>
      <point x="1070" y="1330" type="curve" smooth="yes"/>
    </contour>
  </outline>
  <guideline angle="82.9991" x="501" y="0"/>
</glyph>
<glyph name="six" format="2">
  <advance width="1067"/>
  <unicode hex="0036"/>
  <outline>
    <contour>
      <point x="367" y="420" type="curve"/>
      <point x="367" y="593"/>
      <point x="467" y="699"/>
      <point x="586" y="699" type="curve" smooth="yes"/>
      <point x="696" y="699"/>
      <point x="764" y="624"/>
      <point x="764" y="502" type="curve" smooth="yes"/>
      <point x="764" y="345"/>
      <point x="656" y="231"/>
      <point x="534" y="231" type="curve" smooth="yes"/>
      <point x="419" y="231"/>
      <point x="367" y="307"/>
    </contour>
    <contour>
      <point x="367" y="517" type="line"/>
      <point x="388" y="686"/>
      <point x="492" y="801"/>
      <point x="620" y="943" type="curve" smooth="yes"/>
      <point x="1081" y="1459" type="line"/>
      <point x="815" y="1459" type="line" smooth="yes"/>
      <point x="744" y="1459"/>
      <point x="680" y="1426"/>
      <point x="647" y="1387" type="curve"/>
      <point x="294" y="945" type="line" smooth="yes"/>
      <point x="156" y="773"/>
      <point x="83" y="617"/>
      <point x="83" y="432" type="curve" smooth="yes"/>
      <point x="83" y="171"/>
      <point x="236" y="-16"/>
      <point x="509" y="-16" type="curve" smooth="yes"/>
      <point x="830" y="-16"/>
      <point x="1067" y="242"/>
      <point x="1067" y="550" type="curve" smooth="yes"/>
      <point x="1067" y="803"/>
      <point x="895" y="925"/>
      <point x="720" y="925" type="curve" smooth="yes"/>
      <point x="474" y="925"/>
      <point x="329" y="726"/>
      <point x="304" y="517" type="curve"/>
    </contour>
  </outline>
</glyph>
<glyph name="seven" format="2">
  <advance width="1160"/>
  <unicode hex="0037"/>
  <guideline x="496" y="0" angle="82.9991"/>
  <outline>
    <contour>
      <point x="216" y="1459" type="line"/>
      <point x="191" y="1253" type="line" smooth="yes"/>
      <point x="187" y="1218"/>
      <point x="216" y="1185"/>
      <point x="250" y="1185" type="curve" smooth="yes"/>
      <point x="1081" y="1185" type="line"/>
      <point x="860" y="1214" type="line"/>
      <point x="804" y="1166"/>
      <point x="761" y="1112"/>
      <point x="716" y="1042" type="curve"/>
      <point x="118" y="0" type="line"/>
      <point x="336" y="0" type="line" smooth="yes"/>
      <point x="419" y="0"/>
      <point x="470" y="46"/>
      <point x="504" y="102" type="curve"/>
      <point x="1092" y="1173" type="line"/>
      <point x="1111" y="1206"/>
      <point x="1138" y="1251"/>
      <point x="1148" y="1328" type="curve"/>
      <point x="1164" y="1459" type="line"/>
    </contour>
  </outline>
</glyph>
<glyph name="eight" format="2">
  <advance width="1160"/>
  <unicode hex="0038"/>
  <guideline x="536" y="0" angle="82.9991"/>
  <outline>
    <contour>
      <point x="502" y="-16" type="curve"/>
      <point x="814" y="-16"/>
      <point x="1041" y="176"/>
      <point x="1041" y="471" type="curve" smooth="yes"/>
      <point x="1041" y="659"/>
      <point x="926" y="793"/>
      <point x="617" y="802" type="curve"/>
      <point x="605" y="708" type="line"/>
      <point x="920" y="719"/>
      <point x="1077" y="873"/>
      <point x="1077" y="1119" type="curve" smooth="yes"/>
      <point x="1077" y="1320"/>
      <point x="919" y="1475"/>
      <point x="685" y="1475" type="curve"/>
      <point x="412" y="1475"/>
      <point x="194" y="1284"/>
      <point x="194" y="1027" type="curve" smooth="yes"/>
      <point x="194" y="836"/>
      <point x="320" y="717"/>
      <point x="576" y="708" type="curve"/>
      <point x="587" y="802" type="line"/>
      <point x="200" y="791"/>
      <point x="69" y="611"/>
      <point x="69" y="366" type="curve" smooth="yes"/>
      <point x="69" y="136"/>
      <point x="237" y="-16"/>
    </contour>
    <contour>
      <point x="610" y="872" type="curve"/>
      <point x="511" y="872"/>
      <point x="484" y="947"/>
      <point x="484" y="1024" type="curve" smooth="yes"/>
      <point x="484" y="1141"/>
      <point x="530" y="1247"/>
      <point x="657" y="1247" type="curve"/>
      <point x="751" y="1247"/>
      <point x="785" y="1176"/>
      <point x="785" y="1101" type="curve" smooth="yes"/>
      <point x="785" y="970"/>
      <point x="732" y="872"/>
    </contour>
    <contour>
      <point x="530" y="219" type="curve"/>
      <point x="422" y="219"/>
      <point x="379" y="294"/>
      <point x="379" y="387" type="curve" smooth="yes"/>
      <point x="379" y="549"/>
      <point x="442" y="635"/>
      <point x="581" y="635" type="curve"/>
      <point x="697" y="635"/>
      <point x="734" y="568"/>
      <point x="734" y="474" type="curve" smooth="yes"/>
      <point x="734" y="330"/>
      <point x="674" y="219"/>
    </contour>
  </outline>
</glyph>
<glyph name="nine" format="2">
  <advance width="1160"/>
  <unicode hex="0039"/>
  <outline>
    <contour>
      <point x="808" y="1049" type="curve"/>
      <point x="808" y="898"/>
      <point x="729" y="796"/>
      <point x="598" y="796" type="curve" smooth="yes"/>
      <point x="495" y="796"/>
      <point x="444" y="857"/>
      <point x="444" y="968" type="curve" smooth="yes"/>
      <point x="444" y="1119"/>
      <point x="524" y="1228"/>
      <point x="646" y="1228" type="curve" smooth="yes"/>
      <point x="744" y="1228"/>
      <point x="808" y="1165"/>
    </contour>
    <contour>
      <point x="816" y="963" type="line"/>
      <point x="796" y="799"/>
      <point x="724" y="690"/>
      <point x="602" y="553" type="curve" smooth="yes"/>
      <point x="106" y="0" type="line"/>
      <point x="382" y="0" type="line" smooth="yes"/>
      <point x="451" y="0"/>
      <point x="513" y="31"/>
      <point x="544" y="69" type="curve"/>
      <point x="884" y="516" type="line"/>
      <point x="1011" y="679"/>
      <point x="1092" y="838"/>
      <point x="1092" y="1054" type="curve" smooth="yes"/>
      <point x="1092" y="1298"/>
      <point x="945" y="1475"/>
      <point x="680" y="1475" type="curve" smooth="yes"/>
      <point x="369" y="1475"/>
      <point x="141" y="1225"/>
      <point x="141" y="930" type="curve" smooth="yes"/>
      <point x="141" y="687"/>
      <point x="306" y="569"/>
      <point x="462" y="569" type="curve" smooth="yes"/>
      <point x="670" y="569"/>
      <point x="846" y="710"/>
      <point x="877" y="963" type="curve"/>
    </contour>
  </outline>
  <guideline angle="82.9991" x="514" y="0"/>
</glyph>
<glyph name="equal" format="2">
  <advance width="1160"/>
  <unicode hex="003D"/>
  <guideline x="580" y="0" angle="82.9991"/>
  <outline>
    <contour>
      <point x="96" y="376" type="line"/>
      <point x="1002" y="376" type="line"/>
      <point x="1030" y="600" type="line"/>
      <point x="124" y="600" type="line"/>
    </contour>
    <contour>
      <point x="142" y="742" type="line"/>
      <point x="1048" y="742" type="line"/>
      <point x="1074" y="966" type="line"/>
      <point x="170" y="966" type="line"/>
    </contour>
  </outline>
</glyph>
<glyph name="greater" format="2">
  <advance width="1160"/>
  <unicode hex="003E"/>
  <guideline x="533" y="0" angle="82.9991"/>
  <outline>
    <contour>
      <point x="1015" y="612" type="line"/>
      <point x="1026" y="706" type="line"/>
      <point x="824" y="706"/>
      <point x="662" y="692"/>
      <point x="541" y="634" type="curve" smooth="yes"/>
      <point x="240" y="489" type="line" smooth="yes"/>
      <point x="201" y="471"/>
      <point x="184" y="443"/>
      <point x="180" y="411" type="curve" smooth="yes"/>
      <point x="152" y="186" type="line"/>
    </contour>
    <contour>
      <point x="1030" y="738" type="line"/>
      <point x="272" y="1164" type="line"/>
      <point x="245" y="939" type="line" smooth="yes"/>
      <point x="241" y="907"/>
      <point x="251" y="879"/>
      <point x="285" y="861" type="curve" smooth="yes"/>
      <point x="551" y="716" type="line"/>
      <point x="658" y="658"/>
      <point x="817" y="644"/>
      <point x="1019" y="644" type="curve"/>
    </contour>
  </outline>
</glyph>
<glyph name="question" format="2">
  <advance width="883"/>
  <unicode hex="003F"/>
  <outline>
    <contour>
      <point x="142" y="1324" type="curve"/>
      <point x="206" y="1198" type="line" smooth="yes"/>
      <point x="220" y="1171"/>
      <point x="232" y="1160"/>
      <point x="262" y="1160" type="curve" smooth="yes"/>
      <point x="310" y="1160"/>
      <point x="356" y="1230"/>
      <point x="482" y="1230" type="curve" smooth="yes"/>
      <point x="570" y="1230"/>
      <point x="602" y="1186"/>
      <point x="602" y="1118" type="curve"/>
      <point x="602" y="940"/>
      <point x="284" y="890"/>
      <point x="284" y="678" type="curve" smooth="yes"/>
      <point x="284" y="518" type="line"/>
      <point x="490" y="518" type="line"/>
      <point x="534" y="658" type="line" smooth="yes"/>
      <point x="593" y="845"/>
      <point x="878" y="836"/>
      <point x="878" y="1176" type="curve" smooth="yes"/>
      <point x="878" y="1336"/>
      <point x="766" y="1474"/>
      <point x="538" y="1474" type="curve" smooth="yes"/>
      <point x="372" y="1474"/>
      <point x="246" y="1408"/>
    </contour>
    <contour>
      <point x="188" y="162" type="curve" smooth="yes"/>
      <point x="188" y="62"/>
      <point x="264" y="-14"/>
      <point x="364" y="-14" type="curve" smooth="yes"/>
      <point x="462" y="-14"/>
      <point x="540" y="62"/>
      <point x="540" y="162" type="curve" smooth="yes"/>
      <point x="540" y="260"/>
      <point x="462" y="338"/>
      <point x="364" y="338" type="curve" smooth="yes"/>
      <point x="264" y="338"/>
      <point x="188" y="260"/>
    </contour>
  </outline>
  <guideline angle="82.9991" x="410" y="0"/>
</glyph>
<glyph name="at" format="2">
  <advance width="1550"/>
  <unicode hex="0040"/>
  <outline>
    <contour>
      <point x="1036" y="182" type="curve" smooth="yes"/>
      <point x="1298" y="182"/>
      <point x="1502" y="454"/>
      <point x="1502" y="786" type="curve" smooth="yes"/>
      <point x="1502" y="1156"/>
      <point x="1236" y="1400"/>
      <point x="906" y="1400" type="curve" smooth="yes"/>
      <point x="442" y="1400"/>
      <point x="66" y="970"/>
      <point x="66" y="476" type="curve" smooth="yes"/>
      <point x="66" y="42"/>
      <point x="334" y="-242"/>
      <point x="754" y="-242" type="curve" smooth="yes"/>
      <point x="982" y="-242"/>
      <point x="1160" y="-176"/>
      <point x="1294" y="-88" type="curve"/>
      <point x="1272" y="-4" type="line"/>
      <point x="1260" y="36"/>
      <point x="1228" y="70"/>
      <point x="1154" y="30" type="curve" smooth="yes"/>
      <point x="1100" y="0"/>
      <point x="970" y="-48"/>
      <point x="776" y="-48" type="curve" smooth="yes"/>
      <point x="476" y="-48"/>
      <point x="282" y="138"/>
      <point x="282" y="486" type="curve" smooth="yes"/>
      <point x="282" y="892"/>
      <point x="534" y="1208"/>
      <point x="882" y="1208" type="curve" smooth="yes"/>
      <point x="1142" y="1208"/>
      <point x="1292" y="1056"/>
      <point x="1292" y="786" type="curve" smooth="yes"/>
      <point x="1292" y="558"/>
      <point x="1206" y="368"/>
      <point x="1102" y="368" type="curve" smooth="yes"/>
      <point x="1042" y="368"/>
      <point x="1018" y="406"/>
      <point x="1064" y="548" type="curve"/>
      <point x="1202" y="928" type="line"/>
      <point x="1134" y="960"/>
      <point x="1074" y="976"/>
      <point x="962" y="976" type="curve" smooth="yes"/>
      <point x="586" y="976"/>
      <point x="396" y="678"/>
      <point x="396" y="432" type="curve" smooth="yes"/>
      <point x="396" y="290"/>
      <point x="464" y="182"/>
      <point x="606" y="182" type="curve" smooth="yes"/>
      <point x="746" y="182"/>
      <point x="866" y="260"/>
      <point x="996" y="482" type="curve"/>
      <point x="860" y="418" type="line"/>
      <point x="840" y="242"/>
      <point x="934" y="182"/>
    </contour>
    <contour>
      <point x="958" y="862" type="line"/>
      <point x="832" y="516" type="line"/>
      <point x="796" y="408"/>
      <point x="740" y="376"/>
      <point x="690" y="376" type="curve" smooth="yes"/>
      <point x="650" y="376"/>
      <point x="628" y="406"/>
      <point x="628" y="464" type="curve" smooth="yes"/>
      <point x="628" y="636"/>
      <point x="762" y="790"/>
      <point x="890" y="790" type="curve" smooth="yes"/>
      <point x="938" y="790"/>
      <point x="988" y="778"/>
      <point x="1024" y="754" type="curve"/>
    </contour>
  </outline>
  <guideline angle="0" x="0" y="731"/>
  <guideline angle="90" x="743" y="0"/>
  <guideline angle="82.9991" x="100" y="0"/>
</glyph>
<glyph name="B" format="2">
  <advance width="1250"/>
  <unicode hex="0042"/>
  <guideline x="604" y="0" angle="82.9991"/>
  <anchor x="536" y="-70" name="bottom"/>
  <anchor x="671" y="1525" name="Top"/>
  <anchor x="275" y="437" name="Bar"/>
  <anchor x="671" y="1525" name="top"/>
  <outline>
    <contour>
      <point x="601" y="0" type="line" smooth="yes"/>
      <point x="953" y="0"/>
      <point x="1165" y="216"/>
      <point x="1165" y="484" type="curve" smooth="yes"/>
      <point x="1165" y="682"/>
      <point x="1009" y="784"/>
      <point x="673" y="784" type="curve"/>
      <point x="579" y="700" type="line"/>
      <point x="1045" y="700"/>
      <point x="1213" y="884"/>
      <point x="1213" y="1120" type="curve" smooth="yes"/>
      <point x="1213" y="1324"/>
      <point x="1077" y="1460"/>
      <point x="737" y="1460" type="curve" smooth="yes"/>
      <point x="237" y="1460" type="line"/>
      <point x="57" y="0" type="line"/>
      <point x="383" y="0" type="line"/>
      <point x="531" y="1206" type="line"/>
      <point x="707" y="1206" type="line" smooth="yes"/>
      <point x="825" y="1206"/>
      <point x="881" y="1168"/>
      <point x="881" y="1064" type="curve" smooth="yes"/>
      <point x="881" y="890"/>
      <point x="787" y="844"/>
      <point x="641" y="844" type="curve"/>
      <point x="459" y="844" type="line"/>
      <point x="431" y="618" type="line"/>
      <point x="669" y="618" type="line" smooth="yes"/>
      <point x="801" y="618"/>
      <point x="843" y="564"/>
      <point x="843" y="480" type="curve" smooth="yes"/>
      <point x="843" y="354"/>
      <point x="787" y="256"/>
      <point x="627" y="256" type="curve" smooth="yes"/>
      <point x="375" y="256" type="line"/>
      <point x="187" y="0" type="line"/>
    </contour>
  </outline>
</glyph>
<glyph name="C" format="2">
  <advance width="1234"/>
  <unicode hex="0043"/>
  <anchor x="867" y="1525" name="Top"/>
  <anchor x="670" y="728" name="Slash"/>
  <anchor x="867" y="1525" name="top"/>
  <anchor x="636" y="-70" name="bottom"/>
  <outline>
    <contour>
      <point x="693" y="264" type="curve" smooth="yes"/>
      <point x="525" y="264"/>
      <point x="399" y="406"/>
      <point x="399" y="648" type="curve" smooth="yes"/>
      <point x="399" y="982"/>
      <point x="587" y="1194"/>
      <point x="833" y="1194" type="curve" smooth="yes"/>
      <point x="1023" y="1194"/>
      <point x="1041" y="1090"/>
      <point x="1109" y="1090" type="curve" smooth="yes"/>
      <point x="1143" y="1090"/>
      <point x="1163" y="1108"/>
      <point x="1179" y="1128" type="curve" smooth="yes"/>
      <point x="1293" y="1266" type="line"/>
      <point x="1207" y="1388"/>
      <point x="1067" y="1476"/>
      <point x="849" y="1476" type="curve" smooth="yes"/>
      <point x="415" y="1476"/>
      <point x="65" y="1122"/>
      <point x="65" y="620" type="curve" smooth="yes"/>
      <point x="65" y="260"/>
      <point x="269" y="-16"/>
      <point x="637" y="-16" type="curve" smooth="yes"/>
      <point x="857" y="-16"/>
      <point x="1033" y="64"/>
      <point x="1159" y="216" type="curve"/>
      <point x="1045" y="359" type="line"/>
      <point x="1038" y="368"/>
      <point x="1024" y="378"/>
      <point x="1003" y="378" type="curve" smooth="yes"/>
      <point x="938" y="378"/>
      <point x="915" y="264"/>
    </contour>
  </outline>
  <guideline angle="82.9991" x="591" y="0"/>
</glyph>
<glyph name="D" format="2">
  <advance width="1418"/>
  <unicode hex="0044"/>
  <anchor x="736" y="1525" name="Top"/>
  <anchor x="544" y="-103" name="bottom"/>
  <anchor x="736" y="1525" name="top"/>
  <outline>
    <contour>
      <point x="1379" y="822" type="curve" smooth="yes"/>
      <point x="1379" y="1184"/>
      <point x="1143" y="1460"/>
      <point x="761" y="1460" type="curve" smooth="yes"/>
      <point x="237" y="1460" type="line"/>
      <point x="57" y="0" type="line"/>
      <point x="581" y="0" type="line" smooth="yes"/>
      <point x="1043" y="0"/>
      <point x="1379" y="350"/>
    </contour>
    <contour>
      <point x="1045" y="814" type="curve" smooth="yes"/>
      <point x="1045" y="476"/>
      <point x="879" y="262"/>
      <point x="613" y="262" type="curve" smooth="yes"/>
      <point x="417" y="262" type="line"/>
      <point x="533" y="1198" type="line"/>
      <point x="729" y="1198" type="line" smooth="yes"/>
      <point x="933" y="1198"/>
      <point x="1045" y="1046"/>
    </contour>
  </outline>
  <guideline angle="82.9991" x="682" y="0"/>
</glyph>
<glyph name="F" format="2">
  <advance width="1064"/>
  <unicode hex="0046"/>
  <guideline x="512" y="0" angle="82.9991"/>
  <anchor x="690" y="1525" name="Top"/>
  <anchor x="690" y="1525" name="top"/>
  <anchor x="366" y="-70" name="bottom"/>
  <outline>
    <contour>
      <point x="565" y="1460" type="line"/>
      <point x="237" y="1460" type="line"/>
      <point x="57" y="0" type="line"/>
      <point x="385" y="0" type="line"/>
    </contour>
    <contour>
      <point x="457" y="828" type="line"/>
      <point x="425" y="566" type="line"/>
      <point x="903" y="566" type="line"/>
      <point x="937" y="828" type="line"/>
    </contour>
    <contour>
      <point x="533" y="1460" type="line"/>
      <point x="501" y="1198" type="line"/>
      <point x="1073" y="1198" type="line"/>
      <point x="1105" y="1460" type="line"/>
    </contour>
  </outline>
</glyph>
<glyph name="G" format="2">
  <advance width="1350"/>
  <unicode hex="0047"/>
  <guideline x="653" y="0" angle="82.9991"/>
  <anchor x="880" y="1525" name="Top"/>
  <anchor x="880" y="1525" name="top"/>
  <anchor x="700" y="-70" name="bottom"/>
  <outline>
    <contour>
      <point x="1027" y="338" type="line"/>
      <point x="933" y="284"/>
      <point x="853" y="246"/>
      <point x="725" y="246" type="curve" smooth="yes"/>
      <point x="531" y="246"/>
      <point x="399" y="396"/>
      <point x="399" y="648" type="curve" smooth="yes"/>
      <point x="399" y="972"/>
      <point x="577" y="1194"/>
      <point x="829" y="1194" type="curve" smooth="yes"/>
      <point x="947" y="1194"/>
      <point x="1011" y="1170"/>
      <point x="1105" y="1104" type="curve" smooth="yes"/>
      <point x="1155" y="1070"/>
      <point x="1207" y="1082"/>
      <point x="1241" y="1130" type="curve"/>
      <point x="1347" y="1268" type="line"/>
      <point x="1251" y="1374"/>
      <point x="1101" y="1476"/>
      <point x="853" y="1476" type="curve" smooth="yes"/>
      <point x="411" y="1476"/>
      <point x="65" y="1120"/>
      <point x="65" y="636" type="curve" smooth="yes"/>
      <point x="65" y="266"/>
      <point x="309" y="-16"/>
      <point x="669" y="-16" type="curve" smooth="yes"/>
      <point x="887" y="-16"/>
      <point x="1053" y="30"/>
      <point x="1203" y="140" type="curve"/>
      <point x="1279" y="756" type="line"/>
      <point x="793" y="756" type="line"/>
      <point x="771" y="568" type="line" smooth="yes"/>
      <point x="767" y="534"/>
      <point x="789" y="510"/>
      <point x="829" y="510" type="curve" smooth="yes"/>
      <point x="953" y="510" type="line"/>
      <point x="905" y="108" type="line"/>
    </contour>
  </outline>
</glyph>
<glyph name="H" format="2">
  <advance width="1448"/>
  <unicode hex="0048"/>
  <anchor x="830" y="1525" name="Top"/>
  <anchor x="-44" y="1120" name="onRight"/>
  <anchor x="637" y="-70" name="bottom"/>
  <anchor x="830" y="1525" name="top"/>
  <outline>
    <contour>
      <point x="565" y="1460" type="line"/>
      <point x="237" y="1460" type="line"/>
      <point x="57" y="0" type="line"/>
      <point x="385" y="0" type="line"/>
    </contour>
    <contour>
      <point x="459" y="848" type="line"/>
      <point x="431" y="616" type="line"/>
      <point x="1127" y="616" type="line"/>
      <point x="1157" y="848" type="line"/>
    </contour>
    <contour>
      <point x="1419" y="1460" type="line"/>
      <point x="1091" y="1460" type="line"/>
      <point x="911" y="0" type="line"/>
      <point x="1239" y="0" type="line"/>
    </contour>
  </outline>
  <guideline angle="82.9991" x="696" y="0"/>
</glyph>
<glyph name="J" format="2">
  <advance width="833"/>
  <unicode hex="004A"/>
  <anchor x="659" y="1525" name="Top"/>
  <anchor x="562" y="728" name="Bar"/>
  <anchor x="659" y="1525" name="top"/>
  <anchor x="237" y="-70" name="bottom"/>
  <outline>
    <contour>
      <point x="815" y="1460" type="line"/>
      <point x="489" y="1460" type="line"/>
      <point x="375" y="520" type="line" smooth="yes"/>
      <point x="353" y="334"/>
      <point x="281" y="256"/>
      <point x="173" y="256" type="curve" smooth="yes"/>
      <point x="125" y="256"/>
      <point x="85" y="266"/>
      <point x="53" y="266" type="curve" smooth="yes"/>
      <point x="11" y="266"/>
      <point x="-7" y="240"/>
      <point x="-11" y="206" type="curve" smooth="yes"/>
      <point x="-35" y="10" type="line"/>
      <point x="37" y="-8"/>
      <point x="103" y="-16"/>
      <point x="173" y="-16" type="curve" smooth="yes"/>
      <point x="487" y="-16"/>
      <point x="661" y="204"/>
      <point x="701" y="528" type="curve" smooth="yes"/>
    </contour>
  </outline>
  <guideline angle="82.9991" x="394" y="0"/>
</glyph>
<glyph name="K" format="2">
  <advance width="1326"/>
  <unicode hex="004B"/>
  <anchor x="788" y="1525" name="Top"/>
  <anchor x="566" y="-70" name="bottom"/>
  <anchor x="788" y="1525" name="top"/>
  <outline>
    <contour>
      <point x="561" y="1460" type="line"/>
      <point x="235" y="1460" type="line"/>
      <point x="57" y="0" type="line"/>
      <point x="381" y="0" type="line"/>
    </contour>
    <contour>
      <point x="385" y="620" type="line"/>
      <point x="533" y="620" type="line" smooth="yes"/>
      <point x="589" y="620"/>
      <point x="621" y="606"/>
      <point x="637" y="568" type="curve"/>
      <point x="863" y="62" type="line"/>
      <point x="883" y="24"/>
      <point x="907" y="0"/>
      <point x="981" y="0" type="curve" smooth="yes"/>
      <point x="1271" y="0" type="line"/>
      <point x="963" y="676" type="line" smooth="yes"/>
      <point x="913" y="786"/>
      <point x="825" y="804"/>
      <point x="681" y="804" type="curve"/>
      <point x="699" y="748" type="line"/>
      <point x="805" y="748"/>
      <point x="885" y="772"/>
      <point x="959" y="868" type="curve" smooth="yes"/>
      <point x="1417" y="1460" type="line"/>
      <point x="1135" y="1460" type="line" smooth="yes"/>
      <point x="1071" y="1460"/>
      <point x="1025" y="1445"/>
      <point x="987" y="1392" type="curve" smooth="yes"/>
      <point x="641" y="916" type="line" smooth="yes"/>
      <point x="617" y="884"/>
      <point x="581" y="868"/>
      <point x="535" y="868" type="curve" smooth="yes"/>
      <point x="419" y="868" type="line"/>
    </contour>
  </outline>
  <guideline angle="82.9991" x="660" y="0"/>
</glyph>
<glyph name="L" format="2">
  <advance width="979"/>
  <unicode hex="004C"/>
  <anchor x="422" y="1525" name="Top"/>
  <anchor x="431" y="-70" name="bottom"/>
  <anchor x="306" y="728" name="Bar"/>
  <anchor x="422" y="1525" name="top"/>
  <outline>
    <contour>
      <point x="563" y="1460" type="line"/>
      <point x="237" y="1460" type="line"/>
      <point x="57" y="0" type="line"/>
      <point x="383" y="0" type="line"/>
    </contour>
    <contour>
      <point x="389" y="272" type="line"/>
      <point x="355" y="0" type="line"/>
      <point x="873" y="0" type="line"/>
      <point x="905" y="272" type="line"/>
    </contour>
  </outline>
  <guideline angle="82.9991" x="478" y="0"/>
</glyph>
<glyph name="N" format="2">
  <advance width="1448"/>
  <unicode hex="004E"/>
  <guideline x="696" y="0" angle="82.9991"/>
  <anchor x="832" y="1525" name="Top"/>
  <anchor x="832" y="1525" name="top"/>
  <anchor x="643" y="-70" name="bottom"/>
  <outline>
    <contour>
      <point x="1057" y="462" type="line"/>
      <point x="509" y="1408" type="line" smooth="yes"/>
      <point x="483" y="1454"/>
      <point x="465" y="1460"/>
      <point x="409" y="1460" type="curve"/>
      <point x="237" y="1460" type="line"/>
      <point x="57" y="0" type="line"/>
      <point x="345" y="0" type="line"/>
      <point x="445" y="826" type="line"/>
      <point x="455" y="914"/>
      <point x="461" y="1040"/>
      <point x="463" y="1142" type="curve"/>
      <point x="419" y="998" type="line"/>
      <point x="963" y="56" type="line"/>
      <point x="991" y="16"/>
      <point x="1019" y="0"/>
      <point x="1069" y="0" type="curve" smooth="yes"/>
      <point x="1239" y="0" type="line"/>
      <point x="1419" y="1460" type="line"/>
      <point x="1131" y="1460" type="line"/>
      <point x="1033" y="662" type="line" smooth="yes"/>
      <point x="1021" y="564"/>
      <point x="1011" y="420"/>
      <point x="1013" y="298" type="curve"/>
    </contour>
  </outline>
</glyph>
<glyph name="P" format="2">
  <advance width="1197"/>
  <unicode hex="0050"/>
  <guideline x="590" y="0" angle="82.9991"/>
  <anchor x="689" y="1525" name="Top"/>
  <anchor x="335" y="969" name="Bar"/>
  <anchor x="763" y="657" name="tick"/>
  <anchor x="689" y="1525" name="top"/>
  <anchor x="213" y="-70" name="bottom"/>
  <outline>
    <contour>
      <point x="305" y="486" type="line"/>
      <point x="597" y="486" type="line" smooth="yes"/>
      <point x="1017" y="486"/>
      <point x="1207" y="724"/>
      <point x="1207" y="1044" type="curve" smooth="yes"/>
      <point x="1207" y="1278"/>
      <point x="1063" y="1460"/>
      <point x="717" y="1460" type="curve" smooth="yes"/>
      <point x="235" y="1460" type="line"/>
      <point x="57" y="0" type="line"/>
      <point x="381" y="0" type="line"/>
      <point x="561" y="1460" type="line"/>
      <point x="321" y="1206" type="line"/>
      <point x="685" y="1206" type="line" smooth="yes"/>
      <point x="819" y="1206"/>
      <point x="879" y="1126"/>
      <point x="879" y="1016" type="curve" smooth="yes"/>
      <point x="879" y="854"/>
      <point x="815" y="742"/>
      <point x="629" y="742" type="curve" smooth="yes"/>
      <point x="363" y="742" type="line"/>
    </contour>
  </outline>
</glyph>
<glyph name="Q" format="2">
  <advance width="1520"/>
  <unicode hex="0051"/>
  <anchor x="876" y="1525" name="Top"/>
  <anchor x="876" y="1525" name="top"/>
  <anchor x="680" y="-70" name="bottom"/>
  <anchor x="17" y="1120" name="onRight"/>
  <anchor x="780" y="728" name="Slash"/>
  <outline>
    <component base="O"/>
    <contour>
      <point x="1093" y="192" type="line"/>
      <point x="731" y="164" type="line"/>
      <point x="983" y="-198" type="line"/>
      <point x="1027" y="-254"/>
      <point x="1085" y="-272"/>
      <point x="1161" y="-272" type="curve" smooth="yes"/>
      <point x="1429" y="-272" type="line"/>
    </contour>
  </outline>
  <guideline angle="82.9991" x="732" y="0"/>
</glyph>
<glyph name="R" format="2">
  <advance width="1228"/>
  <unicode hex="0052"/>
  <guideline x="614" y="0" angle="82.9991"/>
  <anchor x="699" y="1525" name="Top"/>
  <anchor x="699" y="1525" name="top"/>
  <anchor x="569" y="-70" name="bottom"/>
  <outline>
    <contour>
      <point x="521" y="538" type="line" smooth="yes"/>
      <point x="569" y="538"/>
      <point x="589" y="522"/>
      <point x="605" y="486" type="curve"/>
      <point x="763" y="64" type="line"/>
      <point x="779" y="24"/>
      <point x="817" y="0"/>
      <point x="871" y="0" type="curve" smooth="yes"/>
      <point x="1165" y="0" type="line"/>
      <point x="953" y="506" type="line"/>
      <point x="897" y="620"/>
      <point x="781" y="654"/>
      <point x="665" y="654" type="curve"/>
      <point x="535" y="564" type="line"/>
      <point x="599" y="564" type="line" smooth="yes"/>
      <point x="957" y="564"/>
      <point x="1175" y="788"/>
      <point x="1175" y="1082" type="curve" smooth="yes"/>
      <point x="1175" y="1296"/>
      <point x="1035" y="1460"/>
      <point x="677" y="1460" type="curve" smooth="yes"/>
      <point x="235" y="1460" type="line"/>
      <point x="57" y="0" type="line"/>
      <point x="381" y="0" type="line"/>
      <point x="561" y="1460" type="line"/>
      <point x="255" y="1206" type="line"/>
      <point x="647" y="1206" type="line" smooth="yes"/>
      <point x="787" y="1206"/>
      <point x="851" y="1136"/>
      <point x="851" y="1030" type="curve" smooth="yes"/>
      <point x="851" y="894"/>
      <point x="783" y="772"/>
      <point x="595" y="772" type="curve" smooth="yes"/>
      <point x="367" y="772" type="line"/>
      <point x="295" y="538" type="line"/>
    </contour>
  </outline>
</glyph>
<glyph name="S" format="2">
  <advance width="1046"/>
  <unicode hex="0053"/>
  <anchor x="691" y="1525" name="Top"/>
  <anchor x="435" y="-70" name="bottom"/>
  <anchor x="691" y="1525" name="top"/>
  <outline>
    <contour>
      <point x="1052" y="1300" type="line"/>
      <point x="974" y="1398"/>
      <point x="824" y="1474"/>
      <point x="658" y="1474" type="curve" smooth="yes"/>
      <point x="336" y="1474"/>
      <point x="134" y="1234"/>
      <point x="134" y="972" type="curve" smooth="yes"/>
      <point x="134" y="522"/>
      <point x="656" y="674"/>
      <point x="656" y="438" type="curve" smooth="yes"/>
      <point x="656" y="314"/>
      <point x="586" y="254"/>
      <point x="466" y="254" type="curve" smooth="yes"/>
      <point x="302" y="254"/>
      <point x="250" y="376"/>
      <point x="174" y="376" type="curve" smooth="yes"/>
      <point x="146" y="376"/>
      <point x="116" y="358"/>
      <point x="98" y="336" type="curve"/>
      <point x="-18" y="176" type="line"/>
      <point x="76" y="62"/>
      <point x="256" y="-16"/>
      <point x="424" y="-16" type="curve" smooth="yes"/>
      <point x="762" y="-16"/>
      <point x="972" y="228"/>
      <point x="972" y="522" type="curve" smooth="yes"/>
      <point x="972" y="936"/>
      <point x="444" y="838"/>
      <point x="444" y="1044" type="curve" smooth="yes"/>
      <point x="444" y="1138"/>
      <point x="506" y="1206"/>
      <point x="628" y="1206" type="curve" smooth="yes"/>
      <point x="762" y="1206"/>
      <point x="818" y="1112"/>
      <point x="878" y="1112" type="curve" smooth="yes"/>
      <point x="910" y="1112"/>
      <point x="930" y="1128"/>
      <point x="954" y="1160" type="curve"/>
    </contour>
  </outline>
  <guideline angle="82.9991" x="500" y="0"/>
</glyph>
<glyph name="T" format="2">
  <advance width="1134"/>
  <unicode hex="0054"/>
  <guideline x="552" y="0" angle="82.9991"/>
  <anchor x="675" y="1525" name="Top"/>
  <anchor x="480" y="-70" name="bottom"/>
  <anchor x="614" y="728" name="Slash"/>
  <anchor x="675" y="1525" name="top"/>
  <outline>
    <contour>
      <point x="833" y="1460" type="line"/>
      <point x="507" y="1460" type="line"/>
      <point x="329" y="0" type="line"/>
      <point x="653" y="0" type="line"/>
    </contour>
    <contour>
      <point x="135" y="1460" type="line"/>
      <point x="103" y="1190" type="line"/>
      <point x="1171" y="1190" type="line"/>
      <point x="1205" y="1460" type="line"/>
    </contour>
  </outline>
</glyph>
<glyph name="U" format="2">
  <advance width="1396"/>
  <unicode hex="0055"/>
  <guideline x="667" y="0" angle="82.9991"/>
  <anchor x="803" y="1525" name="Top"/>
  <anchor x="803" y="1525" name="top"/>
  <anchor x="617" y="-70" name="bottom"/>
  <outline>
    <contour>
      <point x="654" y="268" type="curve" smooth="yes"/>
      <point x="492" y="268"/>
      <point x="414" y="392"/>
      <point x="438" y="594" type="curve"/>
      <point x="544" y="1460" type="line"/>
      <point x="218" y="1460" type="line"/>
      <point x="114" y="594" type="line"/>
      <point x="70" y="238"/>
      <point x="260" y="-16"/>
      <point x="620" y="-16" type="curve" smooth="yes"/>
      <point x="980" y="-16"/>
      <point x="1232" y="238"/>
      <point x="1276" y="594" type="curve" smooth="yes"/>
      <point x="1382" y="1460" type="line"/>
      <point x="1056" y="1460" type="line"/>
      <point x="950" y="594" type="line"/>
      <point x="926" y="392"/>
      <point x="816" y="268"/>
    </contour>
  </outline>
</glyph>
<glyph name="V" format="2">
  <advance width="1334"/>
  <unicode hex="0056"/>
  <anchor x="769" y="1525" name="Top"/>
  <anchor x="769" y="1525" name="top"/>
  <anchor x="586" y="-70" name="bottom"/>
  <outline>
    <contour>
      <point x="1455" y="1460" type="line"/>
      <point x="1191" y="1460" type="line" smooth="yes"/>
      <point x="1137" y="1460"/>
      <point x="1091" y="1422"/>
      <point x="1075" y="1386" type="curve" smooth="yes"/>
      <point x="735" y="608" type="line"/>
      <point x="653" y="446"/>
      <point x="579" y="188"/>
      <point x="549" y="0" type="curve"/>
      <point x="739" y="0" type="line"/>
    </contour>
    <contour>
      <point x="443" y="0" type="line"/>
      <point x="639" y="0" type="line"/>
      <point x="671" y="188"/>
      <point x="639" y="446"/>
      <point x="597" y="608" type="curve"/>
      <point x="445" y="1386" type="line"/>
      <point x="437" y="1428"/>
      <point x="403" y="1460"/>
      <point x="347" y="1460" type="curve" smooth="yes"/>
      <point x="85" y="1460" type="line"/>
    </contour>
  </outline>
  <guideline angle="82.9991" x="684" y="0"/>
</glyph>
<glyph name="W" format="2">
  <advance width="1962"/>
  <unicode hex="0057"/>
  <guideline y="83"/>
  <guideline x="990" y="0" angle="82.9991"/>
  <anchor x="1077" y="1525" name="Top"/>
  <anchor x="1077" y="1525" name="top"/>
  <anchor x="896" y="-70" name="bottom"/>
  <outline>
    <contour>
      <point x="1041" y="1460" type="line" smooth="yes"/>
      <point x="987" y="1460"/>
      <point x="943" y="1422"/>
      <point x="927" y="1386" type="curve"/>
      <point x="629" y="626" type="line"/>
      <point x="559" y="460"/>
      <point x="489" y="188"/>
      <point x="461" y="0" type="curve"/>
      <point x="629" y="0" type="line"/>
      <point x="985" y="900" type="line"/>
      <point x="1035" y="1022"/>
      <point x="1103" y="1246"/>
      <point x="1121" y="1366" type="curve"/>
      <point x="1017" y="1366" type="line"/>
      <point x="1005" y="1246"/>
      <point x="1019" y="1022"/>
      <point x="1039" y="900" type="curve"/>
      <point x="1173" y="0" type="line"/>
      <point x="1351" y="0" type="line"/>
      <point x="1367" y="188"/>
      <point x="1357" y="460"/>
      <point x="1329" y="626" type="curve"/>
      <point x="1217" y="1386" type="line"/>
      <point x="1205" y="1428"/>
      <point x="1173" y="1460"/>
      <point x="1117" y="1460" type="curve" smooth="yes"/>
    </contour>
    <contour>
      <point x="335" y="0" type="line"/>
      <point x="567" y="0" type="line"/>
      <point x="583" y="188"/>
      <point x="569" y="456"/>
      <point x="555" y="626" type="curve"/>
      <point x="453" y="1386" type="line" smooth="yes"/>
      <point x="447" y="1430"/>
      <point x="411" y="1460"/>
      <point x="355" y="1460" type="curve" smooth="yes"/>
      <point x="99" y="1460" type="line"/>
    </contour>
    <contour>
      <point x="2063" y="1460" type="line"/>
      <point x="1805" y="1460" type="line" smooth="yes"/>
      <point x="1751" y="1460"/>
      <point x="1701" y="1424"/>
      <point x="1689" y="1386" type="curve"/>
      <point x="1401" y="626" type="line"/>
      <point x="1345" y="456"/>
      <point x="1271" y="188"/>
      <point x="1243" y="0" type="curve"/>
      <point x="1469" y="0" type="line"/>
    </contour>
  </outline>
</glyph>
<glyph name="Y" format="2">
  <advance width="1261"/>
  <unicode hex="0059"/>
  <guideline y="663"/>
  <guideline x="628" y="0" angle="82.9991"/>
  <anchor x="734" y="1525" name="Top"/>
  <anchor x="-128" y="1120" name="onRight"/>
  <anchor x="734" y="1525" name="top"/>
  <anchor x="549" y="-70" name="bottom"/>
  <outline>
    <contour>
      <point x="1383" y="1460" type="line"/>
      <point x="1113" y="1460" type="line" smooth="yes"/>
      <point x="1059" y="1460"/>
      <point x="1021" y="1422"/>
      <point x="999" y="1386" type="curve"/>
      <point x="751" y="960" type="line" smooth="yes"/>
      <point x="661" y="804"/>
      <point x="605" y="694"/>
      <point x="579" y="526" type="curve"/>
      <point x="767" y="526" type="line"/>
    </contour>
    <contour>
      <point x="471" y="526" type="line"/>
      <point x="675" y="526" type="line"/>
      <point x="687" y="656"/>
      <point x="671" y="792"/>
      <point x="615" y="960" type="curve" smooth="yes"/>
      <point x="475" y="1386" type="line" smooth="yes"/>
      <point x="461" y="1430"/>
      <point x="431" y="1460"/>
      <point x="375" y="1460" type="curve" smooth="yes"/>
      <point x="85" y="1460" type="line"/>
    </contour>
    <contour>
      <point x="793" y="610" type="line"/>
      <point x="467" y="610" type="line"/>
      <point x="391" y="0" type="line"/>
      <point x="717" y="0" type="line"/>
    </contour>
  </outline>
</glyph>
<glyph name="Z" format="2">
  <advance width="1132"/>
  <unicode hex="005A"/>
  <anchor x="695" y="1525" name="Top"/>
  <anchor x="504" y="-70" name="bottom"/>
  <anchor x="695" y="1525" name="top"/>
  <outline>
    <contour>
      <point x="1145" y="1282" type="line"/>
      <point x="1161" y="1306"/>
      <point x="1175" y="1330"/>
      <point x="1179" y="1358" type="curve" smooth="yes"/>
      <point x="1193" y="1460" type="line"/>
      <point x="915" y="1460" type="line"/>
      <point x="-1" y="176" type="line"/>
      <point x="-17" y="152"/>
      <point x="-31" y="128"/>
      <point x="-35" y="100" type="curve" smooth="yes"/>
      <point x="-47" y="0" type="line"/>
      <point x="231" y="0" type="line"/>
    </contour>
    <contour>
      <point x="185" y="1460" type="line"/>
      <point x="153" y="1198" type="line"/>
      <point x="989" y="1198" type="line"/>
      <point x="1193" y="1460" type="line"/>
    </contour>
    <contour>
      <point x="155" y="262" type="line"/>
      <point x="-47" y="0" type="line"/>
      <point x="993" y="0" type="line"/>
      <point x="1025" y="262" type="line"/>
    </contour>
  </outline>
  <guideline angle="82.9991" x="560" y="0"/>
</glyph>
<glyph name="bracketleft" format="2">
  <advance width="612"/>
  <unicode hex="005B"/>
  <outline>
    <contour>
      <point x="682" y="1558" type="line"/>
      <point x="262" y="1558" type="line"/>
      <point x="248" y="1364" type="line"/>
      <point x="582" y="1364" type="line" smooth="yes"/>
      <point x="626" y="1364"/>
      <point x="664" y="1398"/>
      <point x="668" y="1438" type="curve" smooth="yes"/>
    </contour>
    <contour>
      <point x="452" y="-324" type="line"/>
      <point x="466" y="-206" type="line"/>
      <point x="472" y="-164"/>
      <point x="444" y="-130"/>
      <point x="400" y="-130" type="curve" smooth="yes"/>
      <point x="76" y="-130" type="line"/>
      <point x="32" y="-324" type="line"/>
    </contour>
    <contour>
      <point x="512" y="1558" type="line"/>
      <point x="262" y="1558" type="line"/>
      <point x="32" y="-324" type="line"/>
      <point x="280" y="-324" type="line"/>
    </contour>
  </outline>
  <guideline angle="82.9991" x="276" y="0"/>
</glyph>
<glyph name="backslash" format="2">
  <advance width="874"/>
  <unicode hex="005C"/>
  <guideline x="374" y="0" angle="82.9991"/>
  <outline>
    <contour>
      <point x="470" y="10" type="line"/>
      <point x="488" y="-62"/>
      <point x="550" y="-102"/>
      <point x="612" y="-102" type="curve" smooth="yes"/>
      <point x="738" y="-102" type="line"/>
      <point x="414" y="1354" type="line"/>
      <point x="396" y="1420"/>
      <point x="346" y="1460"/>
      <point x="276" y="1460" type="curve" smooth="yes"/>
      <point x="150" y="1460" type="line"/>
    </contour>
  </outline>
</glyph>
<glyph name="bracketright" format="2">
  <advance width="612"/>
  <unicode hex="005D"/>
  <guideline x="276" y="0" angle="82.9991"/>
  <outline>
    <contour>
      <point x="143" y="1438" type="line"/>
      <point x="139" y="1398"/>
      <point x="167" y="1364"/>
      <point x="211" y="1364" type="curve" smooth="yes"/>
      <point x="545" y="1364" type="line"/>
      <point x="579" y="1558" type="line"/>
      <point x="159" y="1558" type="line"/>
    </contour>
    <contour>
      <point x="347" y="-324" type="line"/>
      <point x="361" y="-130" type="line"/>
      <point x="27" y="-130" type="line" smooth="yes"/>
      <point x="-17" y="-130"/>
      <point x="-53" y="-164"/>
      <point x="-57" y="-206" type="curve"/>
      <point x="-73" y="-324" type="line"/>
    </contour>
    <contour>
      <point x="99" y="-324" type="line"/>
      <point x="347" y="-324" type="line"/>
      <point x="579" y="1558" type="line"/>
      <point x="331" y="1558" type="line"/>
    </contour>
  </outline>
</glyph>
<glyph name="asciicircum" format="2">
  <advance width="1160"/>
  <unicode hex="005E"/>
  <outline>
    <contour>
      <point x="140" y="766" type="line"/>
      <point x="380" y="766" type="line" smooth="yes"/>
      <point x="420" y="766"/>
      <point x="444" y="788"/>
      <point x="458" y="816" type="curve"/>
      <point x="578" y="1040" type="line" smooth="yes"/>
      <point x="654" y="1180"/>
      <point x="666" y="1288"/>
      <point x="668" y="1460" type="curve"/>
      <point x="526" y="1460" type="line"/>
    </contour>
    <contour>
      <point x="728" y="1460" type="line"/>
      <point x="594" y="1460" type="line"/>
      <point x="594" y="1288"/>
      <point x="608" y="1182"/>
      <point x="688" y="1040" type="curve"/>
      <point x="812" y="816" type="line" smooth="yes"/>
      <point x="828" y="788"/>
      <point x="850" y="766"/>
      <point x="886" y="766" type="curve" smooth="yes"/>
      <point x="1114" y="766" type="line"/>
    </contour>
  </outline>
  <guideline angle="82.9991" x="580" y="0"/>
</glyph>
<glyph name="underscore" format="2">
  <advance width="890"/>
  <unicode hex="005F"/>
  <outline>
    <contour>
      <point x="-5" y="-108" type="line"/>
      <point x="-29" y="-302" type="line"/>
      <point x="697" y="-302" type="line"/>
      <point x="721" y="-108" type="line"/>
    </contour>
  </outline>
  <guideline angle="82.9991" x="363" y="0"/>
</glyph>
<glyph name="grave" format="2">
  <advance width="736"/>
  <unicode hex="0060"/>
  <guideline x="368" y="0" angle="82.9991"/>
  <anchor x="400" y="1120" name="_top"/>
  <outline>
    <contour>
      <point x="196" y="1476" type="line"/>
      <point x="405" y="1212" type="line"/>
      <point x="429" y="1180"/>
      <point x="450" y="1168"/>
      <point x="492" y="1168" type="curve" smooth="yes"/>
      <point x="654" y="1168" type="line"/>
      <point x="557" y="1414" type="line" smooth="yes"/>
      <point x="541" y="1454"/>
      <point x="520" y="1476"/>
      <point x="463" y="1476" type="curve" smooth="yes"/>
    </contour>
  </outline>
</glyph>
<glyph name="a" format="2">
  <advance width="1061"/>
  <unicode hex="0061"/>
  <guideline x="529" y="0" angle="82.9991"/>
  <anchor x="687" y="1120" name="top"/>
  <anchor x="855" y="222" name="hook"/>
  <anchor x="467" y="-70" name="bottom"/>
  <outline>
    <contour>
      <point x="889" y="0" type="line"/>
      <point x="1015" y="1010" type="line"/>
      <point x="709" y="994" type="line"/>
      <point x="613" y="228" type="line"/>
      <point x="623" y="210" type="line"/>
      <point x="623" y="102" type="line" smooth="yes"/>
      <point x="623" y="44"/>
      <point x="645" y="0"/>
      <point x="723" y="0" type="curve" smooth="yes"/>
    </contour>
    <contour>
      <point x="1015" y="1010" type="line"/>
      <point x="917" y="1044"/>
      <point x="813" y="1056"/>
      <point x="715" y="1056" type="curve" smooth="yes"/>
      <point x="311" y="1056"/>
      <point x="21" y="736"/>
      <point x="21" y="358" type="curve" smooth="yes"/>
      <point x="21" y="100"/>
      <point x="159" y="-16"/>
      <point x="309" y="-16" type="curve" smooth="yes"/>
      <point x="523" y="-16"/>
      <point x="679" y="196"/>
      <point x="773" y="482" type="curve"/>
      <point x="669" y="632" type="line"/>
      <point x="631" y="426"/>
      <point x="535" y="240"/>
      <point x="433" y="240" type="curve" smooth="yes"/>
      <point x="375" y="240"/>
      <point x="331" y="286"/>
      <point x="331" y="416" type="curve" smooth="yes"/>
      <point x="331" y="646"/>
      <point x="469" y="834"/>
      <point x="671" y="834" type="curve" smooth="yes"/>
      <point x="721" y="834"/>
      <point x="785" y="828"/>
      <point x="843" y="808" type="curve"/>
    </contour>
  </outline>
</glyph>
<glyph name="c" format="2">
  <advance width="905"/>
  <unicode hex="0063"/>
  <anchor x="605" y="1120" name="top"/>
  <anchor x="426" y="-70" name="bottom"/>
  <outline>
    <contour>
      <point x="844" y="182" type="curve"/>
      <point x="764" y="280" type="line"/>
      <point x="750" y="296"/>
      <point x="730" y="308"/>
      <point x="710" y="308" type="curve"/>
      <point x="638" y="308"/>
      <point x="622" y="226"/>
      <point x="494" y="226" type="curve" smooth="yes"/>
      <point x="408" y="226"/>
      <point x="340" y="290"/>
      <point x="340" y="424" type="curve" smooth="yes"/>
      <point x="340" y="670"/>
      <point x="460" y="806"/>
      <point x="582" y="806" type="curve" smooth="yes"/>
      <point x="682" y="806"/>
      <point x="692" y="756"/>
      <point x="744" y="756" type="curve" smooth="yes"/>
      <point x="766" y="756"/>
      <point x="786" y="770"/>
      <point x="800" y="786" type="curve" smooth="yes"/>
      <point x="900" y="906" type="line"/>
      <point x="822" y="1008"/>
      <point x="726" y="1054"/>
      <point x="588" y="1054" type="curve" smooth="yes"/>
      <point x="264" y="1054"/>
      <point x="30" y="766"/>
      <point x="30" y="426" type="curve" smooth="yes"/>
      <point x="30" y="154"/>
      <point x="184" y="-16"/>
      <point x="426" y="-16" type="curve" smooth="yes"/>
      <point x="606" y="-16"/>
      <point x="712" y="36"/>
    </contour>
  </outline>
  <guideline angle="0" x="0" y="1407"/>
  <guideline angle="82.9991" x="438" y="0"/>
</glyph>
<glyph name="d" format="2">
  <advance width="1099"/>
  <unicode hex="0064"/>
  <anchor x="515" y="1120" name="top"/>
  <anchor x="922" y="222" name="hook"/>
  <anchor x="903" y="1238" name="bar"/>
  <anchor x="883" y="1525" name="Top"/>
  <anchor x="488" y="-70" name="bottom"/>
  <outline>
    <contour>
      <point x="924" y="0" type="line"/>
      <point x="1110" y="1500" type="line"/>
      <point x="806" y="1500" type="line"/>
      <point x="648" y="228" type="line"/>
      <point x="658" y="210" type="line"/>
      <point x="658" y="102" type="line" smooth="yes"/>
      <point x="658" y="44"/>
      <point x="680" y="0"/>
      <point x="758" y="0" type="curve"/>
    </contour>
    <contour>
      <point x="798" y="912" type="line"/>
      <point x="744" y="994"/>
      <point x="656" y="1056"/>
      <point x="534" y="1056" type="curve" smooth="yes"/>
      <point x="268" y="1056"/>
      <point x="28" y="746"/>
      <point x="28" y="380" type="curve" smooth="yes"/>
      <point x="28" y="100"/>
      <point x="148" y="-16"/>
      <point x="318" y="-16" type="curve" smooth="yes"/>
      <point x="532" y="-16"/>
      <point x="714" y="196"/>
      <point x="810" y="482" type="curve"/>
      <point x="706" y="622" type="line"/>
      <point x="666" y="416"/>
      <point x="542" y="230"/>
      <point x="442" y="230" type="curve" smooth="yes"/>
      <point x="378" y="230"/>
      <point x="336" y="284"/>
      <point x="336" y="412" type="curve" smooth="yes"/>
      <point x="336" y="618"/>
      <point x="440" y="818"/>
      <point x="584" y="818" type="curve" smooth="yes"/>
      <point x="642" y="818"/>
      <point x="714" y="798"/>
      <point x="752" y="740" type="curve"/>
    </contour>
  </outline>
  <guideline angle="82.9991" x="551" y="0"/>
</glyph>
<glyph name="e" format="2">
  <advance width="989"/>
  <unicode hex="0065"/>
  <guideline x="484" y="0" angle="82.9991"/>
  <anchor x="593" y="1120" name="top"/>
  <anchor x="453" y="-70" name="bottom"/>
  <anchor x="901" y="222" name="hook"/>
  <outline>
    <contour>
      <point x="299" y="414" type="line"/>
      <point x="801" y="458"/>
      <point x="939" y="586"/>
      <point x="939" y="780" type="curve" smooth="yes"/>
      <point x="939" y="912"/>
      <point x="815" y="1054"/>
      <point x="593" y="1054" type="curve" smooth="yes"/>
      <point x="257" y="1054"/>
      <point x="29" y="760"/>
      <point x="29" y="426" type="curve" smooth="yes"/>
      <point x="29" y="160"/>
      <point x="201" y="-16"/>
      <point x="447" y="-16" type="curve" smooth="yes"/>
      <point x="645" y="-16"/>
      <point x="771" y="48"/>
      <point x="917" y="192" type="curve"/>
      <point x="837" y="290" type="line"/>
      <point x="823" y="306"/>
      <point x="803" y="318"/>
      <point x="783" y="318" type="curve" smooth="yes"/>
      <point x="691" y="318"/>
      <point x="673" y="226"/>
      <point x="509" y="226" type="curve" smooth="yes"/>
      <point x="391" y="226"/>
      <point x="331" y="290"/>
      <point x="331" y="434" type="curve"/>
      <point x="333" y="678"/>
      <point x="435" y="836"/>
      <point x="575" y="836" type="curve" smooth="yes"/>
      <point x="633" y="836"/>
      <point x="659" y="802"/>
      <point x="659" y="768" type="curve" smooth="yes"/>
      <point x="659" y="700"/>
      <point x="609" y="654"/>
      <point x="335" y="614" type="curve"/>
    </contour>
  </outline>
</glyph>
<glyph name="f" format="2">
  <advance width="681"/>
  <unicode hex="0066"/>
  <anchor x="412" y="222" name="hook"/>
  <anchor x="601" y="1518" name="top"/>
  <anchor x="299" y="473" name="bar"/>
  <anchor x="528" y="1525" name="Top"/>
  <anchor x="196" y="-421" name="bottom"/>
  <outline>
    <contour>
      <point x="517" y="1084" type="line"/>
      <point x="533" y="1216"/>
      <point x="595" y="1262"/>
      <point x="697" y="1262" type="curve" smooth="yes"/>
      <point x="727" y="1262"/>
      <point x="765" y="1272"/>
      <point x="771" y="1306" type="curve"/>
      <point x="799" y="1470" type="line"/>
      <point x="759" y="1482"/>
      <point x="721" y="1488"/>
      <point x="675" y="1488" type="curve" smooth="yes"/>
      <point x="435" y="1488"/>
      <point x="255" y="1332"/>
      <point x="225" y="1094" type="curve"/>
      <point x="63" y="-246" type="line"/>
      <point x="189" y="-246" type="line" smooth="yes"/>
      <point x="279" y="-246"/>
      <point x="323" y="-198"/>
      <point x="349" y="-118" type="curve" smooth="yes"/>
      <point x="403" y="52" type="line"/>
      <point x="511" y="942" type="line"/>
      <point x="505" y="974" type="line"/>
    </contour>
    <contour>
      <point x="693" y="818" type="line"/>
      <point x="721" y="1040" type="line"/>
      <point x="87" y="1040" type="line"/>
      <point x="71" y="912" type="line" smooth="yes"/>
      <point x="65" y="866"/>
      <point x="93" y="844"/>
      <point x="131" y="834" type="curve"/>
      <point x="241" y="808" type="line"/>
      <point x="281" y="818" type="line"/>
    </contour>
  </outline>
  <guideline angle="82.9991" x="332" y="0"/>
</glyph>
<glyph name="g" format="2">
  <advance width="1038"/>
  <unicode hex="0067"/>
  <guideline x="504"/>
  <guideline x="100" y="0" angle="82.9991"/>
  <anchor x="565" y="1120" name="top"/>
  <anchor x="431" y="-421" name="bottom"/>
  <outline>
    <contour>
      <point x="474" y="506" type="curve" smooth="yes"/>
      <point x="402" y="506"/>
      <point x="366" y="558"/>
      <point x="366" y="642" type="curve" smooth="yes"/>
      <point x="366" y="748"/>
      <point x="414" y="846"/>
      <point x="512" y="846" type="curve" smooth="yes"/>
      <point x="586" y="846"/>
      <point x="622" y="796"/>
      <point x="622" y="714" type="curve"/>
      <point x="620" y="614"/>
      <point x="572" y="506"/>
    </contour>
    <contour>
      <point x="906" y="726" type="curve"/>
      <point x="906" y="952"/>
      <point x="738" y="1056"/>
      <point x="548" y="1056" type="curve" smooth="yes"/>
      <point x="242" y="1056"/>
      <point x="84" y="850"/>
      <point x="84" y="644" type="curve" smooth="yes"/>
      <point x="84" y="422"/>
      <point x="228" y="318"/>
      <point x="384" y="318" type="curve" smooth="yes"/>
      <point x="544" y="318"/>
      <point x="612" y="374"/>
      <point x="686" y="452" type="curve"/>
      <point x="670" y="510" type="line"/>
      <point x="606" y="410"/>
      <point x="572" y="326"/>
      <point x="572" y="256" type="curve" smooth="yes"/>
      <point x="572" y="172"/>
      <point x="598" y="108"/>
      <point x="598" y="18" type="curve" smooth="yes"/>
      <point x="598" y="-78"/>
      <point x="512" y="-140"/>
      <point x="388" y="-140" type="curve" smooth="yes"/>
      <point x="270" y="-140"/>
      <point x="224" y="-106"/>
      <point x="224" y="-42" type="curve" smooth="yes"/>
      <point x="224" y="28"/>
      <point x="336" y="86"/>
      <point x="648" y="24" type="curve"/>
      <point x="604" y="202" type="line"/>
      <point x="408" y="252"/>
      <point x="-70" y="240"/>
      <point x="-70" y="-82" type="curve" smooth="yes"/>
      <point x="-70" y="-234"/>
      <point x="94" y="-354"/>
      <point x="362" y="-354" type="curve" smooth="yes"/>
      <point x="690" y="-354"/>
      <point x="878" y="-174"/>
      <point x="880" y="44" type="curve"/>
      <point x="880" y="180"/>
      <point x="794" y="248"/>
      <point x="794" y="356" type="curve"/>
      <point x="794" y="510"/>
      <point x="906" y="560"/>
    </contour>
    <contour>
      <point x="828" y="762" type="line"/>
      <point x="988" y="820" type="line"/>
      <point x="1020" y="834"/>
      <point x="1040" y="860"/>
      <point x="1046" y="900" type="curve" smooth="yes"/>
      <point x="1060" y="1002" type="line"/>
      <point x="638" y="1002" type="line"/>
    </contour>
  </outline>
</glyph>
<glyph name="h" format="2">
  <advance width="1103"/>
  <unicode hex="0068"/>
  <guideline x="554" y="0" angle="82.9991"/>
  <anchor x="564" y="728" name="Slash"/>
  <anchor x="425" y="1525" name="Top"/>
  <anchor x="425" y="1525" name="top"/>
  <anchor x="475" y="-70" name="bottom"/>
  <outline>
    <contour>
      <point x="333" y="0" type="line"/>
      <point x="515" y="1500" type="line"/>
      <point x="205" y="1500" type="line"/>
      <point x="23" y="0" type="line"/>
    </contour>
    <contour>
      <point x="939" y="0" type="line"/>
      <point x="1017" y="660" type="line"/>
      <point x="707" y="660" type="line"/>
      <point x="629" y="0" type="line"/>
    </contour>
    <contour>
      <point x="1017" y="660" type="line"/>
      <point x="1049" y="914"/>
      <point x="929" y="1056"/>
      <point x="755" y="1056" type="curve" smooth="yes"/>
      <point x="569" y="1056"/>
      <point x="389" y="920"/>
      <point x="277" y="616" type="curve"/>
      <point x="381" y="468" type="line"/>
      <point x="415" y="666"/>
      <point x="539" y="802"/>
      <point x="635" y="802" type="curve" smooth="yes"/>
      <point x="697" y="802"/>
      <point x="721" y="768"/>
      <point x="707" y="660" type="curve"/>
    </contour>
  </outline>
</glyph>
<glyph name="k" format="2">
  <advance width="1049"/>
  <unicode hex="006B"/>
  <guideline x="537" y="0" angle="82.9991"/>
  <anchor x="846" y="222" name="hook"/>
  <anchor x="451" y="1525" name="Top"/>
  <anchor x="451" y="1525" name="top"/>
  <anchor x="459" y="-70" name="bottom"/>
  <outline>
    <contour>
      <point x="205" y="1500" type="line"/>
      <point x="21" y="0" type="line"/>
      <point x="327" y="0" type="line"/>
      <point x="511" y="1500" type="line"/>
    </contour>
    <contour>
      <point x="301" y="664" type="line"/>
      <point x="333" y="456" type="line"/>
      <point x="415" y="456" type="line" smooth="yes"/>
      <point x="453" y="456"/>
      <point x="465" y="450"/>
      <point x="479" y="416" type="curve" smooth="yes"/>
      <point x="623" y="54" type="line" smooth="yes"/>
      <point x="639" y="14"/>
      <point x="667" y="0"/>
      <point x="711" y="0" type="curve" smooth="yes"/>
      <point x="981" y="0" type="line"/>
      <point x="773" y="496" type="line"/>
      <point x="735" y="584"/>
      <point x="683" y="638"/>
      <point x="549" y="638" type="curve"/>
      <point x="541" y="544" type="line"/>
      <point x="651" y="544"/>
      <point x="735" y="590"/>
      <point x="803" y="674" type="curve"/>
      <point x="1093" y="1040" type="line"/>
      <point x="815" y="1040" type="line" smooth="yes"/>
      <point x="771" y="1040"/>
      <point x="743" y="1022"/>
      <point x="717" y="988" type="curve" smooth="yes"/>
      <point x="503" y="702" type="line"/>
      <point x="481" y="674"/>
      <point x="463" y="664"/>
      <point x="429" y="664" type="curve" smooth="yes"/>
    </contour>
  </outline>
</glyph>
<glyph name="l" format="2">
  <advance width="502"/>
  <unicode hex="006C"/>
  <anchor x="358" y="1525" name="Top"/>
  <anchor x="339" y="222" name="hook"/>
  <anchor x="162" y="-70" name="bottom"/>
  <anchor x="270" y="756" name="bar"/>
  <anchor x="358" y="1525" name="top"/>
  <outline>
    <contour>
      <point x="329" y="0" type="line"/>
      <point x="511" y="1500" type="line"/>
      <point x="205" y="1500" type="line"/>
      <point x="23" y="0" type="line"/>
    </contour>
  </outline>
  <guideline angle="82.9991" x="260" y="0"/>
</glyph>
<glyph name="m" format="2">
  <advance width="1597"/>
  <unicode hex="006D"/>
  <anchor x="722" y="-70" name="bottom"/>
  <anchor x="900" y="1120" name="top"/>
  <anchor x="1444" y="222" name="hook"/>
  <outline>
    <contour>
      <point x="327" y="0" type="line"/>
      <point x="419" y="766" type="line"/>
      <point x="411" y="784" type="line"/>
      <point x="411" y="940" type="line" smooth="yes"/>
      <point x="411" y="1010"/>
      <point x="373" y="1040"/>
      <point x="309" y="1040" type="curve"/>
      <point x="149" y="1040" type="line"/>
      <point x="23" y="0" type="line"/>
    </contour>
    <contour>
      <point x="881" y="0" type="line"/>
      <point x="959" y="660" type="line"/>
      <point x="653" y="660" type="line"/>
      <point x="575" y="0" type="line"/>
    </contour>
    <contour>
      <point x="923" y="660" type="line"/>
      <point x="955" y="914"/>
      <point x="859" y="1056"/>
      <point x="703" y="1056" type="curve" smooth="yes" name="hr01"/>
      <point x="535" y="1056"/>
      <point x="385" y="920"/>
      <point x="273" y="616" type="curve"/>
      <point x="375" y="468" type="line"/>
      <point x="409" y="666"/>
      <point x="495" y="800"/>
      <point x="593" y="800" type="curve" smooth="yes"/>
      <point x="645" y="800"/>
      <point x="667" y="768"/>
      <point x="653" y="660" type="curve"/>
    </contour>
    <contour>
      <point x="1433" y="0" type="line"/>
      <point x="1511" y="660" type="line"/>
      <point x="1205" y="660" type="line"/>
      <point x="1127" y="0" type="line"/>
    </contour>
    <contour>
      <point x="1511" y="660" type="line"/>
      <point x="1543" y="914"/>
      <point x="1433" y="1056"/>
      <point x="1259" y="1056" type="curve" smooth="yes"/>
      <point x="1071" y="1056"/>
      <point x="935" y="920"/>
      <point x="825" y="616" type="curve"/>
      <point x="927" y="468" type="line"/>
      <point x="961" y="666"/>
      <point x="1047" y="800"/>
      <point x="1145" y="800" type="curve" smooth="yes"/>
      <point x="1197" y="800"/>
      <point x="1219" y="768"/>
      <point x="1205" y="660" type="curve"/>
    </contour>
  </outline>
  <guideline angle="82.9991" x="801" y="0"/>
</glyph>
<glyph name="n" format="2">
  <advance width="1103"/>
  <unicode hex="006E"/>
  <anchor x="611" y="1120" name="top"/>
  <anchor x="928" y="222" name="hook"/>
  <anchor x="476" y="-70" name="bottom"/>
  <outline>
    <contour>
      <point x="334" y="0" type="line"/>
      <point x="418" y="766" type="line"/>
      <point x="410" y="784" type="line"/>
      <point x="410" y="940" type="line" smooth="yes"/>
      <point x="410" y="1010"/>
      <point x="372" y="1040"/>
      <point x="308" y="1040" type="curve" smooth="yes"/>
      <point x="148" y="1040" type="line"/>
      <point x="24" y="0" type="line"/>
    </contour>
    <contour>
      <point x="940" y="0" type="line"/>
      <point x="1018" y="660" type="line"/>
      <point x="708" y="660" type="line"/>
      <point x="630" y="0" type="line"/>
    </contour>
    <contour>
      <point x="1018" y="660" type="line"/>
      <point x="1050" y="914"/>
      <point x="930" y="1056"/>
      <point x="758" y="1056" type="curve" smooth="yes" name="hr01"/>
      <point x="570" y="1056"/>
      <point x="392" y="920"/>
      <point x="280" y="616" type="curve"/>
      <point x="382" y="468" type="line"/>
      <point x="416" y="666"/>
      <point x="540" y="800"/>
      <point x="638" y="800" type="curve" smooth="yes"/>
      <point x="698" y="800"/>
      <point x="722" y="768"/>
      <point x="708" y="660" type="curve"/>
    </contour>
  </outline>
  <guideline angle="90" x="554" y="0"/>
  <guideline angle="82.9991" x="100" y="0"/>
</glyph>
<glyph name="o" format="2">
  <advance width="1055"/>
  <unicode hex="006F"/>
  <anchor x="615" y="1120" name="top"/>
  <anchor x="430" y="-70" name="bottom"/>
  <outline>
    <contour>
      <point x="470" y="224" type="curve"/>
      <point x="378" y="224"/>
      <point x="340" y="282"/>
      <point x="340" y="426" type="curve" smooth="yes"/>
      <point x="340" y="642"/>
      <point x="424" y="816"/>
      <point x="562" y="816" type="curve" smooth="yes"/>
      <point x="654" y="816"/>
      <point x="692" y="760"/>
      <point x="692" y="614" type="curve" smooth="yes"/>
      <point x="692" y="400"/>
      <point x="608" y="224"/>
    </contour>
    <contour>
      <point x="442" y="-16" type="curve"/>
      <point x="740" y="-16"/>
      <point x="1002" y="250"/>
      <point x="1002" y="616" type="curve" smooth="yes"/>
      <point x="1002" y="900"/>
      <point x="822" y="1056"/>
      <point x="590" y="1056" type="curve" smooth="yes"/>
      <point x="292" y="1056"/>
      <point x="30" y="794"/>
      <point x="30" y="424" type="curve" smooth="yes"/>
      <point x="30" y="140"/>
      <point x="210" y="-16"/>
    </contour>
  </outline>
  <guideline angle="90" x="517" y="0"/>
  <guideline angle="82.9991" x="100" y="0"/>
</glyph>
<glyph name="q" format="2">
  <advance width="1062"/>
  <unicode hex="0071"/>
  <anchor x="659" y="1120" name="top"/>
  <anchor x="424" y="-421" name="bottom"/>
  <outline>
    <contour>
      <point x="848" y="-328" type="line"/>
      <point x="1016" y="1010" type="line"/>
      <point x="710" y="994" type="line"/>
      <point x="554" y="-218" type="line" smooth="yes"/>
      <point x="548" y="-264"/>
      <point x="568" y="-328"/>
      <point x="644" y="-328" type="curve" smooth="yes"/>
    </contour>
    <contour>
      <point x="1016" y="1010" type="line"/>
      <point x="918" y="1044"/>
      <point x="814" y="1056"/>
      <point x="716" y="1056" type="curve" smooth="yes"/>
      <point x="312" y="1056"/>
      <point x="22" y="736"/>
      <point x="22" y="358" type="curve" smooth="yes"/>
      <point x="22" y="100"/>
      <point x="160" y="-16"/>
      <point x="310" y="-16" type="curve" smooth="yes"/>
      <point x="524" y="-16"/>
      <point x="680" y="196"/>
      <point x="774" y="482" type="curve"/>
      <point x="670" y="632" type="line"/>
      <point x="632" y="426"/>
      <point x="536" y="240"/>
      <point x="434" y="240" type="curve" smooth="yes"/>
      <point x="376" y="240"/>
      <point x="332" y="286"/>
      <point x="332" y="416" type="curve" smooth="yes"/>
      <point x="332" y="646"/>
      <point x="470" y="834"/>
      <point x="672" y="834" type="curve" smooth="yes"/>
      <point x="722" y="834"/>
      <point x="786" y="828"/>
      <point x="844" y="808" type="curve"/>
    </contour>
  </outline>
  <guideline angle="82.9991" x="529" y="0"/>
</glyph>
<glyph name="r" format="2">
  <advance width="727"/>
  <unicode hex="0072"/>
  <guideline x="375" y="0" angle="82.9991"/>
  <anchor x="454" y="1120" name="top"/>
  <anchor x="163" y="-70" name="bottom"/>
  <anchor x="338" y="222" name="hook"/>
  <anchor x="231" y="473" name="bar"/>
  <outline>
    <contour>
      <point x="327" y="0" type="line"/>
      <point x="419" y="766" type="line"/>
      <point x="411" y="784" type="line"/>
      <point x="411" y="940" type="line" smooth="yes"/>
      <point x="411" y="1010"/>
      <point x="373" y="1040"/>
      <point x="309" y="1040" type="curve" smooth="yes"/>
      <point x="149" y="1040" type="line"/>
      <point x="23" y="0" type="line"/>
    </contour>
    <contour>
      <point x="355" y="304" type="line"/>
      <point x="411" y="696"/>
      <point x="535" y="802"/>
      <point x="713" y="726" type="curve"/>
      <point x="769" y="1026" type="line"/>
      <point x="561" y="1122"/>
      <point x="353" y="846"/>
      <point x="255" y="370" type="curve"/>
    </contour>
  </outline>
</glyph>
<glyph name="t" format="2">
  <advance width="752"/>
  <unicode hex="0074"/>
  <guideline x="365" y="0" angle="82.9991"/>
  <anchor x="327" y="-70" name="bottom"/>
  <anchor x="398" y="728" name="Slash"/>
  <anchor x="267" y="473" name="bar"/>
  <anchor x="406" y="1120" name="top"/>
  <outline>
    <contour>
      <point x="202" y="962" type="line"/>
      <point x="132" y="404" type="line"/>
      <point x="116" y="270"/>
      <point x="116" y="248"/>
      <point x="116" y="228" type="curve"/>
      <point x="122" y="78"/>
      <point x="222" y="-16"/>
      <point x="382" y="-16" type="curve" smooth="yes"/>
      <point x="478" y="-16"/>
      <point x="576" y="14"/>
      <point x="658" y="74" type="curve"/>
      <point x="590" y="228" type="line" smooth="yes"/>
      <point x="581" y="248"/>
      <point x="574" y="256"/>
      <point x="556" y="256" type="curve" smooth="yes"/>
      <point x="532" y="256"/>
      <point x="522" y="236"/>
      <point x="480" y="236" type="curve" smooth="yes"/>
      <point x="442" y="236"/>
      <point x="424" y="264"/>
      <point x="424" y="300" type="curve" smooth="yes"/>
      <point x="424" y="304"/>
      <point x="424" y="314"/>
      <point x="438" y="422" type="curve" smooth="yes"/>
      <point x="552" y="1338" type="line"/>
      <point x="384" y="1338" type="line" smooth="yes"/>
      <point x="350" y="1338"/>
      <point x="327" y="1320"/>
      <point x="316" y="1288" type="curve" smooth="yes"/>
    </contour>
    <contour>
      <point x="318" y="1040" type="line"/>
      <point x="264" y="1050" type="line"/>
      <point x="72" y="1008" type="line"/>
      <point x="58" y="882" type="line"/>
      <point x="52" y="840"/>
      <point x="74" y="818"/>
      <point x="102" y="818" type="curve" smooth="yes"/>
      <point x="720" y="818" type="line"/>
      <point x="746" y="1040" type="line"/>
    </contour>
  </outline>
</glyph>
<glyph name="u" format="2">
  <advance width="1102"/>
  <unicode hex="0075"/>
  <anchor x="591" y="1120" name="top"/>
  <anchor x="910" y="222" name="hook"/>
  <anchor x="496" y="-70" name="bottom"/>
  <outline>
    <contour>
      <point x="745" y="1040" type="line"/>
      <point x="653" y="274" type="line"/>
      <point x="661" y="256" type="line"/>
      <point x="661" y="106" type="line" smooth="yes"/>
      <point x="661" y="34"/>
      <point x="699" y="0"/>
      <point x="771" y="0" type="curve" smooth="yes"/>
      <point x="929" y="0" type="line"/>
      <point x="1055" y="1040" type="line"/>
    </contour>
    <contour>
      <point x="139" y="1040" type="line"/>
      <point x="61" y="380" type="line"/>
      <point x="371" y="380" type="line"/>
      <point x="449" y="1040" type="line"/>
    </contour>
    <contour>
      <point x="61" y="380" type="line"/>
      <point x="29" y="126"/>
      <point x="149" y="-16"/>
      <point x="321" y="-16" type="curve" smooth="yes" name="hr01"/>
      <point x="509" y="-16"/>
      <point x="687" y="120"/>
      <point x="799" y="424" type="curve"/>
      <point x="697" y="572" type="line"/>
      <point x="663" y="374"/>
      <point x="539" y="240"/>
      <point x="441" y="240" type="curve" smooth="yes"/>
      <point x="381" y="240"/>
      <point x="357" y="272"/>
      <point x="371" y="380" type="curve"/>
    </contour>
  </outline>
  <guideline angle="82.9991" x="549" y="0"/>
</glyph>
<glyph name="v" format="2">
  <advance width="1007"/>
  <unicode hex="0076"/>
  <guideline x="516" y="0" angle="82.9991"/>
  <anchor x="666" y="222" name="hook"/>
  <anchor x="561" y="1120" name="top"/>
  <anchor x="424" y="-70" name="bottom"/>
  <outline>
    <contour>
      <point x="299" y="0" type="line"/>
      <point x="477" y="0" type="line"/>
      <point x="477" y="188"/>
      <point x="473" y="356"/>
      <point x="445" y="540" type="curve" smooth="yes"/>
      <point x="377" y="984" type="line"/>
      <point x="371" y="1016"/>
      <point x="345" y="1040"/>
      <point x="303" y="1040" type="curve" smooth="yes"/>
      <point x="47" y="1040" type="line"/>
    </contour>
    <contour>
      <point x="1065" y="1040" type="line"/>
      <point x="819" y="1040" type="line" smooth="yes"/>
      <point x="783" y="1040"/>
      <point x="751" y="1016"/>
      <point x="737" y="984" type="curve"/>
      <point x="555" y="540" type="line"/>
      <point x="479" y="352"/>
      <point x="433" y="188"/>
      <point x="391" y="0" type="curve"/>
      <point x="561" y="0" type="line"/>
    </contour>
  </outline>
</glyph>
<glyph name="w" format="2">
  <advance width="1503"/>
  <unicode hex="0077"/>
  <anchor x="799" y="1120" name="top"/>
  <anchor x="667" y="-70" name="bottom"/>
  <outline>
    <contour>
      <point x="221" y="0" type="line"/>
      <point x="453" y="0" type="line" smooth="yes"/>
      <point x="483" y="0"/>
      <point x="505" y="18"/>
      <point x="519" y="54" type="curve" smooth="yes"/>
      <point x="717" y="550" type="line" smooth="yes"/>
      <point x="767" y="676"/>
      <point x="799" y="802"/>
      <point x="823" y="928" type="curve"/>
      <point x="747" y="928" type="line"/>
      <point x="743" y="802"/>
      <point x="743" y="678"/>
      <point x="761" y="552" type="curve"/>
      <point x="837" y="54" type="line" smooth="yes"/>
      <point x="843" y="16"/>
      <point x="859" y="0"/>
      <point x="883" y="0" type="curve" smooth="yes"/>
      <point x="1125" y="0" type="line"/>
      <point x="1547" y="1040" type="line"/>
      <point x="1319" y="1040" type="line" smooth="yes"/>
      <point x="1283" y="1040"/>
      <point x="1249" y="1016"/>
      <point x="1239" y="984" type="curve" smooth="yes"/>
      <point x="1093" y="540" type="line" smooth="yes"/>
      <point x="1029" y="348"/>
      <point x="989" y="188"/>
      <point x="955" y="0" type="curve"/>
      <point x="1037" y="0" type="line"/>
      <point x="1049" y="188"/>
      <point x="1031" y="354"/>
      <point x="1005" y="540" type="curve"/>
      <point x="945" y="984" type="line" smooth="yes"/>
      <point x="941" y="1016"/>
      <point x="913" y="1040"/>
      <point x="871" y="1040" type="curve" smooth="yes"/>
      <point x="737" y="1040" type="line" smooth="yes"/>
      <point x="701" y="1040"/>
      <point x="667" y="1016"/>
      <point x="655" y="984" type="curve" smooth="yes"/>
      <point x="481" y="540" type="line" smooth="yes"/>
      <point x="407" y="352"/>
      <point x="345" y="188"/>
      <point x="303" y="0" type="curve"/>
      <point x="397" y="0" type="line"/>
      <point x="407" y="188"/>
      <point x="405" y="352"/>
      <point x="393" y="540" type="curve" smooth="yes"/>
      <point x="363" y="984" type="line"/>
      <point x="357" y="1016"/>
      <point x="329" y="1040"/>
      <point x="289" y="1040" type="curve" smooth="yes"/>
      <point x="51" y="1040" type="line"/>
    </contour>
  </outline>
  <guideline angle="82.9991" x="755" y="0"/>
</glyph>
<glyph name="y" format="2">
  <advance width="1006"/>
  <unicode hex="0079"/>
  <guideline x="516" y="0" angle="82.9991"/>
  <anchor x="571" y="1120" name="top"/>
  <anchor x="698" y="-70" name="bottom"/>
  <outline>
    <contour>
      <point x="330" y="0" type="line"/>
      <point x="490" y="0" type="line"/>
      <point x="500" y="190"/>
      <point x="510" y="380"/>
      <point x="472" y="558" type="curve" smooth="yes"/>
      <point x="382" y="984" type="line"/>
      <point x="374" y="1014"/>
      <point x="354" y="1040"/>
      <point x="310" y="1040" type="curve" smooth="yes"/>
      <point x="48" y="1040" type="line"/>
    </contour>
    <contour>
      <point x="1068" y="1040" type="line"/>
      <point x="818" y="1040" type="line" smooth="yes"/>
      <point x="786" y="1040"/>
      <point x="752" y="1016"/>
      <point x="736" y="984" type="curve"/>
      <point x="544" y="560" type="line" smooth="yes"/>
      <point x="498" y="458"/>
      <point x="452" y="354"/>
      <point x="428" y="250" type="curve"/>
      <point x="356" y="192" type="line"/>
      <point x="68" y="-328" type="line"/>
      <point x="300" y="-328" type="line" smooth="yes"/>
      <point x="344" y="-328"/>
      <point x="374" y="-308"/>
      <point x="396" y="-266" type="curve" smooth="yes"/>
    </contour>
  </outline>
</glyph>
<glyph name="z" format="2">
  <advance width="882"/>
  <unicode hex="007A"/>
  <guideline x="446" y="0" angle="82.9991"/>
  <anchor x="513" y="1120" name="top"/>
  <anchor x="342" y="-70" name="bottom"/>
  <anchor x="677" y="222" name="hook"/>
  <outline>
    <contour>
      <point x="879" y="1040" type="line"/>
      <point x="121" y="1040" type="line"/>
      <point x="93" y="800" type="line"/>
      <point x="577" y="800" type="line"/>
      <point x="507" y="826" type="line"/>
      <point x="35" y="238" type="line" smooth="yes"/>
      <point x="7" y="204"/>
      <point x="-13" y="158"/>
      <point x="-15" y="132" type="curve"/>
      <point x="-31" y="0" type="line"/>
      <point x="745" y="0" type="line"/>
      <point x="773" y="240" type="line"/>
      <point x="267" y="240" type="line"/>
      <point x="341" y="208" type="line"/>
      <point x="813" y="794" type="line" smooth="yes"/>
      <point x="836" y="823"/>
      <point x="859" y="866"/>
      <point x="863" y="910" type="curve"/>
    </contour>
  </outline>
</glyph>
<glyph name="braceleft" format="2">
  <advance width="591"/>
  <unicode hex="007B"/>
  <outline>
    <contour>
      <point x="180" y="960" type="curve" smooth="yes"/>
      <point x="180" y="788"/>
      <point x="160" y="704"/>
      <point x="62" y="704" type="curve"/>
      <point x="40" y="530" type="line"/>
      <point x="170" y="604" type="line"/>
      <point x="320" y="604"/>
      <point x="410" y="716"/>
      <point x="426" y="840" type="curve"/>
      <point x="440" y="960"/>
      <point x="430" y="1070"/>
      <point x="448" y="1218" type="curve"/>
      <point x="460" y="1308"/>
      <point x="498" y="1364"/>
      <point x="574" y="1364" type="curve"/>
      <point x="572" y="1364" type="line"/>
      <point x="592" y="1364"/>
      <point x="636" y="1380"/>
      <point x="640" y="1422" type="curve"/>
      <point x="656" y="1558" type="line"/>
      <point x="610" y="1558" type="line" smooth="yes"/>
      <point x="308" y="1558"/>
      <point x="178" y="1388"/>
      <point x="178" y="1080" type="curve" smooth="yes"/>
      <point x="178" y="1052"/>
      <point x="180" y="986"/>
    </contour>
    <contour>
      <point x="122" y="430" type="curve"/>
      <point x="122" y="284"/>
      <point x="38" y="148"/>
      <point x="38" y="-22" type="curve" smooth="yes"/>
      <point x="38" y="-202"/>
      <point x="140" y="-324"/>
      <point x="378" y="-324" type="curve" smooth="yes"/>
      <point x="426" y="-324" type="line"/>
      <point x="442" y="-190" type="line"/>
      <point x="448" y="-148"/>
      <point x="410" y="-130"/>
      <point x="388" y="-130" type="curve"/>
      <point x="390" y="-130" type="line"/>
      <point x="326" y="-130"/>
      <point x="298" y="-84"/>
      <point x="298" y="-16" type="curve" smooth="yes"/>
      <point x="298" y="140"/>
      <point x="372" y="272"/>
      <point x="372" y="424" type="curve" smooth="yes"/>
      <point x="372" y="530"/>
      <point x="308" y="628"/>
      <point x="174" y="628" type="curve"/>
      <point x="62" y="704" type="line"/>
      <point x="40" y="530" type="line"/>
      <point x="100" y="530"/>
      <point x="122" y="488"/>
    </contour>
  </outline>
  <guideline angle="0" x="0" y="631"/>
  <guideline angle="82.9991" x="276" y="0"/>
</glyph>
<glyph name="bar" format="2">
  <advance width="559"/>
  <unicode hex="007C"/>
  <guideline x="300" y="0" angle="82.9991"/>
  <outline>
    <contour>
      <point x="159" y="-328" type="line"/>
      <point x="399" y="-328" type="line"/>
      <point x="399" y="1560" type="line"/>
      <point x="159" y="1560" type="line"/>
    </contour>
  </outline>
</glyph>
<glyph name="braceright" format="2">
  <advance width="590"/>
  <unicode hex="007D"/>
  <guideline y="631"/>
  <guideline x="276" y="0" angle="82.9991"/>
  <outline>
    <contour>
      <point x="469" y="804" type="curve"/>
      <point x="469" y="948"/>
      <point x="551" y="1086"/>
      <point x="551" y="1254" type="curve" smooth="yes"/>
      <point x="551" y="1436"/>
      <point x="449" y="1558"/>
      <point x="213" y="1558" type="curve" smooth="yes"/>
      <point x="165" y="1558" type="line"/>
      <point x="149" y="1422" type="line"/>
      <point x="143" y="1380"/>
      <point x="181" y="1364"/>
      <point x="203" y="1364" type="curve"/>
      <point x="201" y="1364" type="line"/>
      <point x="265" y="1364"/>
      <point x="293" y="1318"/>
      <point x="293" y="1250" type="curve" smooth="yes"/>
      <point x="293" y="1094"/>
      <point x="217" y="960"/>
      <point x="217" y="810" type="curve" smooth="yes"/>
      <point x="217" y="702"/>
      <point x="281" y="604"/>
      <point x="417" y="604" type="curve"/>
      <point x="529" y="530" type="line"/>
      <point x="549" y="704" type="line"/>
      <point x="489" y="704"/>
      <point x="469" y="746"/>
    </contour>
    <contour>
      <point x="411" y="272" type="curve"/>
      <point x="411" y="446"/>
      <point x="431" y="530"/>
      <point x="529" y="530" type="curve"/>
      <point x="549" y="704" type="line"/>
      <point x="419" y="628" type="line"/>
      <point x="271" y="628"/>
      <point x="179" y="516"/>
      <point x="165" y="392" type="curve" smooth="yes"/>
      <point x="151" y="274"/>
      <point x="161" y="162"/>
      <point x="143" y="16" type="curve" smooth="yes"/>
      <point x="131" y="-74"/>
      <point x="93" y="-130"/>
      <point x="17" y="-130" type="curve"/>
      <point x="19" y="-130" type="line"/>
      <point x="-3" y="-130"/>
      <point x="-45" y="-148"/>
      <point x="-49" y="-190" type="curve"/>
      <point x="-67" y="-324" type="line"/>
      <point x="-19" y="-324" type="line" smooth="yes"/>
      <point x="281" y="-324"/>
      <point x="411" y="-154"/>
      <point x="411" y="154" type="curve" smooth="yes"/>
      <point x="411" y="182"/>
      <point x="411" y="248"/>
    </contour>
  </outline>
</glyph>
<glyph name="asciitilde" format="2">
  <advance width="1160"/>
  <unicode hex="007E"/>
  <outline>
    <contour>
      <point x="728" y="684" type="curve"/>
      <point x="656" y="684"/>
      <point x="550" y="756"/>
      <point x="408" y="756" type="curve"/>
      <point x="200" y="756"/>
      <point x="78" y="614"/>
      <point x="78" y="382" type="curve"/>
      <point x="328" y="382" type="line"/>
      <point x="328" y="460"/>
      <point x="364" y="500"/>
      <point x="428" y="500" type="curve" smooth="yes"/>
      <point x="500" y="500"/>
      <point x="606" y="428"/>
      <point x="748" y="428" type="curve"/>
      <point x="956" y="428"/>
      <point x="1078" y="570"/>
      <point x="1078" y="802" type="curve"/>
      <point x="828" y="802" type="line"/>
      <point x="828" y="724"/>
      <point x="792" y="684"/>
    </contour>
  </outline>
  <guideline angle="82.9991" x="580" y="0"/>
</glyph>
<glyph name="exclamdown" format="2">
  <advance width="531"/>
  <unicode hex="00A1"/>
  <outline>
    <contour>
      <point x="10" y="-330" type="line"/>
      <point x="76" y="198" type="line"/>
      <point x="90" y="320"/>
      <point x="122" y="442"/>
      <point x="160" y="566" type="curve"/>
      <point x="364" y="566" type="line"/>
      <point x="372" y="442"/>
      <point x="372" y="320"/>
      <point x="356" y="198" type="curve"/>
      <point x="292" y="-330" type="line"/>
    </contour>
    <contour>
      <point x="122" y="880" type="curve" smooth="yes"/>
      <point x="122" y="780"/>
      <point x="198" y="704"/>
      <point x="298" y="704" type="curve" smooth="yes"/>
      <point x="396" y="704"/>
      <point x="474" y="780"/>
      <point x="474" y="880" type="curve" smooth="yes"/>
      <point x="474" y="978"/>
      <point x="396" y="1056"/>
      <point x="298" y="1056" type="curve" smooth="yes"/>
      <point x="198" y="1056"/>
      <point x="122" y="978"/>
    </contour>
  </outline>
  <guideline angle="90" x="349" y="0"/>
  <guideline angle="82.9991" x="100" y="0"/>
</glyph>
<glyph name="cent" format="2">
  <advance width="1160"/>
  <unicode hex="00A2"/>
  <guideline x="580" y="0" angle="82.9991"/>
  <outline>
    <contour>
      <point x="1088" y="900" type="line"/>
      <point x="998" y="998"/>
      <point x="876" y="1052"/>
      <point x="706" y="1052" type="curve" smooth="yes"/>
      <point x="314" y="1052"/>
      <point x="84" y="786"/>
      <point x="84" y="448" type="curve" smooth="yes"/>
      <point x="84" y="158"/>
      <point x="280" y="-16"/>
      <point x="534" y="-16" type="curve" smooth="yes"/>
      <point x="692" y="-16"/>
      <point x="866" y="18"/>
      <point x="1008" y="160" type="curve"/>
      <point x="938" y="268" type="line" smooth="yes"/>
      <point x="928" y="284"/>
      <point x="910" y="292"/>
      <point x="886" y="292" type="curve" smooth="yes"/>
      <point x="818" y="292"/>
      <point x="776" y="210"/>
      <point x="606" y="210" type="curve" smooth="yes"/>
      <point x="460" y="210"/>
      <point x="378" y="302"/>
      <point x="378" y="462" type="curve" smooth="yes"/>
      <point x="378" y="684"/>
      <point x="470" y="826"/>
      <point x="688" y="826" type="curve" smooth="yes"/>
      <point x="834" y="826"/>
      <point x="878" y="760"/>
      <point x="934" y="760" type="curve" smooth="yes"/>
      <point x="964" y="760"/>
      <point x="980" y="770"/>
      <point x="998" y="794" type="curve"/>
    </contour>
    <contour>
      <point x="390" y="-210" type="line"/>
      <point x="500" y="-210" type="line" smooth="yes"/>
      <point x="544" y="-210"/>
      <point x="580" y="-174"/>
      <point x="588" y="-136" type="curve" smooth="yes"/>
      <point x="898" y="1264" type="line"/>
      <point x="788" y="1264" type="line" smooth="yes"/>
      <point x="744" y="1264"/>
      <point x="708" y="1226"/>
      <point x="700" y="1190" type="curve" smooth="yes"/>
    </contour>
  </outline>
</glyph>
<glyph name="sterling" format="2">
  <advance width="1160"/>
  <unicode hex="00A3"/>
  <guideline x="580" y="0" angle="82.9991"/>
  <outline>
    <contour>
      <point x="1086" y="256" type="line"/>
      <point x="568" y="256" type="line" smooth="yes"/>
      <point x="430" y="256"/>
      <point x="290" y="212"/>
      <point x="154" y="158" type="curve"/>
      <point x="-4" y="188" type="line"/>
      <point x="-28" y="0" type="line"/>
      <point x="928" y="0" type="line" smooth="yes"/>
      <point x="1004" y="0"/>
      <point x="1062" y="70"/>
      <point x="1070" y="130" type="curve" smooth="yes"/>
    </contour>
    <contour>
      <point x="913" y="662" type="curve"/>
      <point x="927" y="784" type="line"/>
      <point x="133" y="784" type="line"/>
      <point x="85" y="784"/>
      <point x="48" y="746"/>
      <point x="43" y="710" type="curve" smooth="yes"/>
      <point x="28" y="588" type="line"/>
      <point x="823" y="588" type="line"/>
      <point x="871" y="588"/>
      <point x="909" y="626"/>
    </contour>
    <contour>
      <point x="248" y="122" type="line"/>
      <point x="382" y="210"/>
      <point x="445" y="296"/>
      <point x="462" y="434" type="curve" smooth="yes"/>
      <point x="530" y="1002" type="line" smooth="yes"/>
      <point x="547" y="1142"/>
      <point x="632" y="1220"/>
      <point x="746" y="1220" type="curve" smooth="yes"/>
      <point x="830" y="1220"/>
      <point x="858" y="1200"/>
      <point x="906" y="1142" type="curve" smooth="yes"/>
      <point x="944" y="1096"/>
      <point x="996" y="1096"/>
      <point x="1052" y="1124" type="curve"/>
      <point x="1182" y="1204" type="line"/>
      <point x="1124" y="1362"/>
      <point x="1010" y="1474"/>
      <point x="776" y="1474" type="curve" smooth="yes"/>
      <point x="456" y="1474"/>
      <point x="256" y="1254"/>
      <point x="224" y="1000" type="curve" smooth="yes"/>
      <point x="144" y="350" type="line" smooth="yes"/>
      <point x="132" y="252"/>
      <point x="86" y="204"/>
      <point x="-4" y="188" type="curve"/>
    </contour>
  </outline>
</glyph>
<glyph name="currency" format="2">
  <advance width="1160"/>
  <unicode hex="00A4"/>
  <guideline x="580" y="0" angle="82.9991"/>
  <outline>
    <contour>
      <point x="206" y="674" type="curve" smooth="yes"/>
      <point x="206" y="462"/>
      <point x="374" y="294"/>
      <point x="586" y="294" type="curve" smooth="yes"/>
      <point x="796" y="294"/>
      <point x="966" y="462"/>
      <point x="966" y="674" type="curve" smooth="yes"/>
      <point x="966" y="886"/>
      <point x="796" y="1054"/>
      <point x="586" y="1054" type="curve" smooth="yes"/>
      <point x="374" y="1054"/>
      <point x="206" y="886"/>
    </contour>
    <contour>
      <point x="434" y="674" type="curve"/>
      <point x="434" y="760"/>
      <point x="502" y="828"/>
      <point x="586" y="828" type="curve" smooth="yes"/>
      <point x="672" y="828"/>
      <point x="740" y="760"/>
      <point x="740" y="674" type="curve" smooth="yes"/>
      <point x="740" y="592"/>
      <point x="672" y="522"/>
      <point x="586" y="522" type="curve" smooth="yes"/>
      <point x="502" y="522"/>
      <point x="434" y="592"/>
    </contour>
    <contour>
      <point x="322" y="778" type="line"/>
      <point x="478" y="932" type="line"/>
      <point x="252" y="1158" type="line"/>
      <point x="96" y="1004" type="line"/>
    </contour>
    <contour>
      <point x="690" y="938" type="line"/>
      <point x="844" y="782" type="line"/>
      <point x="1070" y="1008" type="line"/>
      <point x="916" y="1164" type="line"/>
    </contour>
    <contour>
      <point x="484" y="410" type="line"/>
      <point x="328" y="566" type="line"/>
      <point x="102" y="340" type="line"/>
      <point x="256" y="184" type="line"/>
    </contour>
    <contour>
      <point x="850" y="572" type="line"/>
      <point x="694" y="416" type="line"/>
      <point x="920" y="190" type="line"/>
      <point x="1076" y="346" type="line"/>
    </contour>
  </outline>
</glyph>
<glyph name="yen" format="2">
  <advance width="1160"/>
  <unicode hex="00A5"/>
  <outline>
    <contour>
      <point x="1271" y="1458" type="line"/>
      <point x="1019" y="1458" type="line" smooth="yes"/>
      <point x="965" y="1458"/>
      <point x="925" y="1422"/>
      <point x="905" y="1384" type="curve" smooth="yes"/>
      <point x="679" y="960" type="line"/>
      <point x="595" y="800"/>
      <point x="569" y="694"/>
      <point x="543" y="526" type="curve"/>
      <point x="711" y="526" type="line"/>
    </contour>
    <contour>
      <point x="417" y="526" type="line"/>
      <point x="595" y="526" type="line"/>
      <point x="611" y="696"/>
      <point x="605" y="798"/>
      <point x="559" y="960" type="curve"/>
      <point x="435" y="1384" type="line"/>
      <point x="423" y="1428"/>
      <point x="391" y="1458"/>
      <point x="337" y="1458" type="curve" smooth="yes"/>
      <point x="87" y="1458" type="line"/>
    </contour>
    <contour>
      <point x="725" y="610" type="line"/>
      <point x="425" y="610" type="line"/>
      <point x="351" y="0" type="line"/>
      <point x="649" y="0" type="line"/>
    </contour>
    <contour>
      <point x="73" y="220" type="line"/>
      <point x="979" y="220" type="line"/>
      <point x="999" y="386" type="line"/>
      <point x="95" y="386" type="line"/>
    </contour>
    <contour>
      <point x="105" y="472" type="line"/>
      <point x="1011" y="472" type="line"/>
      <point x="1031" y="638" type="line"/>
      <point x="125" y="638" type="line"/>
    </contour>
  </outline>
  <guideline angle="82.9991" x="580" y="0"/>
</glyph>
<glyph name="brokenbar" format="2">
  <advance width="557"/>
  <unicode hex="00A6"/>
  <guideline x="300" y="0" angle="82.9991"/>
  <outline>
    <contour>
      <point x="158" y="738" type="line"/>
      <point x="398" y="738" type="line"/>
      <point x="398" y="1560" type="line"/>
      <point x="158" y="1560" type="line"/>
    </contour>
    <contour>
      <point x="158" y="-328" type="line"/>
      <point x="398" y="-328" type="line"/>
      <point x="398" y="494" type="line"/>
      <point x="158" y="494" type="line"/>
    </contour>
  </outline>
</glyph>
<glyph name="section" format="2">
  <advance width="957"/>
  <unicode hex="00A7"/>
  <guideline x="467" y="0" angle="82.9991"/>
  <outline>
    <contour>
      <point x="503" y="966" type="line"/>
      <point x="225" y="964"/>
      <point x="79" y="828"/>
      <point x="79" y="638" type="curve" smooth="yes"/>
      <point x="79" y="324"/>
      <point x="519" y="372"/>
      <point x="519" y="198" type="curve" smooth="yes"/>
      <point x="519" y="130"/>
      <point x="469" y="94"/>
      <point x="387" y="94" type="curve" smooth="yes"/>
      <point x="253" y="94"/>
      <point x="237" y="168"/>
      <point x="169" y="168" type="curve" smooth="yes"/>
      <point x="131" y="168"/>
      <point x="107" y="154"/>
      <point x="89" y="126" type="curve"/>
      <point x="5" y="10" type="line"/>
      <point x="69" y="-62"/>
      <point x="205" y="-116"/>
      <point x="335" y="-116" type="curve" smooth="yes"/>
      <point x="625" y="-116"/>
      <point x="787" y="50"/>
      <point x="787" y="270" type="curve" smooth="yes"/>
      <point x="787" y="564"/>
      <point x="351" y="550"/>
      <point x="351" y="714" type="curve" smooth="yes"/>
      <point x="351" y="774"/>
      <point x="385" y="812"/>
      <point x="479" y="846" type="curve"/>
    </contour>
    <contour>
      <point x="933" y="1338" type="line"/>
      <point x="873" y="1414"/>
      <point x="757" y="1472"/>
      <point x="617" y="1472" type="curve" smooth="yes"/>
      <point x="337" y="1472"/>
      <point x="191" y="1300"/>
      <point x="191" y="1102" type="curve" smooth="yes"/>
      <point x="191" y="774"/>
      <point x="629" y="804"/>
      <point x="629" y="636" type="curve" smooth="yes"/>
      <point x="629" y="574"/>
      <point x="589" y="522"/>
      <point x="483" y="504" type="curve"/>
      <point x="445" y="380" type="line"/>
      <point x="773" y="382"/>
      <point x="899" y="542"/>
      <point x="899" y="724" type="curve" smooth="yes"/>
      <point x="899" y="1006"/>
      <point x="459" y="1022"/>
      <point x="459" y="1150" type="curve" smooth="yes"/>
      <point x="459" y="1206"/>
      <point x="503" y="1252"/>
      <point x="595" y="1252" type="curve" smooth="yes"/>
      <point x="693" y="1252"/>
      <point x="735" y="1192"/>
      <point x="791" y="1192" type="curve" smooth="yes"/>
      <point x="817" y="1192"/>
      <point x="835" y="1202"/>
      <point x="853" y="1228" type="curve" smooth="yes"/>
    </contour>
  </outline>
</glyph>
<glyph name="copyright" format="2">
  <advance width="1638"/>
  <unicode hex="00A9"/>
  <guideline x="755" y="0" angle="82.9991"/>
  <outline>
    <contour>
      <point x="1032" y="550" type="curve" smooth="yes"/>
      <point x="980" y="550"/>
      <point x="974" y="496"/>
      <point x="848" y="496" type="curve" smooth="yes"/>
      <point x="742" y="496"/>
      <point x="666" y="578"/>
      <point x="666" y="734" type="curve" smooth="yes"/>
      <point x="666" y="880"/>
      <point x="736" y="972"/>
      <point x="870" y="972" type="curve" smooth="yes"/>
      <point x="988" y="972"/>
      <point x="998" y="916"/>
      <point x="1052" y="916" type="curve" smooth="yes"/>
      <point x="1078" y="916"/>
      <point x="1094" y="934"/>
      <point x="1104" y="946" type="curve"/>
      <point x="1186" y="1060" type="line"/>
      <point x="1118" y="1140"/>
      <point x="1006" y="1202"/>
      <point x="854" y="1202" type="curve" smooth="yes"/>
      <point x="596" y="1202"/>
      <point x="392" y="1006"/>
      <point x="392" y="734" type="curve" smooth="yes"/>
      <point x="392" y="474"/>
      <point x="562" y="264"/>
      <point x="832" y="264" type="curve" smooth="yes"/>
      <point x="984" y="264"/>
      <point x="1104" y="316"/>
      <point x="1176" y="418" type="curve"/>
      <point x="1074" y="528" type="line"/>
      <point x="1064" y="540"/>
      <point x="1048" y="550"/>
    </contour>
    <contour>
      <point x="88" y="730" type="curve" smooth="yes"/>
      <point x="88" y="320"/>
      <point x="422" y="-14"/>
      <point x="832" y="-14" type="curve" smooth="yes"/>
      <point x="1244" y="-14"/>
      <point x="1578" y="320"/>
      <point x="1578" y="730" type="curve" smooth="yes"/>
      <point x="1578" y="1142"/>
      <point x="1244" y="1476"/>
      <point x="832" y="1476" type="curve" smooth="yes"/>
      <point x="422" y="1476"/>
      <point x="88" y="1142"/>
    </contour>
    <contour>
      <point x="254" y="730" type="curve" smooth="yes"/>
      <point x="254" y="1068"/>
      <point x="506" y="1334"/>
      <point x="832" y="1334" type="curve" smooth="yes"/>
      <point x="1160" y="1334"/>
      <point x="1416" y="1068"/>
      <point x="1416" y="730" type="curve" smooth="yes"/>
      <point x="1416" y="394"/>
      <point x="1160" y="132"/>
      <point x="832" y="132" type="curve" smooth="yes"/>
      <point x="506" y="132"/>
      <point x="254" y="394"/>
    </contour>
  </outline>
</glyph>
<glyph name="ordfeminine" format="2">
  <advance width="688"/>
  <unicode hex="00AA"/>
  <guideline x="326" y="0" angle="82.9991"/>
  <anchor x="322" y="-70" name="bottom"/>
  <outline>
    <contour>
      <point x="461" y="1480" type="curve" smooth="yes"/>
      <point x="359" y="1480"/>
      <point x="263" y="1450"/>
      <point x="181" y="1380" type="curve"/>
      <point x="211" y="1310" type="line"/>
      <point x="221" y="1290"/>
      <point x="237" y="1270"/>
      <point x="267" y="1270" type="curve" smooth="yes"/>
      <point x="329" y="1270"/>
      <point x="341" y="1308"/>
      <point x="413" y="1308" type="curve" smooth="yes"/>
      <point x="463" y="1308"/>
      <point x="465" y="1266"/>
      <point x="465" y="1230" type="curve"/>
      <point x="673" y="1230" type="line"/>
      <point x="687" y="1366"/>
      <point x="597" y="1480"/>
    </contour>
    <contour>
      <point x="625" y="842" type="line"/>
      <point x="673" y="1230" type="line"/>
      <point x="465" y="1230" type="line"/>
      <point x="435" y="972" type="line"/>
      <point x="459" y="884" type="line"/>
      <point x="473" y="850"/>
      <point x="487" y="842"/>
      <point x="525" y="842" type="curve" smooth="yes"/>
    </contour>
    <contour>
      <point x="479" y="932" type="curve"/>
      <point x="471" y="1050" type="line"/>
      <point x="423" y="998"/>
      <point x="395" y="980"/>
      <point x="355" y="980" type="curve" smooth="yes"/>
      <point x="325" y="980"/>
      <point x="313" y="988"/>
      <point x="313" y="1010" type="curve" smooth="yes"/>
      <point x="313" y="1052"/>
      <point x="341" y="1084"/>
      <point x="479" y="1084" type="curve"/>
      <point x="465" y="1214" type="line"/>
      <point x="171" y="1206"/>
      <point x="107" y="1080"/>
      <point x="107" y="984" type="curve" smooth="yes"/>
      <point x="107" y="890"/>
      <point x="165" y="834"/>
      <point x="267" y="834" type="curve" smooth="yes"/>
      <point x="355" y="834"/>
      <point x="401" y="866"/>
    </contour>
  </outline>
</glyph>
<glyph name="logicalnot" format="2">
  <advance width="1160"/>
  <unicode hex="00AC"/>
  <outline>
    <contour>
      <point x="116" y="560" type="line"/>
      <point x="1020" y="560" type="line"/>
      <point x="1048" y="784" type="line"/>
      <point x="142" y="784" type="line"/>
    </contour>
    <contour>
      <point x="734" y="282" type="line"/>
      <point x="986" y="282" type="line"/>
      <point x="1048" y="784" type="line"/>
      <point x="796" y="784" type="line"/>
    </contour>
  </outline>
  <guideline angle="82.9991" x="580" y="0"/>
</glyph>
<glyph name="registered" format="2">
  <advance width="1638"/>
  <unicode hex="00AE"/>
  <guideline x="755" y="0" angle="82.9991"/>
  <outline>
    <contour>
      <point x="782" y="578" type="line" smooth="yes"/>
      <point x="814" y="578"/>
      <point x="832" y="570"/>
      <point x="842" y="546" type="curve" smooth="yes"/>
      <point x="934" y="322" type="line"/>
      <point x="948" y="296"/>
      <point x="974" y="282"/>
      <point x="1010" y="282" type="curve" smooth="yes"/>
      <point x="1268" y="282" type="line"/>
      <point x="1130" y="562" type="line" smooth="yes"/>
      <point x="1092" y="640"/>
      <point x="1046" y="684"/>
      <point x="926" y="684" type="curve"/>
      <point x="812" y="628" type="line"/>
      <point x="854" y="628" type="line" smooth="yes"/>
      <point x="1112" y="628"/>
      <point x="1216" y="752"/>
      <point x="1216" y="914" type="curve" smooth="yes"/>
      <point x="1216" y="1086"/>
      <point x="1102" y="1184"/>
      <point x="834" y="1184" type="curve" smooth="yes"/>
      <point x="482" y="1184" type="line"/>
      <point x="482" y="282" type="line"/>
      <point x="750" y="282" type="line"/>
      <point x="750" y="980" type="line"/>
      <point x="834" y="980" type="line" smooth="yes"/>
      <point x="942" y="980"/>
      <point x="952" y="944"/>
      <point x="952" y="878" type="curve" smooth="yes"/>
      <point x="952" y="808"/>
      <point x="942" y="770"/>
      <point x="814" y="770" type="curve" smooth="yes"/>
      <point x="680" y="770" type="line"/>
      <point x="672" y="578" type="line"/>
    </contour>
    <contour>
      <point x="88" y="730" type="curve" smooth="yes"/>
      <point x="88" y="320"/>
      <point x="422" y="-14"/>
      <point x="832" y="-14" type="curve" smooth="yes"/>
      <point x="1244" y="-14"/>
      <point x="1578" y="320"/>
      <point x="1578" y="730" type="curve" smooth="yes"/>
      <point x="1578" y="1142"/>
      <point x="1244" y="1476"/>
      <point x="832" y="1476" type="curve" smooth="yes"/>
      <point x="422" y="1476"/>
      <point x="88" y="1142"/>
    </contour>
    <contour>
      <point x="254" y="730" type="curve" smooth="yes"/>
      <point x="254" y="1068"/>
      <point x="506" y="1334"/>
      <point x="832" y="1334" type="curve" smooth="yes"/>
      <point x="1160" y="1334"/>
      <point x="1416" y="1068"/>
      <point x="1416" y="730" type="curve" smooth="yes"/>
      <point x="1416" y="394"/>
      <point x="1160" y="132"/>
      <point x="832" y="132" type="curve" smooth="yes"/>
      <point x="506" y="132"/>
      <point x="254" y="394"/>
    </contour>
  </outline>
</glyph>
<glyph name="macron" format="2">
  <advance width="736"/>
  <unicode hex="00AF"/>
  <unicode hex="02C9"/>
  <guideline x="368" y="0" angle="82.9991"/>
  <anchor x="400" y="1120" name="_top"/>
  <outline>
    <contour>
      <point x="218" y="1198" type="line"/>
      <point x="788" y="1198" type="line"/>
      <point x="811" y="1396" type="line"/>
      <point x="240" y="1396" type="line"/>
    </contour>
  </outline>
</glyph>
<glyph name="degree" format="2">
  <advance width="830"/>
  <unicode hex="00B0"/>
  <outline>
    <contour>
      <point x="109" y="1118" type="curve" smooth="yes"/>
      <point x="109" y="924"/>
      <point x="267" y="760"/>
      <point x="473" y="760" type="curve" smooth="yes"/>
      <point x="679" y="760"/>
      <point x="839" y="924"/>
      <point x="839" y="1118" type="curve" smooth="yes"/>
      <point x="839" y="1318"/>
      <point x="679" y="1478"/>
      <point x="473" y="1478" type="curve" smooth="yes"/>
      <point x="267" y="1478"/>
      <point x="109" y="1318"/>
    </contour>
    <contour>
      <point x="323" y="1116" type="curve" smooth="yes"/>
      <point x="323" y="1204"/>
      <point x="385" y="1272"/>
      <point x="473" y="1272" type="curve" smooth="yes"/>
      <point x="561" y="1272"/>
      <point x="623" y="1204"/>
      <point x="623" y="1116" type="curve" smooth="yes"/>
      <point x="623" y="1030"/>
      <point x="561" y="964"/>
      <point x="473" y="964" type="curve" smooth="yes"/>
      <point x="385" y="964"/>
      <point x="323" y="1030"/>
    </contour>
  </outline>
  <guideline angle="82.9991" x="397" y="0"/>
</glyph>
<glyph name="plusminus" format="2">
  <advance width="1160"/>
  <unicode hex="00B1"/>
  <guideline x="580" y="0" angle="82.9991"/>
  <outline>
    <contour>
      <point x="101" y="714" type="line"/>
      <point x="1087" y="714" type="line"/>
      <point x="1115" y="938" type="line"/>
      <point x="127" y="938" type="line"/>
    </contour>
    <contour>
      <point x="541" y="1274" type="line"/>
      <point x="433" y="396" type="line"/>
      <point x="675" y="396" type="line"/>
      <point x="783" y="1274" type="line"/>
    </contour>
    <contour>
      <point x="23" y="80" type="line"/>
      <point x="1009" y="80" type="line"/>
      <point x="1037" y="304" type="line"/>
      <point x="49" y="304" type="line"/>
    </contour>
  </outline>
</glyph>
<glyph name="acute" format="2">
  <advance width="736"/>
  <unicode hex="00B4"/>
  <anchor x="400" y="1120" name="_top"/>
  <outline>
    <contour>
      <point x="623" y="1476" type="line" smooth="yes"/>
      <point x="566" y="1476"/>
      <point x="539" y="1454"/>
      <point x="514" y="1414" type="curve" smooth="yes"/>
      <point x="362" y="1168" type="line"/>
      <point x="533" y="1168" type="line" smooth="yes"/>
      <point x="575" y="1168"/>
      <point x="598" y="1180"/>
      <point x="629" y="1212" type="curve"/>
      <point x="899" y="1476" type="line"/>
    </contour>
  </outline>
  <guideline angle="82.9991" x="368" y="0"/>
</glyph>
<glyph name="micro" format="2">
  <advance width="1255"/>
  <unicode hex="00B5"/>
  <guideline x="577" y="0" angle="82.9991"/>
  <anchor x="646" y="1120" name="top"/>
  <anchor x="534" y="-421" name="bottom"/>
  <outline>
    <contour>
      <point x="199" y="1040" type="line"/>
      <point x="47" y="-198" type="line" smooth="yes"/>
      <point x="37" y="-282"/>
      <point x="81" y="-328"/>
      <point x="167" y="-328" type="curve" smooth="yes"/>
      <point x="321" y="-328" type="line"/>
      <point x="346" y="-126" type="line" smooth="yes"/>
      <point x="356" y="-42"/>
      <point x="358" y="72"/>
      <point x="320" y="136" type="curve"/>
      <point x="404" y="182" type="line"/>
      <point x="509" y="1040" type="line"/>
    </contour>
    <contour>
      <point x="255" y="440" type="line"/>
      <point x="223" y="180"/>
      <point x="287" y="24"/>
      <point x="477" y="24" type="curve" smooth="yes"/>
      <point x="608" y="24"/>
      <point x="705" y="130"/>
      <point x="795" y="307" type="curve"/>
      <point x="721" y="475" type="line"/>
      <point x="686" y="353"/>
      <point x="624" y="278"/>
      <point x="528" y="278" type="curve" smooth="yes"/>
      <point x="455" y="278"/>
      <point x="423" y="344"/>
      <point x="435" y="440" type="curve"/>
    </contour>
    <contour>
      <point x="687" y="343" type="line"/>
      <point x="716" y="332" type="line"/>
      <point x="689" y="98"/>
      <point x="794" y="-11"/>
      <point x="934" y="-11" type="curve" smooth="yes" name="hr01"/>
      <point x="1047" y="-11"/>
      <point x="1123" y="41"/>
      <point x="1130" y="94" type="curve" smooth="yes"/>
      <point x="1145" y="218" type="line"/>
      <point x="1062" y="218" type="line" smooth="yes"/>
      <point x="1011" y="218"/>
      <point x="987" y="255"/>
      <point x="996" y="331" type="curve" smooth="yes"/>
      <point x="1083" y="1040" type="line"/>
      <point x="773" y="1040" type="line"/>
    </contour>
  </outline>
</glyph>
<glyph name="paragraph" format="2">
  <advance width="1534"/>
  <unicode hex="00B6"/>
  <guideline x="729" y="0" angle="82.9991"/>
  <outline>
    <contour>
      <point x="893" y="1460" type="line"/>
      <point x="623" y="1460" type="line"/>
      <point x="417" y="-218" type="line"/>
      <point x="687" y="-218" type="line"/>
    </contour>
    <contour>
      <point x="623" y="1460" type="line"/>
      <point x="315" y="1460"/>
      <point x="103" y="1234"/>
      <point x="103" y="976" type="curve" smooth="yes"/>
      <point x="103" y="762"/>
      <point x="265" y="600"/>
      <point x="519" y="600" type="curve"/>
      <point x="649" y="1198" type="line"/>
      <point x="1537" y="1198" type="line"/>
      <point x="1569" y="1460" type="line"/>
    </contour>
    <contour>
      <point x="1359" y="1460" type="line"/>
      <point x="1089" y="1460" type="line"/>
      <point x="883" y="-218" type="line"/>
      <point x="1153" y="-218" type="line"/>
    </contour>
  </outline>
</glyph>
<glyph name="periodcentered" format="2">
  <advance width="581"/>
  <unicode hex="00B7"/>
  <unicode hex="2219"/>
  <outline>
    <contour>
      <point x="61" y="596" type="curve" smooth="yes"/>
      <point x="61" y="472"/>
      <point x="161" y="372"/>
      <point x="285" y="372" type="curve" smooth="yes"/>
      <point x="411" y="372"/>
      <point x="511" y="472"/>
      <point x="511" y="596" type="curve" smooth="yes"/>
      <point x="511" y="722"/>
      <point x="411" y="822"/>
      <point x="285" y="822" type="curve" smooth="yes"/>
      <point x="161" y="822"/>
      <point x="61" y="722"/>
    </contour>
  </outline>
  <guideline angle="82.9991" x="285" y="0"/>
</glyph>
<glyph name="cedilla" format="2">
  <advance width="736"/>
  <unicode hex="00B8"/>
  <anchor x="400" y="-70" name="_bottom"/>
  <outline>
    <contour>
      <point x="230" y="-216" type="curve" smooth="yes"/>
      <point x="210" y="-216"/>
      <point x="199" y="-226"/>
      <point x="193" y="-244" type="curve"/>
      <point x="153" y="-342" type="line"/>
      <point x="199" y="-352"/>
      <point x="238" y="-356"/>
      <point x="288" y="-356" type="curve" smooth="yes"/>
      <point x="450" y="-356"/>
      <point x="564" y="-291"/>
      <point x="564" y="-184" type="curve" smooth="yes"/>
      <point x="564" y="-116"/>
      <point x="518" y="-56"/>
      <point x="356" y="-32" type="curve"/>
      <point x="416" y="-92" type="line"/>
      <point x="467" y="46" type="line"/>
      <point x="295" y="46" type="line"/>
      <point x="210" y="-146" type="line"/>
      <point x="293" y="-159"/>
      <point x="322" y="-169"/>
      <point x="322" y="-193" type="curve" smooth="yes"/>
      <point x="322" y="-206"/>
      <point x="311" y="-222"/>
      <point x="281" y="-222" type="curve" smooth="yes"/>
      <point x="261" y="-222"/>
      <point x="249" y="-216"/>
    </contour>
  </outline>
  <guideline angle="82.9991" x="368" y="0"/>
</glyph>
<glyph name="ordmasculine" format="2">
  <advance width="748"/>
  <unicode hex="00BA"/>
  <guideline x="364" y="0" angle="82.9991"/>
  <anchor x="352" y="-70" name="bottom"/>
  <outline>
    <contour>
      <point x="479" y="1478" type="curve" smooth="yes"/>
      <point x="275" y="1478"/>
      <point x="115" y="1338"/>
      <point x="115" y="1112" type="curve" smooth="yes"/>
      <point x="115" y="938"/>
      <point x="229" y="830"/>
      <point x="401" y="830" type="curve" smooth="yes"/>
      <point x="605" y="830"/>
      <point x="761" y="972"/>
      <point x="761" y="1200" type="curve" smooth="yes"/>
      <point x="761" y="1370"/>
      <point x="649" y="1478"/>
    </contour>
    <contour>
      <point x="423" y="1006" type="curve" smooth="yes"/>
      <point x="371" y="1006"/>
      <point x="347" y="1038"/>
      <point x="347" y="1108" type="curve" smooth="yes"/>
      <point x="347" y="1224"/>
      <point x="361" y="1302"/>
      <point x="459" y="1302" type="curve" smooth="yes"/>
      <point x="505" y="1302"/>
      <point x="529" y="1270"/>
      <point x="529" y="1200" type="curve" smooth="yes"/>
      <point x="529" y="1074"/>
      <point x="501" y="1006"/>
    </contour>
  </outline>
</glyph>
<glyph name="questiondown" format="2">
  <advance width="866"/>
  <unicode hex="00BF"/>
  <outline>
    <component base="period" xOffset="331" yOffset="718"/>
    <contour>
      <point x="652" y="-68" type="line"/>
      <point x="642" y="-44"/>
      <point x="622" y="-32"/>
      <point x="596" y="-32" type="curve"/>
      <point x="548" y="-32"/>
      <point x="502" y="-102"/>
      <point x="376" y="-102" type="curve" smooth="yes"/>
      <point x="322" y="-102"/>
      <point x="278" y="-66"/>
      <point x="278" y="12" type="curve" smooth="yes"/>
      <point x="278" y="176"/>
      <point x="566" y="214"/>
      <point x="566" y="404" type="curve" smooth="yes"/>
      <point x="566" y="566" type="line"/>
      <point x="362" y="566" type="line"/>
      <point x="318" y="426" type="line"/>
      <point x="274" y="292"/>
      <point x="-20" y="274"/>
      <point x="-20" y="-44" type="curve" smooth="yes"/>
      <point x="-20" y="-230"/>
      <point x="106" y="-346"/>
      <point x="320" y="-346" type="curve" smooth="yes"/>
      <point x="486" y="-346"/>
      <point x="612" y="-278"/>
      <point x="716" y="-196" type="curve"/>
    </contour>
  </outline>
  <guideline angle="82.9991" x="410" y="0"/>
</glyph>
<glyph name="AE" format="2">
  <advance width="1751"/>
  <unicode hex="00C6"/>
  <guideline x="858" y="0" angle="82.9991"/>
  <anchor x="1268" y="1525" name="Top"/>
  <anchor x="1268" y="1525" name="top"/>
  <anchor x="782" y="-70" name="bottom"/>
  <outline>
    <contour>
      <point x="-89" y="0" type="line"/>
      <point x="165" y="0" type="line" smooth="yes"/>
      <point x="219" y="0"/>
      <point x="265" y="36"/>
      <point x="287" y="74" type="curve"/>
      <point x="761" y="1004" type="line"/>
      <point x="825" y="1116"/>
      <point x="881" y="1272"/>
      <point x="937" y="1460" type="curve"/>
      <point x="729" y="1460" type="line"/>
    </contour>
    <contour>
      <point x="263" y="326" type="line"/>
      <point x="1081" y="326" type="line"/>
      <point x="1109" y="558" type="line"/>
      <point x="293" y="558" type="line"/>
    </contour>
    <contour>
      <point x="1155" y="1460" type="line"/>
      <point x="847" y="1460" type="line"/>
      <point x="847" y="0" type="line"/>
      <point x="1155" y="0" type="line"/>
    </contour>
    <contour>
      <point x="1139" y="858" type="line"/>
      <point x="1109" y="606" type="line"/>
      <point x="1551" y="606" type="line"/>
      <point x="1581" y="858" type="line"/>
    </contour>
    <contour>
      <point x="1093" y="1460" type="line"/>
      <point x="1061" y="1198" type="line"/>
      <point x="1753" y="1198" type="line"/>
      <point x="1785" y="1460" type="line"/>
    </contour>
    <contour>
      <point x="1061" y="262" type="line"/>
      <point x="1029" y="0" type="line"/>
      <point x="1605" y="0" type="line"/>
      <point x="1637" y="262" type="line"/>
    </contour>
  </outline>
</glyph>
<glyph name="multiply" format="2">
  <advance width="1160"/>
  <unicode hex="00D7"/>
  <outline>
    <contour>
      <point x="156" y="984" type="line"/>
      <point x="856" y="186" type="line"/>
      <point x="1032" y="344" type="line"/>
      <point x="332" y="1142" type="line"/>
    </contour>
    <contour>
      <point x="954" y="1140" type="line"/>
      <point x="58" y="342" type="line"/>
      <point x="196" y="184" type="line"/>
      <point x="1092" y="982" type="line"/>
    </contour>
  </outline>
  <guideline angle="82.9991" x="580" y="0"/>
</glyph>
<glyph name="Oslash" format="2">
  <advance width="1520"/>
  <unicode hex="00D8"/>
  <guideline x="732" y="0" angle="82.9991"/>
  <anchor x="882" y="1525" name="Top"/>
  <anchor x="882" y="1525" name="top"/>
  <anchor x="644" y="-70" name="bottom"/>
  <outline>
    <contour>
      <point x="1543" y="1524" type="line"/>
      <point x="1377" y="1524" type="line" smooth="yes"/>
      <point x="1307" y="1524"/>
      <point x="1285" y="1502"/>
      <point x="1235" y="1444" type="curve"/>
      <point x="13" y="-114" type="line"/>
      <point x="141" y="-114" type="line" smooth="yes"/>
      <point x="201" y="-114"/>
      <point x="273" y="-90"/>
      <point x="327" y="-26" type="curve"/>
    </contour>
    <contour>
      <point x="1483" y="822" type="curve" smooth="yes"/>
      <point x="1483" y="1186"/>
      <point x="1249" y="1476"/>
      <point x="867" y="1476" type="curve" smooth="yes"/>
      <point x="405" y="1476"/>
      <point x="65" y="1108"/>
      <point x="65" y="636" type="curve" smooth="yes"/>
      <point x="65" y="272"/>
      <point x="299" y="-16"/>
      <point x="683" y="-16" type="curve" smooth="yes"/>
      <point x="1143" y="-16"/>
      <point x="1483" y="352"/>
    </contour>
    <contour>
      <point x="1149" y="814" type="curve" smooth="yes"/>
      <point x="1149" y="480"/>
      <point x="985" y="256"/>
      <point x="719" y="256" type="curve" smooth="yes"/>
      <point x="513" y="256"/>
      <point x="399" y="410"/>
      <point x="399" y="644" type="curve"/>
      <point x="399" y="978"/>
      <point x="561" y="1204"/>
      <point x="827" y="1204" type="curve" smooth="yes"/>
      <point x="1031" y="1204"/>
      <point x="1149" y="1048"/>
    </contour>
  </outline>
</glyph>
<glyph name="germandbls" format="2">
  <advance width="1267"/>
  <unicode hex="00DF"/>
  <anchor x="759" y="1525" name="Top"/>
  <anchor x="759" y="1525" name="top"/>
  <anchor x="547" y="-421" name="bottom"/>
  <outline>
    <contour>
      <point x="808" y="1486" type="curve" smooth="yes"/>
      <point x="478" y="1486"/>
      <point x="248" y="1174"/>
      <point x="212" y="888" type="curve"/>
      <point x="74" y="-246" type="line"/>
      <point x="200" y="-246" type="line" smooth="yes"/>
      <point x="290" y="-246"/>
      <point x="334" y="-198"/>
      <point x="360" y="-118" type="curve" smooth="yes"/>
      <point x="414" y="52" type="line"/>
      <point x="514" y="878" type="line"/>
      <point x="536" y="1066"/>
      <point x="614" y="1268"/>
      <point x="768" y="1268" type="curve" smooth="yes"/>
      <point x="868" y="1268"/>
      <point x="914" y="1220"/>
      <point x="914" y="1146" type="curve" smooth="yes"/>
      <point x="914" y="964"/>
      <point x="620" y="976"/>
      <point x="620" y="690" type="curve" smooth="yes"/>
      <point x="620" y="452"/>
      <point x="910" y="448"/>
      <point x="910" y="308" type="curve" smooth="yes"/>
      <point x="910" y="242"/>
      <point x="862" y="194"/>
      <point x="816" y="194" type="curve" smooth="yes"/>
      <point x="730" y="194"/>
      <point x="706" y="270"/>
      <point x="638" y="270" type="curve" smooth="yes"/>
      <point x="602" y="270"/>
      <point x="576" y="254"/>
      <point x="558" y="228" type="curve" smooth="yes"/>
      <point x="474" y="112" type="line"/>
      <point x="540" y="40"/>
      <point x="656" y="-16"/>
      <point x="764" y="-16" type="curve" smooth="yes"/>
      <point x="980" y="-16"/>
      <point x="1196" y="116"/>
      <point x="1196" y="390" type="curve" smooth="yes"/>
      <point x="1196" y="646"/>
      <point x="942" y="680"/>
      <point x="942" y="780" type="curve" smooth="yes"/>
      <point x="942" y="896"/>
      <point x="1204" y="896"/>
      <point x="1204" y="1154" type="curve" smooth="yes"/>
      <point x="1204" y="1284"/>
      <point x="1110" y="1486"/>
    </contour>
    <contour>
      <point x="406" y="822" type="line"/>
      <point x="434" y="1036" type="line"/>
      <point x="76" y="1036" type="line"/>
      <point x="62" y="912" type="line"/>
      <point x="56" y="868"/>
      <point x="84" y="848"/>
      <point x="128" y="838" type="curve" smooth="yes"/>
      <point x="236" y="812" type="line"/>
      <point x="276" y="822" type="line"/>
    </contour>
  </outline>
  <guideline angle="82.9991" x="607" y="0"/>
</glyph>
<glyph name="ae" format="2">
  <advance width="1502"/>
  <unicode hex="00E6"/>
  <guideline x="736" y="0" angle="82.9991"/>
  <anchor x="842" y="1120" name="top"/>
  <anchor x="666" y="-70" name="bottom"/>
  <outline>
    <contour>
      <point x="1112" y="1054" type="curve" smooth="yes"/>
      <point x="798" y="1054"/>
      <point x="612" y="778"/>
      <point x="612" y="438" type="curve" smooth="yes"/>
      <point x="612" y="122"/>
      <point x="784" y="-16"/>
      <point x="974" y="-16" type="curve" smooth="yes"/>
      <point x="1172" y="-16"/>
      <point x="1298" y="48"/>
      <point x="1444" y="192" type="curve"/>
      <point x="1364" y="290" type="line"/>
      <point x="1350" y="306"/>
      <point x="1330" y="318"/>
      <point x="1310" y="318" type="curve" smooth="yes"/>
      <point x="1218" y="318"/>
      <point x="1200" y="226"/>
      <point x="1036" y="226" type="curve" smooth="yes"/>
      <point x="920" y="226"/>
      <point x="854" y="294"/>
      <point x="854" y="462" type="curve" smooth="yes"/>
      <point x="854" y="682"/>
      <point x="916" y="838"/>
      <point x="1072" y="838" type="curve" smooth="yes"/>
      <point x="1138" y="838"/>
      <point x="1162" y="800"/>
      <point x="1162" y="756" type="curve" smooth="yes"/>
      <point x="1162" y="694"/>
      <point x="1118" y="636"/>
      <point x="834" y="612" type="curve"/>
      <point x="794" y="436" type="line"/>
      <point x="1332" y="440"/>
      <point x="1432" y="622"/>
      <point x="1432" y="772" type="curve" smooth="yes"/>
      <point x="1432" y="924"/>
      <point x="1292" y="1054"/>
    </contour>
    <contour>
      <point x="768" y="428" type="line"/>
      <point x="814" y="648" type="line"/>
      <point x="844" y="886"/>
      <point x="770" y="1058"/>
      <point x="522" y="1058" type="curve" smooth="yes"/>
      <point x="372" y="1058"/>
      <point x="240" y="1004"/>
      <point x="112" y="894" type="curve"/>
      <point x="154" y="796" type="line"/>
      <point x="168" y="766"/>
      <point x="194" y="742"/>
      <point x="234" y="742" type="curve" smooth="yes"/>
      <point x="326" y="742"/>
      <point x="356" y="818"/>
      <point x="488" y="818" type="curve" smooth="yes"/>
      <point x="568" y="818"/>
      <point x="608" y="768"/>
      <point x="594" y="648" type="curve"/>
      <point x="566" y="428" type="line"/>
    </contour>
    <contour>
      <point x="566" y="428" type="line"/>
      <point x="544" y="252"/>
      <point x="464" y="190"/>
      <point x="364" y="190" type="curve" smooth="yes"/>
      <point x="308" y="190"/>
      <point x="278" y="220"/>
      <point x="278" y="276" type="curve" smooth="yes"/>
      <point x="278" y="362"/>
      <point x="332" y="438"/>
      <point x="610" y="444" type="curve"/>
      <point x="594" y="626" type="line"/>
      <point x="116" y="614"/>
      <point x="-10" y="408"/>
      <point x="-10" y="238" type="curve" smooth="yes"/>
      <point x="-10" y="80"/>
      <point x="90" y="-16"/>
      <point x="306" y="-16" type="curve" smooth="yes"/>
      <point x="508" y="-16"/>
      <point x="730" y="112"/>
      <point x="768" y="428" type="curve"/>
    </contour>
  </outline>
</glyph>
<glyph name="eth" format="2">
  <advance width="1074"/>
  <unicode hex="00F0"/>
  <guideline y="1407"/>
  <guideline x="534" y="0" angle="82.9991"/>
  <anchor x="695" y="1525" name="Top"/>
  <anchor x="695" y="1525" name="top"/>
  <anchor x="445" y="-70" name="bottom"/>
  <outline>
    <contour>
      <point x="398" y="1446" type="curve"/>
      <point x="352" y="1350" type="line" smooth="yes"/>
      <point x="324" y="1293"/>
      <point x="331" y="1249"/>
      <point x="397" y="1227" type="curve" smooth="yes"/>
      <point x="752" y="1108"/>
      <point x="816" y="935"/>
      <point x="774" y="602" type="curve"/>
      <point x="732" y="598" type="line"/>
      <point x="694" y="296"/>
      <point x="584" y="214"/>
      <point x="476" y="214" type="curve" smooth="yes"/>
      <point x="384" y="214"/>
      <point x="320" y="290"/>
      <point x="320" y="426" type="curve" smooth="yes"/>
      <point x="320" y="586"/>
      <point x="408" y="706"/>
      <point x="548" y="706" type="curve" smooth="yes"/>
      <point x="666" y="706"/>
      <point x="716" y="624"/>
      <point x="738" y="520" type="curve"/>
      <point x="876" y="590" type="line"/>
      <point x="828" y="804"/>
      <point x="720" y="936"/>
      <point x="514" y="936" type="curve" smooth="yes"/>
      <point x="238" y="936"/>
      <point x="24" y="696"/>
      <point x="24" y="412" type="curve" smooth="yes"/>
      <point x="24" y="146"/>
      <point x="194" y="-16"/>
      <point x="440" y="-16" type="curve" smooth="yes"/>
      <point x="804" y="-16"/>
      <point x="1022" y="262"/>
      <point x="1022" y="728" type="curve" smooth="yes"/>
      <point x="1022" y="1154"/>
      <point x="754" y="1384"/>
    </contour>
    <contour>
      <point x="444" y="955" type="line"/>
      <point x="714" y="1112" type="line"/>
      <point x="738" y="1098" type="line"/>
      <point x="968" y="1229" type="line" smooth="yes"/>
      <point x="1005" y="1250"/>
      <point x="1005" y="1284"/>
      <point x="991" y="1311" type="curve" smooth="yes"/>
      <point x="941" y="1411" type="line"/>
      <point x="660" y="1252" type="line"/>
      <point x="640" y="1266" type="line"/>
      <point x="406" y="1131" type="line" smooth="yes"/>
      <point x="383" y="1117"/>
      <point x="371" y="1086"/>
      <point x="388" y="1056" type="curve" smooth="yes"/>
    </contour>
  </outline>
</glyph>
<glyph name="divide" format="2">
  <advance width="1160"/>
  <unicode hex="00F7"/>
  <outline>
    <contour>
      <point x="78" y="560" type="line"/>
      <point x="1066" y="560" type="line"/>
      <point x="1094" y="784" type="line"/>
      <point x="106" y="784" type="line"/>
    </contour>
    <contour>
      <point x="456" y="1008" type="curve" smooth="yes"/>
      <point x="456" y="922"/>
      <point x="518" y="856"/>
      <point x="608" y="856" type="curve" smooth="yes"/>
      <point x="710" y="856"/>
      <point x="802" y="938"/>
      <point x="802" y="1046" type="curve" smooth="yes"/>
      <point x="802" y="1132"/>
      <point x="738" y="1200"/>
      <point x="650" y="1200" type="curve" smooth="yes"/>
      <point x="544" y="1200"/>
      <point x="456" y="1114"/>
    </contour>
    <contour>
      <point x="368" y="296" type="curve" smooth="yes"/>
      <point x="368" y="210"/>
      <point x="430" y="144"/>
      <point x="520" y="144" type="curve" smooth="yes"/>
      <point x="622" y="144"/>
      <point x="714" y="226"/>
      <point x="714" y="334" type="curve" smooth="yes"/>
      <point x="714" y="420"/>
      <point x="650" y="488"/>
      <point x="562" y="488" type="curve" smooth="yes"/>
      <point x="456" y="488"/>
      <point x="368" y="402"/>
    </contour>
  </outline>
  <guideline angle="82.9991" x="580" y="0"/>
</glyph>
<glyph name="oslash" format="2">
  <advance width="1053"/>
  <unicode hex="00F8"/>
  <guideline x="517" y="0" angle="82.9991"/>
  <anchor x="614" y="1120" name="top"/>
  <anchor x="413" y="-70" name="bottom"/>
  <outline>
    <contour>
      <point x="871" y="854" type="line"/>
      <point x="901" y="854" type="line"/>
      <point x="1069" y="1086" type="line"/>
      <point x="917" y="1086" type="line" smooth="yes"/>
      <point x="845" y="1086"/>
      <point x="823" y="1064"/>
      <point x="779" y="1004" type="curve" smooth="yes"/>
      <point x="677" y="862" type="line"/>
      <point x="645" y="862" type="line"/>
      <point x="157" y="184" type="line"/>
      <point x="127" y="184" type="line"/>
      <point x="-37" y="-42" type="line"/>
      <point x="75" y="-42" type="line" smooth="yes"/>
      <point x="139" y="-42"/>
      <point x="211" y="-18"/>
      <point x="259" y="48" type="curve" smooth="yes"/>
      <point x="355" y="182" type="line"/>
      <point x="385" y="182" type="line"/>
    </contour>
    <contour>
      <point x="469" y="204" type="curve" smooth="yes"/>
      <point x="377" y="204"/>
      <point x="319" y="282"/>
      <point x="319" y="426" type="curve" smooth="yes"/>
      <point x="319" y="682"/>
      <point x="423" y="836"/>
      <point x="561" y="836" type="curve" smooth="yes"/>
      <point x="653" y="836"/>
      <point x="711" y="760"/>
      <point x="711" y="614" type="curve" smooth="yes"/>
      <point x="711" y="360"/>
      <point x="607" y="204"/>
    </contour>
    <contour>
      <point x="441" y="-16" type="curve" smooth="yes"/>
      <point x="739" y="-16"/>
      <point x="1001" y="250"/>
      <point x="1001" y="616" type="curve" smooth="yes"/>
      <point x="1001" y="900"/>
      <point x="821" y="1056"/>
      <point x="589" y="1056" type="curve" smooth="yes"/>
      <point x="291" y="1056"/>
      <point x="29" y="794"/>
      <point x="29" y="424" type="curve" smooth="yes"/>
      <point x="29" y="140"/>
      <point x="209" y="-16"/>
    </contour>
  </outline>
</glyph>
<glyph name="thorn" format="2">
  <advance width="1097"/>
  <unicode hex="00FE"/>
  <guideline x="545" y="0" angle="82.9991"/>
  <anchor x="424" y="1525" name="Top"/>
  <anchor x="424" y="1525" name="top"/>
  <anchor x="376" y="-421" name="bottom"/>
  <outline>
    <contour>
      <point x="177" y="-328" type="line" smooth="yes"/>
      <point x="245" y="-328"/>
      <point x="291" y="-278"/>
      <point x="297" y="-226" type="curve" smooth="yes"/>
      <point x="511" y="1500" type="line"/>
      <point x="205" y="1500" type="line"/>
      <point x="-17" y="-328" type="line"/>
    </contour>
    <contour>
      <point x="275" y="128" type="line"/>
      <point x="329" y="46"/>
      <point x="417" y="-16"/>
      <point x="539" y="-16" type="curve" smooth="yes"/>
      <point x="805" y="-16"/>
      <point x="1045" y="294"/>
      <point x="1045" y="660" type="curve" smooth="yes"/>
      <point x="1045" y="940"/>
      <point x="925" y="1056"/>
      <point x="755" y="1056" type="curve" smooth="yes"/>
      <point x="541" y="1056"/>
      <point x="359" y="844"/>
      <point x="263" y="558" type="curve"/>
      <point x="367" y="418" type="line"/>
      <point x="407" y="624"/>
      <point x="531" y="810"/>
      <point x="631" y="810" type="curve" smooth="yes"/>
      <point x="695" y="810"/>
      <point x="737" y="756"/>
      <point x="737" y="628" type="curve" smooth="yes"/>
      <point x="737" y="422"/>
      <point x="633" y="222"/>
      <point x="489" y="222" type="curve" smooth="yes"/>
      <point x="431" y="222"/>
      <point x="359" y="242"/>
      <point x="321" y="300" type="curve"/>
    </contour>
  </outline>
</glyph>
<glyph name="Dcroat" format="2">
  <advance width="1434"/>
  <unicode hex="0110"/>
  <guideline x="729" y="0" angle="82.9991"/>
  <anchor x="746" y="1525" name="Top"/>
  <anchor x="746" y="1525" name="top"/>
  <anchor x="546" y="-70" name="bottom"/>
  <outline>
    <contour>
      <point x="1395" y="822" type="curve" smooth="yes"/>
      <point x="1395" y="1184"/>
      <point x="1161" y="1460"/>
      <point x="777" y="1460" type="curve"/>
      <point x="253" y="1460" type="line"/>
      <point x="75" y="0" type="line"/>
      <point x="599" y="0" type="line" smooth="yes"/>
      <point x="1059" y="0"/>
      <point x="1395" y="350"/>
    </contour>
    <contour>
      <point x="1061" y="814" type="curve" smooth="yes"/>
      <point x="1061" y="476"/>
      <point x="897" y="262"/>
      <point x="631" y="262" type="curve" smooth="yes"/>
      <point x="435" y="262" type="line"/>
      <point x="549" y="1198" type="line"/>
      <point x="745" y="1198" type="line" smooth="yes"/>
      <point x="949" y="1198"/>
      <point x="1061" y="1046"/>
    </contour>
    <contour>
      <point x="3" y="638" type="line"/>
      <point x="793" y="638" type="line"/>
      <point x="815" y="824" type="line"/>
      <point x="27" y="824" type="line"/>
    </contour>
  </outline>
</glyph>
<glyph name="dcroat" format="2">
  <advance width="1098"/>
  <unicode hex="0111"/>
  <guideline x="548" y="0" angle="82.9991"/>
  <anchor x="900" y="1525" name="Top"/>
  <anchor x="900" y="1525" name="top"/>
  <anchor x="488" y="-70" name="bottom"/>
  <outline>
    <contour>
      <point x="570" y="1228" type="line" smooth="yes"/>
      <point x="558" y="1152"/>
      <point x="586" y="1122"/>
      <point x="666" y="1122" type="curve" smooth="yes"/>
      <point x="1184" y="1122" type="line"/>
      <point x="1206" y="1308" type="line"/>
      <point x="582" y="1308" type="line"/>
    </contour>
    <contour>
      <point x="924" y="0" type="line"/>
      <point x="1110" y="1500" type="line"/>
      <point x="806" y="1500" type="line"/>
      <point x="648" y="228" type="line"/>
      <point x="658" y="210" type="line"/>
      <point x="658" y="102" type="line" smooth="yes"/>
      <point x="658" y="44"/>
      <point x="680" y="0"/>
      <point x="758" y="0" type="curve" smooth="yes"/>
    </contour>
    <contour>
      <point x="798" y="874" type="line"/>
      <point x="744" y="956"/>
      <point x="656" y="1018"/>
      <point x="534" y="1018" type="curve" smooth="yes"/>
      <point x="268" y="1018"/>
      <point x="28" y="746"/>
      <point x="28" y="380" type="curve" smooth="yes"/>
      <point x="28" y="100"/>
      <point x="148" y="-16"/>
      <point x="318" y="-16" type="curve" smooth="yes"/>
      <point x="532" y="-16"/>
      <point x="714" y="196"/>
      <point x="810" y="482" type="curve"/>
      <point x="706" y="622" type="line"/>
      <point x="666" y="416"/>
      <point x="542" y="230"/>
      <point x="442" y="230" type="curve" smooth="yes"/>
      <point x="378" y="230"/>
      <point x="336" y="284"/>
      <point x="336" y="412" type="curve" smooth="yes"/>
      <point x="336" y="618"/>
      <point x="440" y="780"/>
      <point x="584" y="780" type="curve" smooth="yes"/>
      <point x="642" y="780"/>
      <point x="714" y="760"/>
      <point x="752" y="702" type="curve"/>
    </contour>
  </outline>
</glyph>
<glyph name="hcircumflex" format="2">
  <advance width="1103"/>
  <unicode hex="0125"/>
  <guideline x="554" y="0" angle="82.9991"/>
  <anchor x="425" y="1525" name="Top"/>
  <anchor x="425" y="1525" name="top"/>
  <anchor x="475" y="-70" name="bottom"/>
  <anchor x="564" y="728" name="Slash"/>
  <outline>
    <contour>
      <point x="-7" y="1552" type="line"/>
      <point x="217" y="1552" type="line" smooth="yes"/>
      <point x="241" y="1552"/>
      <point x="271" y="1560"/>
      <point x="289" y="1570" type="curve"/>
      <point x="357" y="1614" type="line" smooth="yes"/>
      <point x="423" y="1656"/>
      <point x="477" y="1730"/>
      <point x="483" y="1778" type="curve"/>
      <point x="245" y="1778" type="line"/>
    </contour>
    <contour>
      <point x="545" y="1778" type="line"/>
      <point x="307" y="1778" type="line"/>
      <point x="301" y="1730"/>
      <point x="337" y="1658"/>
      <point x="393" y="1614" type="curve" smooth="yes"/>
      <point x="449" y="1570" type="line"/>
      <point x="467" y="1562"/>
      <point x="495" y="1552"/>
      <point x="517" y="1552" type="curve" smooth="yes"/>
      <point x="743" y="1552" type="line"/>
    </contour>
    <component base="h"/>
  </outline>
</glyph>
<glyph name="Hbar" format="2">
  <advance width="1469"/>
  <unicode hex="0126"/>
  <guideline x="733" y="0" angle="82.9991"/>
  <anchor x="841" y="1525" name="Top"/>
  <anchor x="841" y="1525" name="top"/>
  <anchor x="648" y="-70" name="bottom"/>
  <anchor x="-33" y="1120" name="onRight"/>
  <outline>
    <contour>
      <point x="71" y="1034" type="line"/>
      <point x="1505" y="1034" type="line"/>
      <point x="1527" y="1226" type="line"/>
      <point x="93" y="1226" type="line"/>
    </contour>
    <component base="H" xOffset="11"/>
  </outline>
</glyph>
<glyph name="idotless" format="2">
  <advance width="518"/>
  <unicode hex="0131"/>
  <anchor x="310" y="1120" name="top"/>
  <anchor x="179" y="-70" name="bottom"/>
  <outline>
    <contour>
      <point x="156" y="1040" type="line"/>
      <point x="32" y="0" type="line"/>
      <point x="338" y="0" type="line"/>
      <point x="462" y="1040" type="line"/>
    </contour>
  </outline>
  <guideline angle="82.9991" x="270" y="0"/>
</glyph>
<glyph name="kgreenlandic" format="2">
  <advance width="1048"/>
  <unicode hex="0138"/>
  <anchor x="575" y="1120" name="top"/>
  <anchor x="460" y="-70" name="bottom"/>
  <outline>
    <contour>
      <point x="150" y="1040" type="line"/>
      <point x="22" y="0" type="line"/>
      <point x="328" y="0" type="line"/>
      <point x="456" y="1040" type="line"/>
    </contour>
    <contour>
      <point x="302" y="664" type="line"/>
      <point x="334" y="456" type="line"/>
      <point x="416" y="456" type="line" smooth="yes"/>
      <point x="454" y="456"/>
      <point x="466" y="450"/>
      <point x="480" y="416" type="curve" smooth="yes"/>
      <point x="626" y="54" type="line"/>
      <point x="640" y="14"/>
      <point x="670" y="0"/>
      <point x="714" y="0" type="curve" smooth="yes"/>
      <point x="982" y="0" type="line"/>
      <point x="774" y="496" type="line"/>
      <point x="736" y="584"/>
      <point x="690" y="638"/>
      <point x="556" y="638" type="curve"/>
      <point x="546" y="544" type="line"/>
      <point x="656" y="544"/>
      <point x="742" y="588"/>
      <point x="808" y="674" type="curve" smooth="yes"/>
      <point x="1092" y="1040" type="line"/>
      <point x="816" y="1040" type="line" smooth="yes"/>
      <point x="772" y="1040"/>
      <point x="744" y="1022"/>
      <point x="718" y="988" type="curve" smooth="yes"/>
      <point x="504" y="702" type="line"/>
      <point x="482" y="674"/>
      <point x="464" y="664"/>
      <point x="430" y="664" type="curve" smooth="yes"/>
    </contour>
  </outline>
  <guideline angle="82.9991" x="537" y="0"/>
</glyph>
<glyph name="Lcaron" format="2">
  <advance width="980"/>
  <unicode hex="013D"/>
  <anchor x="422" y="1525" name="Top"/>
  <anchor x="422" y="1525" name="top"/>
  <anchor x="431" y="-70" name="bottom"/>
  <anchor x="306" y="728" name="Bar"/>
  <outline>
    <component base="L"/>
    <contour>
      <point x="745" y="1500" type="line"/>
      <point x="639" y="1138" type="line"/>
      <point x="745" y="1138" type="line" smooth="yes"/>
      <point x="795" y="1138"/>
      <point x="827" y="1144"/>
      <point x="853" y="1190" type="curve" smooth="yes"/>
      <point x="983" y="1418"/>
      <point x="989" y="1442"/>
      <point x="989" y="1466" type="curve" smooth="yes"/>
      <point x="989" y="1480"/>
      <point x="983" y="1500"/>
      <point x="947" y="1500" type="curve" smooth="yes"/>
    </contour>
  </outline>
  <guideline angle="82.9991" x="478" y="0"/>
</glyph>
<glyph name="Lslash" format="2">
  <advance width="1022"/>
  <unicode hex="0141"/>
  <guideline x="515" y="0" angle="82.9991"/>
  <anchor x="464" y="1525" name="Top"/>
  <anchor x="464" y="1525" name="top"/>
  <anchor x="473" y="-70" name="bottom"/>
  <anchor x="348" y="728" name="Bar"/>
  <outline>
    <contour>
      <point x="-21" y="420" type="line"/>
      <point x="365" y="608" type="line"/>
      <point x="371" y="592" type="line"/>
      <point x="775" y="804" type="line"/>
      <point x="799" y="814"/>
      <point x="815" y="836"/>
      <point x="819" y="866" type="curve" smooth="yes"/>
      <point x="847" y="1090" type="line"/>
      <point x="403" y="866" type="line"/>
      <point x="401" y="884" type="line"/>
      <point x="47" y="704" type="line"/>
      <point x="23" y="694"/>
      <point x="9" y="674"/>
      <point x="7" y="648" type="curve"/>
    </contour>
    <component base="L" xOffset="42"/>
  </outline>
</glyph>
<glyph name="lslash" format="2">
  <advance width="639"/>
  <unicode hex="0142"/>
  <guideline x="332" y="0" angle="82.9991"/>
  <anchor x="432" y="1525" name="Top"/>
  <anchor x="432" y="1525" name="top"/>
  <anchor x="236" y="-70" name="bottom"/>
  <anchor x="413" y="222" name="hook"/>
  <anchor x="344" y="756" name="bar"/>
  <outline>
    <contour>
      <point x="38" y="560" type="line"/>
      <point x="340" y="678" type="line"/>
      <point x="348" y="660" type="line"/>
      <point x="608" y="768" type="line"/>
      <point x="634" y="778"/>
      <point x="648" y="800"/>
      <point x="648" y="832" type="curve" smooth="yes"/>
      <point x="648" y="1014" type="line"/>
      <point x="348" y="896" type="line"/>
      <point x="342" y="914" type="line"/>
      <point x="74" y="804" type="line" smooth="yes"/>
      <point x="50" y="794"/>
      <point x="38" y="774"/>
      <point x="38" y="748" type="curve" smooth="yes"/>
    </contour>
    <component base="l" xOffset="74"/>
  </outline>
</glyph>
<glyph name="Eng" format="2">
  <advance width="1447"/>
  <unicode hex="014A"/>
  <anchor x="806" y="1525" name="Top"/>
  <anchor x="806" y="1525" name="top"/>
  <anchor x="600" y="-421" name="bottom"/>
  <outline>
    <contour>
      <point x="1058" y="481" type="line"/>
      <point x="509" y="1406" type="line"/>
      <point x="480" y="1451"/>
      <point x="463" y="1459"/>
      <point x="407" y="1459" type="curve" smooth="yes"/>
      <point x="236" y="1459" type="line"/>
      <point x="57" y="0" type="line"/>
      <point x="344" y="0" type="line"/>
      <point x="439" y="778" type="line" smooth="yes"/>
      <point x="450" y="867"/>
      <point x="456" y="995"/>
      <point x="446" y="1084" type="curve"/>
      <point x="416" y="978" type="line"/>
      <point x="962" y="56" type="line"/>
      <point x="989" y="15"/>
      <point x="1018" y="0"/>
      <point x="1068" y="0" type="curve"/>
      <point x="1249" y="84" type="line"/>
      <point x="1417" y="1459" type="line"/>
      <point x="1130" y="1459" type="line"/>
      <point x="1036" y="691" type="line" smooth="yes"/>
      <point x="1024" y="592"/>
      <point x="1020" y="454"/>
      <point x="1029" y="356" type="curve"/>
    </contour>
    <contour>
      <point x="1282" y="353" type="line"/>
      <point x="993" y="353" type="line"/>
      <point x="954" y="31" type="line" smooth="yes"/>
      <point x="940" y="-82"/>
      <point x="897" y="-134"/>
      <point x="818" y="-134" type="curve" smooth="yes"/>
      <point x="786" y="-134"/>
      <point x="776" y="-124"/>
      <point x="754" y="-124" type="curve" smooth="yes"/>
      <point x="726" y="-124"/>
      <point x="701" y="-135"/>
      <point x="683" y="-181" type="curve" smooth="yes"/>
      <point x="634" y="-313" type="line"/>
      <point x="697" y="-343"/>
      <point x="746" y="-356"/>
      <point x="819" y="-356" type="curve" smooth="yes"/>
      <point x="1094" y="-356"/>
      <point x="1217" y="-176"/>
      <point x="1246" y="66" type="curve"/>
    </contour>
  </outline>
  <guideline angle="82.9991" x="664" y="0"/>
</glyph>
<glyph name="eng" format="2">
  <advance width="1104"/>
  <unicode hex="014B"/>
  <anchor x="604" y="1120" name="top"/>
  <anchor x="434" y="-421" name="bottom"/>
  <outline>
    <contour>
      <point x="643" y="106" type="line"/>
      <point x="634" y="30" type="line" smooth="yes"/>
      <point x="621" y="-83"/>
      <point x="587" y="-126"/>
      <point x="511" y="-126" type="curve" smooth="yes"/>
      <point x="478" y="-126"/>
      <point x="469" y="-123"/>
      <point x="447" y="-123" type="curve" smooth="yes"/>
      <point x="395" y="-123"/>
      <point x="385" y="-142"/>
      <point x="377" y="-189" type="curve" smooth="yes"/>
      <point x="351" y="-338" type="line"/>
      <point x="413" y="-354"/>
      <point x="442" y="-357"/>
      <point x="515" y="-357" type="curve" smooth="yes"/>
      <point x="795" y="-357"/>
      <point x="918" y="-181"/>
      <point x="949" y="66" type="curve" smooth="yes"/>
      <point x="958" y="138" type="line"/>
    </contour>
    <contour>
      <point x="334" y="0" type="line"/>
      <point x="418" y="766" type="line"/>
      <point x="410" y="784" type="line"/>
      <point x="410" y="940" type="line" smooth="yes"/>
      <point x="410" y="1010"/>
      <point x="372" y="1040"/>
      <point x="308" y="1040" type="curve" smooth="yes"/>
      <point x="148" y="1040" type="line"/>
      <point x="24" y="0" type="line"/>
    </contour>
    <contour>
      <point x="958" y="138" type="line"/>
      <point x="1018" y="660" type="line"/>
      <point x="708" y="660" type="line"/>
      <point x="643" y="106" type="line"/>
    </contour>
    <contour>
      <point x="1018" y="660" type="line"/>
      <point x="1050" y="914"/>
      <point x="930" y="1056"/>
      <point x="758" y="1056" type="curve" smooth="yes" name="hr01"/>
      <point x="570" y="1056"/>
      <point x="392" y="920"/>
      <point x="280" y="616" type="curve"/>
      <point x="382" y="468" type="line"/>
      <point x="416" y="666"/>
      <point x="540" y="800"/>
      <point x="638" y="800" type="curve" smooth="yes"/>
      <point x="698" y="800"/>
      <point x="722" y="768"/>
      <point x="708" y="660" type="curve"/>
    </contour>
  </outline>
  <guideline angle="82.9991" x="554" y="0"/>
</glyph>
<glyph name="OE" format="2">
  <advance width="1991"/>
  <unicode hex="0152"/>
  <anchor x="1089" y="1525" name="Top"/>
  <anchor x="1089" y="1525" name="top"/>
  <anchor x="1033" y="-70" name="bottom"/>
  <outline>
    <contour>
      <point x="1319" y="834" type="curve" smooth="yes"/>
      <point x="1319" y="1192"/>
      <point x="1135" y="1476"/>
      <point x="797" y="1476" type="curve" smooth="yes"/>
      <point x="377" y="1476"/>
      <point x="67" y="1102"/>
      <point x="67" y="626" type="curve" smooth="yes"/>
      <point x="67" y="266"/>
      <point x="273" y="-16"/>
      <point x="615" y="-16" type="curve" smooth="yes"/>
      <point x="1031" y="-16"/>
      <point x="1319" y="358"/>
    </contour>
    <contour>
      <point x="1483" y="1460" type="line"/>
      <point x="1195" y="1460" type="line"/>
      <point x="1015" y="0" type="line"/>
      <point x="1305" y="0" type="line"/>
    </contour>
    <contour>
      <point x="1379" y="858" type="line"/>
      <point x="1349" y="606" type="line"/>
      <point x="1791" y="606" type="line"/>
      <point x="1821" y="858" type="line"/>
    </contour>
    <contour>
      <point x="1453" y="1460" type="line"/>
      <point x="1421" y="1198" type="line"/>
      <point x="1993" y="1198" type="line"/>
      <point x="2025" y="1460" type="line"/>
    </contour>
    <contour>
      <point x="1307" y="262" type="line"/>
      <point x="1273" y="0" type="line"/>
      <point x="1845" y="0" type="line"/>
      <point x="1877" y="262" type="line"/>
    </contour>
    <contour>
      <point x="1073" y="824" type="curve" smooth="yes"/>
      <point x="1073" y="486"/>
      <point x="923" y="246"/>
      <point x="679" y="246" type="curve" smooth="yes"/>
      <point x="495" y="246"/>
      <point x="401" y="406"/>
      <point x="401" y="634" type="curve" smooth="yes"/>
      <point x="401" y="972"/>
      <point x="551" y="1214"/>
      <point x="799" y="1214" type="curve" smooth="yes"/>
      <point x="979" y="1214"/>
      <point x="1073" y="1052"/>
    </contour>
  </outline>
  <guideline angle="82.9991" x="976" y="0"/>
</glyph>
<glyph name="oe" format="2">
  <advance width="1600"/>
  <unicode hex="0153"/>
  <anchor x="888" y="1120" name="top"/>
  <anchor x="753" y="-70" name="bottom"/>
  <outline>
    <contour>
      <point x="602" y="1056" type="curve" smooth="yes"/>
      <point x="310" y="1056"/>
      <point x="27" y="821"/>
      <point x="27" y="368" type="curve" smooth="yes"/>
      <point x="27" y="161"/>
      <point x="156" y="-16"/>
      <point x="382" y="-16" type="curve" smooth="yes"/>
      <point x="688" y="-16"/>
      <point x="919" y="228"/>
      <point x="946" y="608" type="curve" smooth="yes"/>
      <point x="966" y="878"/>
      <point x="834" y="1056"/>
    </contour>
    <contour>
      <point x="456" y="216" type="curve" smooth="yes"/>
      <point x="360" y="216"/>
      <point x="329" y="294"/>
      <point x="329" y="385" type="curve" smooth="yes"/>
      <point x="329" y="644"/>
      <point x="418" y="824"/>
      <point x="574" y="824" type="curve" smooth="yes"/>
      <point x="668" y="824"/>
      <point x="707" y="746"/>
      <point x="696" y="608" type="curve"/>
      <point x="679" y="370"/>
      <point x="612" y="216"/>
    </contour>
    <contour>
      <point x="1225" y="1056" type="curve" smooth="yes"/>
      <point x="889" y="1056"/>
      <point x="703" y="778"/>
      <point x="703" y="438" type="curve" smooth="yes"/>
      <point x="703" y="122"/>
      <point x="873" y="-16"/>
      <point x="1063" y="-16" type="curve" smooth="yes"/>
      <point x="1261" y="-16"/>
      <point x="1387" y="48"/>
      <point x="1533" y="192" type="curve"/>
      <point x="1453" y="290" type="line"/>
      <point x="1439" y="306"/>
      <point x="1419" y="318"/>
      <point x="1399" y="318" type="curve" smooth="yes"/>
      <point x="1307" y="318"/>
      <point x="1289" y="226"/>
      <point x="1125" y="226" type="curve" smooth="yes"/>
      <point x="1009" y="226"/>
      <point x="943" y="294"/>
      <point x="943" y="462" type="curve" smooth="yes"/>
      <point x="943" y="709"/>
      <point x="1043" y="840"/>
      <point x="1176" y="840" type="curve" smooth="yes"/>
      <point x="1248" y="840"/>
      <point x="1282" y="806"/>
      <point x="1282" y="767" type="curve" smooth="yes"/>
      <point x="1282" y="706"/>
      <point x="1215" y="643"/>
      <point x="938" y="603" type="curve"/>
      <point x="902" y="413" type="line"/>
      <point x="1404" y="457"/>
      <point x="1542" y="585"/>
      <point x="1542" y="779" type="curve" smooth="yes"/>
      <point x="1542" y="943"/>
      <point x="1414" y="1056"/>
    </contour>
  </outline>
  <guideline angle="82.9991" x="784" y="0"/>
</glyph>
<glyph name="Tbar" format="2">
  <advance width="1158"/>
  <unicode hex="0166"/>
  <anchor x="687" y="1525" name="Top"/>
  <anchor x="687" y="1525" name="top"/>
  <anchor x="492" y="-70" name="bottom"/>
  <anchor x="626" y="728" name="Slash"/>
  <outline>
    <component base="T" xOffset="12"/>
    <contour>
      <point x="149" y="668" type="line"/>
      <point x="1021" y="668" type="line"/>
      <point x="1043" y="854" type="line"/>
      <point x="171" y="854" type="line"/>
    </contour>
  </outline>
  <guideline angle="82.9991" x="552" y="0"/>
</glyph>
<glyph name="tbar" format="2">
  <advance width="759"/>
  <unicode hex="0167"/>
  <anchor x="471" y="1410" name="top"/>
  <anchor x="333" y="-70" name="bottom"/>
  <anchor x="404" y="728" name="Slash"/>
  <anchor x="273" y="473" name="bar"/>
  <outline>
    <component base="t" xOffset="6"/>
    <contour>
      <point x="18" y="570" type="line"/>
      <point x="14" y="530"/>
      <point x="40" y="504"/>
      <point x="70" y="504" type="curve" smooth="yes"/>
      <point x="688" y="504" type="line"/>
      <point x="712" y="696" type="line"/>
      <point x="34" y="696" type="line"/>
    </contour>
  </outline>
  <guideline angle="82.9991" x="365" y="0"/>
</glyph>
<glyph name="longs" format="2">
  <advance width="617"/>
  <unicode hex="017F"/>
  <guideline x="275" y="0" angle="82.9991"/>
  <anchor x="497" y="1525" name="Top"/>
  <anchor x="497" y="1525" name="top"/>
  <anchor x="207" y="-421" name="bottom"/>
  <outline>
    <contour>
      <point x="538" y="1084" type="line" smooth="yes"/>
      <point x="554" y="1220"/>
      <point x="600" y="1268"/>
      <point x="700" y="1268" type="curve" smooth="yes"/>
      <point x="730" y="1268"/>
      <point x="766" y="1276"/>
      <point x="772" y="1310" type="curve" smooth="yes"/>
      <point x="800" y="1466" type="line"/>
      <point x="758" y="1478"/>
      <point x="722" y="1486"/>
      <point x="674" y="1486" type="curve" smooth="yes"/>
      <point x="430" y="1486"/>
      <point x="266" y="1332"/>
      <point x="236" y="1094" type="curve"/>
      <point x="74" y="-246" type="line"/>
      <point x="200" y="-246" type="line" smooth="yes"/>
      <point x="290" y="-246"/>
      <point x="334" y="-198"/>
      <point x="360" y="-118" type="curve" smooth="yes"/>
      <point x="414" y="52" type="line"/>
    </contour>
    <contour>
      <point x="406" y="822" type="line"/>
      <point x="434" y="1036" type="line"/>
      <point x="76" y="1036" type="line"/>
      <point x="62" y="912" type="line"/>
      <point x="56" y="868"/>
      <point x="84" y="848"/>
      <point x="128" y="838" type="curve" smooth="yes"/>
      <point x="236" y="812" type="line"/>
      <point x="276" y="822" type="line"/>
    </contour>
  </outline>
</glyph>
<glyph name="bstroke" format="2">
  <advance width="1097"/>
  <unicode hex="0180"/>
  <guideline x="562" y="0" angle="82.9991"/>
  <anchor x="423" y="1525" name="Top"/>
  <anchor x="423" y="1525" name="top"/>
  <anchor x="419" y="-70" name="bottom"/>
  <outline>
    <contour>
      <point x="193" y="0" type="line" smooth="yes"/>
      <point x="259" y="0"/>
      <point x="283" y="26"/>
      <point x="301" y="84" type="curve"/>
      <point x="323" y="150" type="line"/>
      <point x="345" y="168" type="line"/>
      <point x="509" y="1500" type="line"/>
      <point x="205" y="1500" type="line"/>
      <point x="23" y="0" type="line"/>
    </contour>
    <contour>
      <point x="275" y="128" type="line"/>
      <point x="329" y="46"/>
      <point x="417" y="-16"/>
      <point x="539" y="-16" type="curve" smooth="yes"/>
      <point x="805" y="-16"/>
      <point x="1045" y="294"/>
      <point x="1045" y="660" type="curve" smooth="yes"/>
      <point x="1045" y="940"/>
      <point x="925" y="1056"/>
      <point x="755" y="1056" type="curve" smooth="yes"/>
      <point x="541" y="1056"/>
      <point x="359" y="844"/>
      <point x="263" y="558" type="curve"/>
      <point x="367" y="418" type="line"/>
      <point x="407" y="624"/>
      <point x="531" y="810"/>
      <point x="631" y="810" type="curve" smooth="yes"/>
      <point x="695" y="810"/>
      <point x="737" y="756"/>
      <point x="737" y="628" type="curve" smooth="yes"/>
      <point x="737" y="422"/>
      <point x="633" y="222"/>
      <point x="489" y="222" type="curve" smooth="yes"/>
      <point x="431" y="222"/>
      <point x="359" y="242"/>
      <point x="321" y="300" type="curve"/>
    </contour>
    <contour>
      <point x="45" y="1228" type="line" smooth="yes"/>
      <point x="34" y="1152"/>
      <point x="61" y="1122"/>
      <point x="141" y="1122" type="curve" smooth="yes"/>
      <point x="659" y="1122" type="line"/>
      <point x="681" y="1308" type="line"/>
      <point x="57" y="1308" type="line"/>
    </contour>
  </outline>
</glyph>
<glyph name="Bhook" format="2">
  <advance width="1580"/>
  <unicode hex="0181"/>
  <anchor x="846" y="1525" name="Top"/>
  <anchor x="846" y="1525" name="top"/>
  <anchor x="845" y="-70" name="bottom"/>
  <outline>
    <contour>
      <point x="930" y="0" type="line" smooth="yes"/>
      <point x="1283" y="0"/>
      <point x="1494" y="215"/>
      <point x="1494" y="483" type="curve" smooth="yes"/>
      <point x="1494" y="683"/>
      <point x="1339" y="784"/>
      <point x="1003" y="784" type="curve"/>
      <point x="909" y="701" type="line"/>
      <point x="1374" y="701"/>
      <point x="1542" y="884"/>
      <point x="1542" y="1119" type="curve" smooth="yes"/>
      <point x="1542" y="1323"/>
      <point x="1408" y="1459"/>
      <point x="1067" y="1459" type="curve" smooth="yes"/>
      <point x="566" y="1459" type="line"/>
      <point x="387" y="0" type="line"/>
      <point x="713" y="0" type="line"/>
      <point x="861" y="1204" type="line"/>
      <point x="1036" y="1204" type="line" smooth="yes"/>
      <point x="1154" y="1204"/>
      <point x="1210" y="1168"/>
      <point x="1210" y="1062" type="curve" smooth="yes"/>
      <point x="1210" y="888"/>
      <point x="1117" y="846"/>
      <point x="970" y="846" type="curve"/>
      <point x="788" y="846" type="line"/>
      <point x="760" y="618" type="line"/>
      <point x="998" y="618" type="line" smooth="yes"/>
      <point x="1131" y="618"/>
      <point x="1173" y="565"/>
      <point x="1173" y="480" type="curve" smooth="yes"/>
      <point x="1173" y="355"/>
      <point x="1117" y="256"/>
      <point x="956" y="256" type="curve" smooth="yes"/>
      <point x="704" y="256" type="line"/>
      <point x="516" y="0" type="line"/>
    </contour>
    <contour>
      <point x="566" y="1221" type="line"/>
      <point x="566" y="1221"/>
      <point x="595" y="1459"/>
      <point x="595" y="1459" type="curve"/>
      <point x="565" y="1459" type="line" smooth="yes"/>
      <point x="259" y="1459"/>
      <point x="77" y="1285"/>
      <point x="77" y="1012" type="curve" smooth="yes"/>
      <point x="77" y="963"/>
      <point x="85" y="908"/>
      <point x="97" y="858" type="curve"/>
      <point x="292" y="900" type="line"/>
      <point x="353" y="916"/>
      <point x="363" y="956"/>
      <point x="358" y="994" type="curve"/>
      <point x="358" y="1001"/>
      <point x="355" y="1022"/>
      <point x="355" y="1043" type="curve" smooth="yes"/>
      <point x="355" y="1149"/>
      <point x="381" y="1221"/>
      <point x="536" y="1221" type="curve" smooth="yes"/>
    </contour>
  </outline>
  <guideline angle="82.9991" x="771" y="0"/>
</glyph>
<glyph name="Btopbar" format="2">
  <advance width="1199"/>
  <unicode hex="0182"/>
  <anchor x="604" y="1525" name="Top"/>
  <anchor x="604" y="1525" name="top"/>
  <anchor x="493" y="-70" name="bottom"/>
  <outline>
    <contour>
      <point x="1195" y="1459" type="line"/>
      <point x="235" y="1459" type="line"/>
      <point x="56" y="0" type="line"/>
      <point x="381" y="0" type="line"/>
      <point x="529" y="1204" type="line"/>
      <point x="1164" y="1204" type="line"/>
    </contour>
    <contour>
      <point x="480" y="875" type="line"/>
      <point x="448" y="619" type="line"/>
      <point x="629" y="619" type="line" smooth="yes"/>
      <point x="766" y="619"/>
      <point x="803" y="559"/>
      <point x="803" y="475" type="curve" smooth="yes"/>
      <point x="803" y="344"/>
      <point x="746" y="256"/>
      <point x="585" y="256" type="curve" smooth="yes"/>
      <point x="373" y="256" type="line"/>
      <point x="185" y="0" type="line"/>
      <point x="553" y="0" type="line" smooth="yes"/>
      <point x="909" y="0"/>
      <point x="1129" y="214"/>
      <point x="1129" y="519" type="curve" smooth="yes"/>
      <point x="1129" y="709"/>
      <point x="1002" y="875"/>
      <point x="661" y="875" type="curve"/>
    </contour>
  </outline>
  <guideline angle="82.9991" x="604" y="0"/>
</glyph>
<glyph name="btopbar" format="2">
  <advance width="1072"/>
  <unicode hex="0183"/>
  <guideline x="545" y="0" angle="82.9991"/>
  <anchor x="592" y="1525" name="Top"/>
  <anchor x="592" y="1525" name="top"/>
  <anchor x="419" y="-70" name="bottom"/>
  <outline>
    <contour>
      <point x="221" y="0" type="line" smooth="yes"/>
      <point x="259" y="0"/>
      <point x="284" y="14"/>
      <point x="299" y="56" type="curve"/>
      <point x="330" y="151" type="line"/>
      <point x="341" y="169" type="line"/>
      <point x="505" y="1499" type="line"/>
      <point x="206" y="1499" type="line"/>
      <point x="22" y="0" type="line"/>
    </contour>
    <contour>
      <point x="300" y="130" type="line"/>
      <point x="354" y="46"/>
      <point x="409" y="-16"/>
      <point x="532" y="-16" type="curve" smooth="yes"/>
      <point x="802" y="-16"/>
      <point x="1015" y="256"/>
      <point x="1015" y="631" type="curve" smooth="yes"/>
      <point x="1015" y="894"/>
      <point x="899" y="1055"/>
      <point x="727" y="1055" type="curve" smooth="yes"/>
      <point x="566" y="1055"/>
      <point x="457" y="968"/>
      <point x="358" y="849" type="curve"/>
      <point x="371" y="679" type="line"/>
      <point x="444" y="770"/>
      <point x="494" y="820"/>
      <point x="594" y="820" type="curve" smooth="yes"/>
      <point x="662" y="820"/>
      <point x="707" y="764"/>
      <point x="707" y="619" type="curve" smooth="yes"/>
      <point x="707" y="328"/>
      <point x="607" y="213"/>
      <point x="488" y="213" type="curve" smooth="yes"/>
      <point x="433" y="213"/>
      <point x="383" y="235"/>
      <point x="346" y="296" type="curve"/>
    </contour>
    <contour>
      <point x="180" y="1285" type="line"/>
      <point x="1010" y="1285" type="line"/>
      <point x="1036" y="1499" type="line"/>
      <point x="206" y="1499" type="line"/>
    </contour>
  </outline>
</glyph>
<glyph name="Tonesix" format="2">
  <advance width="1370"/>
  <unicode hex="0184"/>
  <anchor x="489" y="1525" name="Top"/>
  <anchor x="489" y="1525" name="top"/>
  <anchor x="654" y="-70" name="bottom"/>
  <outline>
    <contour>
      <point x="611" y="975" type="line"/>
      <point x="579" y="718" type="line"/>
      <point x="838" y="718" type="line" smooth="yes"/>
      <point x="967" y="718"/>
      <point x="1005" y="625"/>
      <point x="1005" y="536" type="curve" smooth="yes"/>
      <point x="1005" y="448"/>
      <point x="973" y="256"/>
      <point x="783" y="256" type="curve" smooth="yes"/>
      <point x="551" y="256" type="line"/>
      <point x="552" y="262" type="line"/>
      <point x="698" y="1459" type="line"/>
      <point x="460" y="1459" type="line"/>
      <point x="354" y="1307" type="line"/>
      <point x="194" y="0" type="line"/>
      <point x="758" y="0" type="line" smooth="yes"/>
      <point x="1112" y="0"/>
      <point x="1327" y="243"/>
      <point x="1327" y="550" type="curve" smooth="yes"/>
      <point x="1327" y="778"/>
      <point x="1183" y="975"/>
      <point x="854" y="975" type="curve"/>
    </contour>
    <contour>
      <point x="305" y="829" type="line"/>
      <point x="305" y="829"/>
      <point x="469" y="1459"/>
      <point x="469" y="1459" type="curve"/>
      <point x="460" y="1459" type="line"/>
      <point x="56" y="1020" type="line"/>
      <point x="296" y="829" type="line"/>
    </contour>
  </outline>
  <guideline angle="82.9991" x="708" y="0"/>
</glyph>
<glyph name="tonesix" format="2">
  <advance width="1141"/>
  <unicode hex="0185"/>
  <anchor x="438" y="1525" name="Top"/>
  <anchor x="438" y="1525" name="top"/>
  <anchor x="463" y="-70" name="bottom"/>
  <outline>
    <contour>
      <point x="189" y="940" type="line"/>
      <point x="189" y="940"/>
      <point x="335" y="1499"/>
      <point x="335" y="1499" type="curve"/>
      <point x="326" y="1499" type="line"/>
      <point x="-30" y="1109" type="line"/>
      <point x="181" y="940" type="line"/>
    </contour>
    <contour>
      <point x="237" y="0" type="line" smooth="yes"/>
      <point x="303" y="0"/>
      <point x="327" y="26"/>
      <point x="345" y="84" type="curve"/>
      <point x="367" y="150" type="line"/>
      <point x="389" y="168" type="line"/>
      <point x="553" y="1500" type="line"/>
      <point x="326" y="1499" type="line"/>
      <point x="209" y="1164" type="line"/>
      <point x="67" y="0" type="line"/>
    </contour>
    <contour>
      <point x="319" y="128" type="line"/>
      <point x="373" y="46"/>
      <point x="461" y="-16"/>
      <point x="583" y="-16" type="curve" smooth="yes"/>
      <point x="849" y="-16"/>
      <point x="1089" y="294"/>
      <point x="1089" y="660" type="curve" smooth="yes"/>
      <point x="1089" y="940"/>
      <point x="969" y="1056"/>
      <point x="799" y="1056" type="curve" smooth="yes"/>
      <point x="585" y="1056"/>
      <point x="403" y="844"/>
      <point x="307" y="558" type="curve"/>
      <point x="411" y="418" type="line"/>
      <point x="451" y="624"/>
      <point x="575" y="810"/>
      <point x="675" y="810" type="curve" smooth="yes"/>
      <point x="739" y="810"/>
      <point x="781" y="756"/>
      <point x="781" y="628" type="curve" smooth="yes"/>
      <point x="781" y="422"/>
      <point x="677" y="222"/>
      <point x="533" y="222" type="curve" smooth="yes"/>
      <point x="475" y="222"/>
      <point x="403" y="242"/>
      <point x="365" y="300" type="curve"/>
    </contour>
  </outline>
  <guideline angle="82.9991" x="545" y="0"/>
</glyph>
<glyph name="Oopen" format="2">
  <advance width="1223"/>
  <unicode hex="0186"/>
  <guideline x="601" y="0" angle="82.9991"/>
  <anchor x="601" y="1525" name="Top"/>
  <anchor x="601" y="1525" name="top"/>
  <anchor x="432" y="-70" name="bottom"/>
  <outline>
    <contour>
      <point x="158" y="378" type="curve" smooth="yes"/>
      <point x="143" y="378"/>
      <point x="126" y="372"/>
      <point x="110" y="358" type="curve"/>
      <point x="-36" y="216" type="line"/>
      <point x="52" y="64"/>
      <point x="207" y="-16"/>
      <point x="429" y="-16" type="curve" smooth="yes"/>
      <point x="883" y="-16"/>
      <point x="1183" y="354"/>
      <point x="1183" y="831" type="curve" smooth="yes"/>
      <point x="1183" y="1204"/>
      <point x="956" y="1475"/>
      <point x="596" y="1475" type="curve" smooth="yes"/>
      <point x="394" y="1475"/>
      <point x="224" y="1394"/>
      <point x="110" y="1280" type="curve"/>
      <point x="201" y="1126" type="line" smooth="yes"/>
      <point x="212" y="1107"/>
      <point x="227" y="1089"/>
      <point x="261" y="1089" type="curve" smooth="yes"/>
      <point x="330" y="1089"/>
      <point x="372" y="1193"/>
      <point x="563" y="1193" type="curve" smooth="yes"/>
      <point x="738" y="1193"/>
      <point x="849" y="1052"/>
      <point x="849" y="817" type="curve" smooth="yes"/>
      <point x="849" y="462"/>
      <point x="653" y="263"/>
      <point x="442" y="263" type="curve" smooth="yes"/>
      <point x="332" y="263"/>
      <point x="270" y="284"/>
      <point x="208" y="355" type="curve"/>
      <point x="194" y="368"/>
      <point x="177" y="378"/>
    </contour>
  </outline>
</glyph>
<glyph name="Chook" format="2">
  <advance width="1248"/>
  <unicode hex="0187"/>
  <guideline x="591" y="0" angle="82.9991"/>
  <anchor x="860" y="1525" name="Top"/>
  <anchor x="860" y="1525" name="top"/>
  <anchor x="636" y="-70" name="bottom"/>
  <outline>
    <contour>
      <point x="1305" y="1377" type="line" smooth="yes"/>
      <point x="1317" y="1485"/>
      <point x="1352" y="1540"/>
      <point x="1423" y="1540" type="curve" smooth="yes"/>
      <point x="1444" y="1540"/>
      <point x="1465" y="1537"/>
      <point x="1478" y="1533" type="curve"/>
      <point x="1514" y="1526"/>
      <point x="1554" y="1528"/>
      <point x="1577" y="1587" type="curve"/>
      <point x="1640" y="1758" type="line"/>
      <point x="1575" y="1785"/>
      <point x="1521" y="1801"/>
      <point x="1422" y="1801" type="curve" smooth="yes"/>
      <point x="1119" y="1801"/>
      <point x="1049" y="1578"/>
      <point x="1049" y="1386" type="curve" smooth="yes"/>
      <point x="1049" y="1351"/>
      <point x="1052" y="1312"/>
      <point x="1059" y="1280" type="curve"/>
      <point x="1293" y="1266" type="line"/>
    </contour>
    <contour>
      <point x="693" y="264" type="curve" smooth="yes"/>
      <point x="525" y="264"/>
      <point x="399" y="406"/>
      <point x="399" y="648" type="curve" smooth="yes"/>
      <point x="399" y="982"/>
      <point x="587" y="1194"/>
      <point x="833" y="1194" type="curve" smooth="yes"/>
      <point x="1023" y="1194"/>
      <point x="1041" y="1090"/>
      <point x="1109" y="1090" type="curve" smooth="yes"/>
      <point x="1143" y="1090"/>
      <point x="1163" y="1108"/>
      <point x="1179" y="1128" type="curve" smooth="yes"/>
      <point x="1293" y="1266" type="line"/>
      <point x="1207" y="1388"/>
      <point x="1014" y="1477"/>
      <point x="841" y="1476" type="curve" smooth="yes"/>
      <point x="412" y="1473"/>
      <point x="65" y="1122"/>
      <point x="65" y="620" type="curve" smooth="yes"/>
      <point x="65" y="260"/>
      <point x="269" y="-16"/>
      <point x="637" y="-16" type="curve" smooth="yes"/>
      <point x="857" y="-16"/>
      <point x="1033" y="64"/>
      <point x="1159" y="216" type="curve"/>
      <point x="1045" y="359" type="line" smooth="yes"/>
      <point x="1038" y="368"/>
      <point x="1024" y="378"/>
      <point x="1003" y="378" type="curve" smooth="yes"/>
      <point x="938" y="378"/>
      <point x="915" y="264"/>
    </contour>
  </outline>
</glyph>
<glyph name="chook" format="2">
  <advance width="911"/>
  <unicode hex="0188"/>
  <guideline y="1407"/>
  <guideline x="455" y="0" angle="82.9991"/>
  <anchor x="564" y="1120" name="top"/>
  <anchor x="349" y="-70" name="bottom"/>
  <outline>
    <contour>
      <point x="928" y="1131" type="line" smooth="yes"/>
      <point x="938" y="1209"/>
      <point x="958" y="1247"/>
      <point x="1007" y="1247" type="curve" smooth="yes"/>
      <point x="1035" y="1247"/>
      <point x="1054" y="1238"/>
      <point x="1076" y="1238" type="curve" smooth="yes"/>
      <point x="1099" y="1238"/>
      <point x="1129" y="1248"/>
      <point x="1147" y="1295" type="curve" smooth="yes"/>
      <point x="1196" y="1426" type="line"/>
      <point x="1133" y="1457"/>
      <point x="1075" y="1470"/>
      <point x="1016" y="1470" type="curve" smooth="yes"/>
      <point x="794" y="1470"/>
      <point x="691" y="1290"/>
      <point x="669" y="1117" type="curve"/>
      <point x="647" y="865" type="line"/>
      <point x="900" y="906" type="line"/>
    </contour>
    <contour>
      <point x="844" y="182" type="curve"/>
      <point x="764" y="280" type="line"/>
      <point x="750" y="296"/>
      <point x="730" y="308"/>
      <point x="710" y="308" type="curve" smooth="yes"/>
      <point x="638" y="308"/>
      <point x="622" y="226"/>
      <point x="494" y="226" type="curve" smooth="yes"/>
      <point x="408" y="226"/>
      <point x="340" y="290"/>
      <point x="340" y="424" type="curve" smooth="yes"/>
      <point x="340" y="670"/>
      <point x="460" y="806"/>
      <point x="582" y="806" type="curve" smooth="yes"/>
      <point x="682" y="806"/>
      <point x="692" y="756"/>
      <point x="744" y="756" type="curve" smooth="yes"/>
      <point x="766" y="756"/>
      <point x="786" y="770"/>
      <point x="800" y="786" type="curve" smooth="yes"/>
      <point x="900" y="906" type="line"/>
      <point x="791" y="990"/>
      <point x="712" y="1054"/>
      <point x="574" y="1054" type="curve" smooth="yes"/>
      <point x="267" y="1054"/>
      <point x="30" y="766"/>
      <point x="30" y="426" type="curve" smooth="yes"/>
      <point x="30" y="154"/>
      <point x="184" y="-16"/>
      <point x="426" y="-16" type="curve" smooth="yes"/>
      <point x="606" y="-16"/>
      <point x="712" y="36"/>
    </contour>
  </outline>
</glyph>
<glyph name="Dafrican" format="2">
  <advance width="1434"/>
  <unicode hex="0189"/>
  <anchor x="746" y="1525" name="Top"/>
  <anchor x="746" y="1525" name="top"/>
  <anchor x="546" y="-70" name="bottom"/>
  <outline>
    <contour>
      <point x="1395" y="822" type="curve" smooth="yes"/>
      <point x="1395" y="1184"/>
      <point x="1161" y="1460"/>
      <point x="777" y="1460" type="curve"/>
      <point x="253" y="1460" type="line"/>
      <point x="75" y="0" type="line"/>
      <point x="599" y="0" type="line" smooth="yes"/>
      <point x="1059" y="0"/>
      <point x="1395" y="350"/>
    </contour>
    <contour>
      <point x="1061" y="814" type="curve" smooth="yes"/>
      <point x="1061" y="476"/>
      <point x="897" y="262"/>
      <point x="631" y="262" type="curve" smooth="yes"/>
      <point x="435" y="262" type="line"/>
      <point x="549" y="1198" type="line"/>
      <point x="745" y="1198" type="line" smooth="yes"/>
      <point x="949" y="1198"/>
      <point x="1061" y="1046"/>
    </contour>
    <contour>
      <point x="3" y="638" type="line"/>
      <point x="793" y="638" type="line"/>
      <point x="815" y="824" type="line"/>
      <point x="27" y="824" type="line"/>
    </contour>
  </outline>
  <guideline angle="82.9991" x="729" y="0"/>
</glyph>
<glyph name="Dhook" format="2">
  <advance width="1747"/>
  <unicode hex="018A"/>
  <guideline x="848" y="0" angle="82.9991"/>
  <anchor x="875" y="1525" name="Top"/>
  <anchor x="875" y="1525" name="top"/>
  <anchor x="858" y="-70" name="bottom"/>
  <outline>
    <contour>
      <point x="1708" y="823" type="curve" smooth="yes"/>
      <point x="1708" y="1186"/>
      <point x="1473" y="1459"/>
      <point x="1090" y="1459" type="curve" smooth="yes"/>
      <point x="566" y="1459" type="line"/>
      <point x="387" y="0" type="line"/>
      <point x="911" y="0" type="line" smooth="yes"/>
      <point x="1372" y="0"/>
      <point x="1708" y="351"/>
    </contour>
    <contour>
      <point x="1374" y="814" type="curve" smooth="yes"/>
      <point x="1374" y="477"/>
      <point x="1209" y="262"/>
      <point x="943" y="262" type="curve"/>
      <point x="747" y="262" type="line"/>
      <point x="862" y="1197" type="line"/>
      <point x="1058" y="1197" type="line"/>
      <point x="1262" y="1197"/>
      <point x="1374" y="1046"/>
    </contour>
    <contour>
      <point x="566" y="1221" type="line"/>
      <point x="595" y="1459" type="line"/>
      <point x="565" y="1459" type="line" smooth="yes"/>
      <point x="259" y="1459"/>
      <point x="77" y="1285"/>
      <point x="77" y="1012" type="curve" smooth="yes"/>
      <point x="77" y="963"/>
      <point x="85" y="908"/>
      <point x="97" y="858" type="curve"/>
      <point x="292" y="900" type="line"/>
      <point x="353" y="916"/>
      <point x="363" y="956"/>
      <point x="358" y="994" type="curve"/>
      <point x="358" y="1001"/>
      <point x="355" y="1022"/>
      <point x="355" y="1043" type="curve" smooth="yes"/>
      <point x="355" y="1149"/>
      <point x="381" y="1221"/>
      <point x="536" y="1221" type="curve" smooth="yes"/>
    </contour>
  </outline>
</glyph>
<glyph name="Dtopbar" format="2">
  <advance width="1195"/>
  <unicode hex="018B"/>
  <anchor x="786" y="1525" name="Top"/>
  <anchor x="786" y="1525" name="top"/>
  <anchor x="546" y="-70" name="bottom"/>
  <outline>
    <contour>
      <point x="175" y="1204" type="line"/>
      <point x="809" y="1204" type="line"/>
      <point x="661" y="0" type="line"/>
      <point x="987" y="0" type="line"/>
      <point x="1166" y="1459" type="line"/>
      <point x="206" y="1459" type="line"/>
    </contour>
    <contour>
      <point x="597" y="875" type="line" smooth="yes"/>
      <point x="184" y="875"/>
      <point x="28" y="658"/>
      <point x="28" y="409" type="curve" smooth="yes"/>
      <point x="28" y="166"/>
      <point x="193" y="0"/>
      <point x="489" y="0" type="curve" smooth="yes"/>
      <point x="858" y="0" type="line"/>
      <point x="733" y="256" type="line"/>
      <point x="521" y="256" type="line" smooth="yes"/>
      <point x="382" y="256"/>
      <point x="347" y="328"/>
      <point x="347" y="403" type="curve" smooth="yes"/>
      <point x="347" y="544"/>
      <point x="404" y="619"/>
      <point x="565" y="619" type="curve" smooth="yes"/>
      <point x="747" y="619" type="line"/>
      <point x="778" y="875" type="line"/>
    </contour>
  </outline>
  <guideline angle="82.9991" x="604" y="0"/>
</glyph>
